{"glyphs":{"0":{"ha":892,"x_min":94,"x_max":797,"o":"m 797 440 q 796 470 797 456 q 794 500 794 485 l 794 518 q 778 659 794 586 q 728 794 763 732 q 640 901 694 857 q 507 953 585 944 q 501 947 501 953 q 503 908 503 928 q 504 872 503 890 q 506 833 506 853 q 506 796 506 815 q 510 790 506 790 q 517 788 513 789 q 524 785 521 786 q 547 776 535 781 q 567 763 558 772 q 603 699 594 735 q 611 626 611 663 q 610 592 611 610 q 608 558 610 575 q 606 523 607 540 q 604 488 604 506 q 605 469 604 478 q 606 451 606 461 q 606 419 606 435 q 607 386 607 403 q 603 304 607 343 q 594 257 600 281 q 576 215 588 233 q 549 183 565 196 q 510 171 532 171 l 504 165 q 503 113 504 139 q 501 60 503 86 q 501 35 501 47 q 500 8 500 22 q 507 3 500 3 q 639 59 583 15 q 729 164 694 103 q 781 297 764 225 q 797 440 797 369 m 403 10 q 401 86 401 47 q 400 164 400 125 q 394 169 400 169 q 335 193 363 174 l 336 193 q 290 274 300 229 q 279 367 279 318 q 280 402 279 385 q 282 435 281 419 q 283 468 283 451 q 283 501 283 486 l 283 554 q 286 628 283 590 q 301 698 289 665 q 335 755 313 731 q 396 789 357 779 l 400 794 q 401 832 401 814 q 401 871 401 851 q 402 907 401 889 q 403 944 403 925 q 397 950 403 950 q 260 897 318 942 q 167 787 203 851 q 113 647 131 722 q 96 501 96 571 q 94 482 94 492 q 94 461 94 472 q 111 311 94 388 q 165 170 128 235 q 258 60 201 106 q 396 4 315 14 q 403 10 403 4 z "},"1":{"ha":892,"x_min":238,"x_max":654,"o":"m 654 472 q 649 678 654 576 q 631 881 643 779 q 628 886 631 886 q 479 932 561 924 q 474 926 474 932 q 450 857 469 886 l 450 854 q 451 681 450 767 q 451 508 451 596 q 451 263 451 385 q 449 19 450 142 q 454 14 449 14 q 542 24 499 14 q 625 58 586 35 q 628 61 628 58 q 649 266 643 164 q 654 472 654 368 m 360 811 q 356 817 360 815 q 350 815 353 818 q 344 810 347 813 q 335 796 342 807 l 335 797 q 313 777 324 786 q 288 767 303 768 l 265 763 l 256 757 l 254 758 q 247 753 247 761 q 246 735 246 744 q 244 714 246 725 q 240 670 242 692 q 239 628 239 649 q 246 622 238 622 q 299 629 274 626 q 349 633 325 632 q 354 639 354 633 q 356 726 356 683 q 360 811 357 768 z "},"2":{"ha":892,"x_min":128,"x_max":761,"o":"m 757 631 q 757 646 757 639 q 756 660 757 653 l 756 658 q 733 759 753 710 q 681 848 714 808 q 602 914 647 888 q 504 944 557 940 q 499 939 499 944 q 500 897 500 918 q 501 858 500 878 q 503 817 503 838 q 503 775 503 796 q 507 769 503 769 q 554 731 543 763 q 565 667 565 699 l 565 658 q 533 560 558 604 q 472 481 508 517 q 392 415 436 444 q 304 357 349 385 q 257 326 281 342 q 213 294 233 310 q 210 289 210 292 q 215 286 211 286 q 342 277 278 279 q 474 275 407 275 q 493 289 483 282 q 513 303 503 296 q 598 367 554 333 q 677 441 642 401 q 735 527 713 481 q 757 631 757 574 m 410 942 l 404 947 q 296 909 343 940 q 215 832 249 878 q 162 730 182 786 q 135 618 142 674 l 133 607 l 133 608 l 131 597 q 136 590 128 590 q 204 592 171 592 q 272 592 238 592 l 318 592 q 324 597 324 592 q 322 621 322 608 q 321 646 321 633 q 324 690 321 668 q 335 728 326 711 q 360 758 344 746 q 401 772 376 769 q 407 778 407 772 q 408 819 408 799 q 408 861 408 840 q 409 901 408 881 q 410 942 410 921 m 761 210 q 754 215 761 218 q 608 192 681 200 q 461 185 535 185 q 305 193 383 185 q 149 218 226 201 l 142 213 q 151 142 146 178 q 164 69 157 106 q 168 65 164 65 q 458 15 307 15 q 733 60 600 15 q 738 64 738 60 q 751 136 744 100 q 761 210 757 172 z "},"3":{"ha":892,"x_min":114,"x_max":778,"o":"m 400 943 q 394 949 400 949 q 290 916 338 943 q 208 847 243 889 q 153 753 172 806 q 133 646 133 701 l 133 636 q 139 631 133 631 q 172 632 156 632 q 206 632 189 632 l 313 632 q 318 638 318 632 q 317 653 317 646 q 317 671 317 661 q 319 712 317 692 q 331 749 322 732 q 353 777 339 765 q 392 793 368 789 q 396 799 396 793 l 400 943 m 778 310 l 778 317 q 769 380 778 347 q 742 440 760 413 q 700 486 725 467 q 643 513 675 506 q 713 575 685 535 q 740 664 740 615 q 740 677 740 671 q 738 690 739 683 l 738 689 q 716 783 736 739 q 663 863 696 828 q 585 921 629 899 q 492 947 542 943 q 486 942 486 947 q 488 906 488 924 q 488 869 488 888 q 488 833 488 850 q 489 796 489 815 q 494 790 489 790 q 540 758 529 786 q 551 700 551 731 l 551 689 q 535 639 551 658 q 492 608 518 619 q 438 592 467 597 q 383 585 408 586 q 375 586 381 586 q 373 587 374 586 q 369 588 372 588 l 364 582 l 364 418 q 371 414 364 414 q 433 418 401 418 l 440 418 q 490 410 465 418 q 534 388 514 403 q 567 353 554 374 q 579 306 579 332 l 579 294 q 575 251 579 274 q 561 209 571 228 q 535 178 551 190 q 494 164 518 165 q 489 158 489 164 q 488 121 488 139 q 488 83 488 103 q 488 46 488 65 q 486 8 488 28 q 492 3 486 3 q 601 35 549 7 q 692 105 653 63 q 755 201 732 147 q 778 310 778 254 m 403 7 q 402 45 403 26 q 401 82 401 64 q 401 119 401 101 q 400 158 401 139 q 394 164 400 164 q 345 179 364 165 q 316 215 326 193 q 301 264 306 238 q 297 315 297 290 q 298 328 297 322 q 299 342 299 335 q 294 347 299 347 q 266 348 281 347 q 236 349 251 349 q 178 349 207 349 q 119 351 149 349 q 114 346 114 351 q 136 226 115 286 q 194 118 157 167 q 282 38 231 69 q 397 1 333 6 q 403 7 403 1 z "},"4":{"ha":892,"x_min":97,"x_max":796,"o":"m 796 374 q 790 379 796 379 q 774 378 782 378 q 758 376 765 378 l 760 376 q 678 372 718 372 q 678 413 678 393 q 679 456 679 433 q 672 681 679 569 q 651 906 665 793 q 647 911 651 911 q 574 923 611 919 q 500 929 536 926 q 490 930 494 929 q 479 931 485 931 l 474 925 q 478 657 476 790 q 479 389 479 524 q 475 19 479 204 q 481 14 475 14 q 565 19 524 15 q 646 31 606 22 q 650 35 650 31 q 661 122 657 78 q 668 213 665 167 q 685 215 676 214 q 703 218 693 217 q 742 224 722 221 q 781 229 761 226 q 785 235 785 229 q 788 276 788 256 q 792 318 789 297 q 793 346 792 332 q 796 374 794 360 m 388 828 q 383 833 388 832 q 378 831 379 833 q 344 781 361 806 q 311 733 326 757 q 203 574 256 654 q 99 411 150 494 l 97 408 q 110 236 100 321 q 113 231 110 231 q 245 213 179 219 q 379 204 311 207 q 385 210 385 204 q 383 264 383 238 q 383 318 383 292 l 383 364 q 378 369 383 369 q 360 370 369 369 q 340 371 351 371 q 304 371 322 371 q 272 372 288 371 q 327 473 299 422 q 383 572 356 524 q 388 828 383 700 z "},"5":{"ha":892,"x_min":103,"x_max":789,"o":"m 732 743 q 729 815 731 779 q 725 886 728 850 q 721 892 725 892 q 440 933 583 933 q 342 928 390 933 q 246 915 293 924 l 242 911 q 222 833 232 872 q 200 756 211 794 q 204 749 197 749 q 319 757 263 754 q 433 760 375 760 q 580 755 507 760 q 725 738 653 750 q 732 743 732 738 m 789 381 q 770 481 789 432 q 719 569 751 531 q 641 632 686 608 q 542 656 596 656 q 522 657 532 657 q 504 657 514 657 l 499 651 q 499 613 499 632 q 500 572 500 593 l 500 492 q 504 486 500 486 q 545 469 528 482 q 574 440 563 457 q 590 401 585 422 q 596 358 596 379 q 596 347 596 353 q 594 336 596 343 l 594 318 q 589 271 594 294 q 572 226 583 247 q 543 190 561 206 q 500 169 525 175 q 496 164 496 169 q 494 87 496 125 q 490 11 493 49 q 497 6 490 6 q 611 48 558 15 q 703 128 664 81 q 765 233 742 175 q 788 354 788 292 q 789 367 789 361 q 789 381 789 374 m 400 624 l 400 644 q 394 650 400 650 q 369 643 379 650 q 349 628 360 636 q 343 624 346 625 q 338 619 340 622 l 346 639 q 353 658 350 649 q 361 675 357 667 q 356 683 364 683 q 194 675 274 681 l 189 671 q 157 551 171 611 q 131 429 143 492 q 136 422 128 422 q 194 420 165 421 q 253 419 224 419 q 281 419 268 419 q 310 418 294 418 q 315 422 315 418 q 344 467 322 450 q 392 488 365 485 q 397 493 397 488 q 397 531 397 513 q 399 569 397 550 q 400 596 400 583 q 400 624 400 610 m 404 10 q 404 83 404 46 q 403 160 404 122 q 397 165 403 165 l 393 165 q 349 178 367 165 q 318 210 331 190 q 300 253 306 229 q 293 299 294 276 q 286 303 293 303 q 269 303 278 303 q 253 304 261 304 q 181 306 217 306 q 108 310 144 307 q 103 303 103 310 q 135 200 111 251 q 194 107 158 149 q 278 38 231 65 q 382 4 325 10 l 399 4 q 404 10 404 4 z "},"6":{"ha":892,"x_min":106,"x_max":788,"o":"m 764 689 q 733 777 754 733 q 682 857 713 821 q 610 917 651 893 q 519 946 569 940 l 506 947 l 504 947 q 499 942 499 947 q 501 871 500 906 q 503 800 501 836 q 507 794 503 794 q 513 793 510 793 q 519 792 517 793 q 539 785 531 789 q 557 774 547 782 l 557 775 q 577 734 572 753 q 585 696 582 715 q 590 692 585 692 q 674 690 632 692 q 758 682 717 688 q 764 689 767 682 m 788 371 q 763 481 788 429 q 699 573 739 533 q 606 635 658 613 q 496 658 553 658 l 481 658 q 378 635 426 658 q 290 572 329 611 q 292 581 290 579 q 301 645 296 611 q 317 708 306 679 q 350 760 329 738 q 407 790 371 782 l 411 796 q 413 832 413 815 q 413 869 413 850 q 413 905 413 888 q 414 940 414 922 q 407 946 414 946 q 273 888 329 933 q 179 780 217 843 q 124 642 142 717 q 106 497 106 568 l 106 440 q 119 308 106 375 q 163 181 133 240 q 241 76 193 121 q 358 13 289 32 q 363 11 353 13 q 376 8 372 10 q 400 4 389 4 l 406 4 q 411 10 411 4 q 411 85 411 47 q 410 161 411 122 q 404 167 410 167 q 360 185 378 169 q 330 221 342 200 q 313 266 318 242 q 308 314 308 290 l 308 318 q 308 326 308 322 q 307 335 307 331 q 318 392 307 364 q 349 440 329 419 q 396 474 369 461 q 453 486 422 486 l 469 486 q 522 474 497 486 q 566 441 547 461 q 595 395 585 421 q 606 342 606 369 q 605 334 606 338 q 604 326 604 331 l 604 317 q 599 268 604 293 q 583 222 594 243 q 553 185 571 200 q 508 167 535 171 q 504 161 504 167 l 504 144 q 503 108 504 125 q 500 71 501 90 q 496 8 496 42 q 503 3 496 3 q 617 44 565 11 q 706 124 668 76 q 764 231 743 172 q 786 351 785 290 q 787 361 786 357 q 788 371 788 365 z "},"7":{"ha":892,"x_min":147,"x_max":743,"o":"m 743 735 q 733 806 738 771 q 721 876 728 842 q 717 881 721 881 q 581 916 650 904 q 442 928 513 928 q 305 917 372 928 q 174 883 238 907 l 169 879 q 158 810 163 846 q 150 736 153 774 q 157 731 147 728 q 298 751 228 744 q 439 757 368 757 q 736 728 588 757 q 743 735 743 725 m 718 643 q 719 649 721 646 q 714 653 718 653 q 647 659 681 657 q 579 664 613 661 q 551 665 565 665 q 526 667 539 665 l 522 665 q 497 637 510 653 q 474 603 485 621 q 465 591 468 596 q 457 579 461 586 q 384 465 419 524 q 322 344 349 407 q 278 217 294 282 q 263 82 263 151 q 263 61 263 71 q 264 42 263 53 q 268 36 264 36 q 354 21 311 28 q 442 14 397 14 l 458 14 q 464 19 464 14 q 533 356 467 193 q 718 643 599 518 z "},"8":{"ha":892,"x_min":107,"x_max":785,"o":"m 785 333 q 752 433 785 388 q 675 507 719 478 q 737 574 715 529 q 758 665 758 618 l 758 678 q 733 781 758 733 q 668 864 708 828 q 576 922 628 900 q 472 950 525 944 q 467 944 467 950 q 468 872 468 908 q 468 801 468 838 q 474 796 468 796 q 545 765 514 792 q 576 696 576 739 l 576 689 q 577 682 576 686 q 578 675 578 678 q 566 633 578 651 q 535 601 554 614 q 494 582 517 589 q 449 575 471 575 l 426 575 q 386 583 406 575 q 351 604 367 590 q 327 636 336 618 q 318 675 318 654 l 318 696 q 339 761 318 732 q 396 794 360 790 q 401 800 401 794 q 403 836 403 819 q 403 872 403 854 q 403 907 403 889 q 404 943 404 925 q 399 949 404 949 q 303 922 349 944 q 224 863 258 899 q 167 782 189 828 q 140 686 144 736 l 139 685 q 138 672 138 679 q 138 660 138 667 q 160 574 138 615 q 221 508 183 532 q 142 434 176 478 q 107 335 107 390 q 108 322 107 328 q 110 308 108 315 l 110 310 q 136 199 113 253 q 199 102 160 144 q 289 33 238 60 q 399 3 340 6 q 404 8 404 3 l 404 82 q 403 119 404 101 q 403 157 403 138 q 397 163 403 163 q 354 173 374 163 q 320 200 335 183 q 298 238 306 217 q 290 281 290 258 l 290 289 q 290 294 290 292 q 289 300 289 297 q 301 351 289 328 q 335 390 314 374 q 381 416 356 407 q 433 425 407 425 l 443 425 q 451 426 447 425 q 458 426 454 426 q 511 417 485 426 q 558 392 538 408 q 592 353 579 376 q 604 300 604 329 q 603 294 604 297 q 603 288 603 290 q 564 201 601 236 q 476 161 526 165 q 471 156 471 161 q 470 118 471 136 q 469 81 469 100 q 469 43 469 63 q 468 6 469 25 q 474 0 468 0 q 587 32 532 6 q 684 100 642 58 q 753 195 726 142 q 783 310 779 249 l 783 308 q 785 321 785 315 q 785 333 785 326 z "},"9":{"ha":892,"x_min":106,"x_max":788,"o":"m 788 460 q 787 474 788 467 q 786 489 786 482 l 786 496 q 767 637 786 565 q 711 770 749 708 q 618 878 674 832 q 489 940 563 924 l 488 943 q 481 944 485 946 q 478 939 476 943 q 478 901 478 919 q 479 865 479 883 q 480 828 479 846 q 481 790 481 810 q 486 785 481 785 q 533 766 514 781 q 563 730 551 751 q 580 683 575 708 q 585 635 585 658 l 585 611 q 572 553 585 581 q 540 506 560 526 q 492 474 519 486 q 436 463 465 463 l 419 463 q 367 474 392 463 q 325 506 343 486 q 297 552 307 526 q 288 606 288 578 l 288 615 q 288 660 288 639 q 297 706 289 682 q 334 758 308 740 q 383 786 360 775 l 386 792 l 390 940 q 385 946 390 946 q 268 908 319 942 q 181 824 217 875 q 127 713 146 774 q 107 592 108 651 l 107 593 q 106 579 106 586 q 106 564 106 572 q 129 459 106 508 q 192 373 153 410 q 282 315 231 336 q 388 293 333 293 l 407 293 q 510 315 460 293 q 599 376 561 336 l 599 371 q 594 306 599 340 q 578 241 590 271 q 543 190 565 211 q 485 163 521 168 q 481 157 481 163 q 480 120 481 138 q 478 83 479 103 q 476 47 476 64 q 475 10 475 29 q 482 4 474 4 q 619 62 561 17 q 714 172 676 107 q 769 312 751 236 q 788 460 788 388 m 390 8 q 390 45 390 28 q 389 81 389 63 q 388 118 389 100 q 388 154 388 136 q 382 160 385 160 l 378 160 q 326 188 344 160 q 307 247 307 215 l 307 254 q 303 260 307 260 q 217 261 260 260 q 131 267 175 263 q 125 260 122 267 q 160 167 138 213 q 214 86 182 122 q 289 27 246 50 q 385 3 332 4 q 390 8 390 3 z "},"\u0007":{"ha":390,"x_min":0,"x_max":0,"o":""},"\u0005":{"ha":1001,"x_min":44,"x_max":957,"o":"m 957 428 q 912 592 951 513 q 810 734 872 672 q 667 833 747 796 q 503 869 588 869 q 337 833 417 869 q 194 736 257 797 q 90 596 131 675 q 44 431 50 517 q 90 266 50 344 q 194 127 131 188 q 337 29 257 67 q 501 -12 417 -8 q 666 28 586 -8 q 809 126 746 65 q 913 264 872 186 q 957 428 953 342 m 897 428 q 863 284 897 353 q 774 163 829 215 q 647 80 718 111 q 501 49 576 49 q 355 81 426 49 q 228 165 283 113 q 138 286 172 217 q 104 431 104 356 q 138 574 104 506 q 228 695 172 643 q 356 779 285 747 q 503 813 428 811 q 506 814 506 813 q 651 777 581 810 q 776 692 721 744 q 864 571 831 639 q 897 428 897 503 m 750 571 q 744 608 747 590 q 736 646 740 626 l 735 647 q 691 659 713 654 q 646 667 669 664 l 643 664 q 645 636 644 649 q 647 608 646 624 q 648 595 647 601 q 649 582 649 589 q 651 579 649 579 q 699 574 675 576 q 747 568 724 572 q 750 571 750 568 m 474 664 q 471 667 474 667 q 428 659 449 664 q 388 649 407 654 l 386 647 q 380 616 382 632 q 375 585 378 600 l 372 572 q 376 569 372 569 q 420 575 399 572 q 464 579 442 578 q 467 582 467 579 q 470 623 469 603 q 474 664 471 643 m 619 436 q 618 551 619 494 q 614 667 617 608 q 611 669 614 669 q 583 672 596 671 q 554 672 569 672 q 532 672 543 672 q 511 671 522 672 l 508 668 q 503 550 504 608 q 501 432 501 492 q 503 319 501 375 q 507 206 504 264 q 510 203 507 203 q 532 201 521 201 q 557 201 544 201 q 583 201 569 201 q 611 203 597 201 q 614 206 614 203 q 618 321 617 264 q 619 436 619 378 m 658 165 q 658 167 658 167 q 657 168 657 168 q 624 172 640 171 q 590 174 607 172 q 590 173 590 174 q 588 172 589 172 q 567 136 578 151 q 558 122 564 131 q 555 129 557 125 q 550 138 553 133 q 541 153 546 144 q 532 172 536 161 l 529 174 q 503 173 515 174 q 478 171 490 172 q 464 169 474 169 q 463 167 463 169 q 476 124 464 143 q 503 88 488 106 q 511 76 508 79 q 514 75 511 75 q 536 74 525 74 q 558 74 547 74 l 603 74 q 607 79 607 78 q 639 119 624 99 q 658 165 654 139 m 728 600 q 726 585 728 589 q 725 583 726 583 q 725 583 725 583 q 708 582 719 582 q 699 582 704 582 q 690 583 694 582 q 689 583 690 583 q 689 585 689 583 q 688 600 688 589 q 688 610 688 606 q 690 619 689 614 q 707 622 701 622 q 717 622 713 622 q 725 621 721 621 l 725 619 q 728 600 728 614 m 450 600 q 449 585 450 589 q 447 583 449 583 q 447 583 447 583 q 431 582 442 582 q 421 582 426 582 q 413 583 417 582 q 411 583 413 583 q 411 585 411 583 q 410 600 410 589 q 410 610 410 606 q 413 619 411 614 q 421 621 417 619 q 429 622 425 622 q 439 622 435 622 q 447 621 443 621 l 447 619 q 450 600 450 614 z "},"\u0006":{"ha":1001,"x_min":44,"x_max":957,"o":"m 957 428 q 912 592 951 513 q 810 734 872 672 q 667 833 747 796 q 503 869 588 869 q 337 833 417 869 q 194 736 257 797 q 90 596 131 675 q 44 431 50 517 q 90 266 50 344 q 194 127 131 188 q 337 29 257 67 q 501 -12 417 -8 q 666 28 586 -8 q 809 126 746 65 q 913 264 872 186 q 957 428 953 342 m 897 428 q 863 284 897 353 q 774 163 829 215 q 647 80 718 111 q 501 49 576 49 q 355 81 426 49 q 228 165 283 113 q 138 286 172 217 q 104 431 104 356 q 138 574 104 506 q 228 695 172 643 q 356 779 285 747 q 503 813 428 811 q 506 814 506 813 q 651 777 581 810 q 776 692 721 744 q 864 571 831 639 q 897 428 897 503 m 554 508 q 553 531 554 519 q 549 554 551 543 l 547 556 q 504 560 524 560 q 463 554 481 560 l 461 553 q 456 506 456 532 q 460 467 456 485 l 461 465 q 484 461 472 463 q 507 460 496 460 q 528 461 518 460 q 547 465 538 463 l 549 467 q 554 508 554 485 m 486 571 q 486 594 486 583 q 485 619 486 607 q 484 631 485 625 q 483 642 483 636 q 483 643 483 642 q 481 644 482 644 q 450 651 465 649 q 418 657 435 654 q 417 697 418 676 q 415 738 417 717 q 413 740 415 740 q 362 731 386 739 q 315 713 338 724 q 314 711 314 713 q 314 710 314 710 q 314 696 314 703 q 313 681 314 689 q 312 667 313 674 q 311 654 311 661 q 289 650 300 651 q 267 646 278 649 l 264 643 q 264 632 264 638 q 263 621 264 628 q 260 597 261 610 q 260 572 260 585 q 263 569 260 569 l 267 569 q 288 572 278 571 q 308 572 297 572 q 308 545 308 558 q 307 518 307 532 q 308 468 307 493 q 310 418 310 443 l 310 392 l 310 386 q 333 319 310 350 q 392 289 356 289 q 410 292 399 289 q 464 311 440 296 l 472 314 q 474 315 474 314 q 474 317 474 317 l 476 336 q 480 361 478 349 q 482 386 482 374 q 481 389 482 388 q 478 389 479 390 q 463 384 471 386 q 449 379 456 382 q 444 378 446 379 q 442 378 443 378 q 425 386 431 378 q 419 406 419 394 l 419 413 q 421 460 421 436 q 421 508 421 485 l 421 574 q 452 572 436 572 q 485 568 468 571 q 486 571 489 568 m 276 507 q 275 531 276 519 q 271 554 274 543 l 269 556 q 226 560 246 560 q 185 554 203 560 l 183 553 q 178 506 178 532 q 182 467 178 485 l 183 465 q 206 461 194 463 q 229 460 218 460 q 250 461 240 460 q 269 465 260 463 l 271 467 q 276 508 276 485 l 276 507 m 485 188 q 482 192 485 192 q 417 196 449 196 q 414 194 414 196 q 403 176 408 185 q 393 158 399 168 q 389 151 390 156 q 385 144 388 147 q 381 152 382 149 q 376 160 379 156 q 367 176 372 167 q 357 196 363 185 l 354 196 q 328 196 342 196 q 303 193 315 196 q 290 192 294 193 q 288 189 288 192 q 301 147 289 165 q 328 110 313 128 q 333 104 331 107 q 338 99 335 101 l 339 97 q 361 96 350 96 q 383 96 372 96 l 429 96 q 433 101 431 99 q 465 142 450 121 q 485 188 481 163 m 547 492 q 544 475 547 486 l 544 474 q 528 472 539 472 q 510 474 515 472 q 508 474 508 474 q 508 475 508 475 q 507 490 507 481 q 508 510 507 504 l 510 511 q 526 513 515 513 q 544 511 538 513 l 544 510 q 547 492 547 499 m 269 492 q 267 475 269 486 l 267 474 q 250 472 261 472 q 232 474 238 472 q 231 474 231 474 q 231 475 231 475 q 229 490 229 481 q 231 510 229 504 l 232 511 q 240 512 236 511 q 249 513 244 513 q 267 511 260 513 l 267 510 q 269 492 269 499 z "},"\b":{"ha":1001,"x_min":44,"x_max":957,"o":"m 957 428 q 912 592 951 513 q 810 734 872 672 q 667 833 747 796 q 503 869 588 869 q 337 833 417 869 q 194 736 257 797 q 90 596 131 675 q 44 431 50 517 q 90 266 50 344 q 194 127 131 188 q 337 29 257 67 q 501 -12 417 -8 q 666 28 586 -8 q 809 126 746 65 q 913 264 872 186 q 957 428 953 342 m 897 428 q 854 265 897 343 q 838 293 847 282 q 833 293 835 294 q 713 233 782 249 q 578 218 644 218 q 440 235 510 219 q 314 292 371 251 q 310 292 311 293 q 279 218 283 261 q 279 217 279 217 q 281 215 281 217 q 419 140 343 168 q 574 110 494 111 q 672 122 624 110 q 765 154 721 133 q 642 77 710 106 q 501 49 574 49 q 355 81 426 49 q 228 165 283 113 q 138 286 172 217 q 104 431 104 356 q 138 574 104 506 q 228 695 172 643 q 356 779 285 747 q 503 813 428 811 q 506 814 506 813 q 651 777 581 810 q 776 692 721 744 q 864 571 831 639 q 897 428 897 503 m 704 528 q 703 545 704 536 q 699 561 701 554 l 699 563 q 683 565 690 564 q 668 565 675 565 q 639 561 651 565 l 636 560 q 634 544 635 553 q 633 526 633 536 q 633 513 633 519 q 636 499 633 506 q 636 497 636 499 q 638 497 636 497 q 653 495 644 496 q 669 494 661 494 q 684 495 676 494 q 699 497 692 496 l 700 499 q 704 528 704 513 m 813 564 q 797 621 810 593 q 763 669 783 649 q 715 703 742 690 q 657 719 688 717 l 658 719 l 646 719 q 596 703 618 719 q 558 665 574 688 q 525 696 547 685 q 479 707 503 707 l 474 707 q 422 694 446 707 q 381 662 399 682 q 351 616 363 642 q 338 564 340 590 q 340 561 338 561 l 411 561 q 414 564 414 561 q 430 600 417 585 q 464 615 443 615 l 468 615 q 471 616 469 615 q 475 617 472 617 q 512 596 499 617 q 525 551 525 575 l 525 540 q 510 503 525 521 q 475 486 496 486 l 464 486 q 432 497 446 486 q 415 525 418 507 q 413 528 415 528 q 393 529 403 529 q 376 529 385 529 l 340 529 q 338 526 338 529 q 351 479 339 501 q 381 439 363 457 q 422 410 399 421 q 469 397 444 399 q 482 396 474 396 q 526 407 506 396 q 558 438 546 418 q 595 398 574 415 q 644 381 617 381 q 652 381 649 381 q 658 382 656 382 l 657 382 q 713 395 686 383 q 761 426 740 407 q 796 472 782 446 q 811 526 810 497 q 808 529 811 529 l 771 529 l 733 529 q 731 526 731 529 q 713 488 731 503 q 672 472 694 472 l 668 472 l 663 472 q 617 495 635 472 q 600 544 600 518 l 600 549 q 599 553 600 551 q 599 557 599 554 q 616 607 599 585 q 663 629 633 629 l 668 629 q 712 609 694 628 q 732 565 729 590 q 735 563 732 563 l 772 563 q 790 563 781 563 q 810 561 800 563 q 813 564 813 561 m 506 528 q 501 561 506 546 l 500 563 q 485 565 493 564 q 469 565 476 565 q 440 561 454 565 l 439 560 q 435 526 435 544 q 435 513 435 519 q 438 499 436 506 l 439 497 q 455 495 447 496 q 471 494 463 494 q 486 495 479 494 q 500 497 493 496 l 501 499 q 506 528 506 513 m 636 340 q 635 350 636 347 q 631 351 632 350 q 626 351 629 351 q 623 351 624 351 q 619 350 622 350 q 618 340 618 347 l 618 333 l 619 333 q 628 332 622 332 q 635 333 633 332 l 636 333 l 636 340 m 507 340 l 507 350 l 506 350 q 502 351 503 350 q 499 351 501 351 q 494 351 496 351 q 490 350 493 350 q 489 340 489 347 q 490 333 489 336 q 499 332 493 332 q 506 333 504 332 l 507 333 l 507 340 m 674 521 q 672 510 674 514 l 671 510 q 660 508 668 508 q 647 510 651 508 q 646 521 646 514 q 647 527 646 524 q 647 533 647 531 l 649 535 q 654 535 651 535 q 660 536 657 536 q 665 535 663 536 q 671 535 668 535 q 671 535 671 535 q 672 533 672 535 q 674 521 674 531 m 485 521 q 483 510 485 514 q 472 508 479 508 q 460 510 464 508 q 458 521 458 514 q 460 533 458 529 l 460 535 q 465 535 463 535 q 471 536 468 536 q 477 535 474 536 q 483 535 481 535 l 483 533 q 485 521 485 531 z "},"\n":{"ha":1001,"x_min":44,"x_max":957,"o":"m 957 428 q 912 592 951 513 q 810 734 872 672 q 667 833 747 796 q 503 869 588 869 q 337 833 417 869 q 194 736 257 797 q 90 596 131 675 q 44 431 50 517 q 90 266 50 344 q 194 127 131 188 q 337 29 257 67 q 501 -12 417 -8 q 666 28 586 -8 q 809 126 746 65 q 913 264 872 186 q 957 428 953 342 m 897 428 q 857 269 897 344 q 751 142 817 194 q 735 176 747 163 q 732 178 735 178 q 660 141 701 150 q 579 132 619 132 q 497 142 539 132 q 421 176 454 151 q 418 176 418 176 q 400 132 403 158 q 400 131 400 132 q 401 131 400 131 q 484 85 439 103 q 576 67 529 68 q 633 74 603 67 q 501 49 571 49 q 355 81 426 49 q 228 165 283 113 q 138 286 172 217 q 104 431 104 356 q 138 574 104 506 q 228 695 172 643 q 356 779 285 747 q 503 813 428 811 q 506 814 506 813 q 651 777 581 810 q 776 692 721 744 q 864 571 831 639 q 897 428 897 503 m 825 561 q 824 584 825 572 q 819 607 822 596 l 818 608 q 775 613 794 613 q 733 608 754 613 l 732 606 q 728 583 729 594 q 726 560 726 571 q 731 521 726 539 q 731 519 731 519 q 732 518 732 518 q 778 514 754 514 q 818 518 799 514 q 819 519 818 518 q 819 521 819 519 q 825 561 825 538 m 547 561 q 546 584 547 572 q 542 607 544 596 l 540 608 q 497 613 517 613 q 456 608 476 613 l 454 606 q 450 583 451 594 q 449 560 449 571 q 453 521 449 539 q 453 519 453 519 q 454 518 454 518 q 500 514 476 514 q 540 518 521 514 q 541 519 540 518 q 542 521 542 519 q 547 561 547 538 m 694 651 q 693 656 694 654 q 657 667 675 663 q 619 675 639 672 l 617 674 q 582 588 600 629 q 546 503 564 546 q 492 372 518 436 q 442 236 465 307 q 442 232 442 236 q 515 211 476 218 q 519 214 517 211 q 551 292 535 254 q 585 369 568 331 q 642 508 614 439 q 694 651 671 576 m 776 544 q 774 528 776 539 q 774 526 774 528 q 772 526 774 526 q 757 525 768 525 q 747 526 751 525 q 738 526 743 526 l 738 528 q 735 535 736 532 q 735 543 735 539 q 738 563 735 551 l 739 564 q 756 565 744 565 q 772 564 767 565 l 774 563 q 776 544 776 551 m 499 544 q 496 528 499 539 q 496 526 496 528 q 494 526 496 526 q 479 525 490 525 q 469 526 474 525 q 460 526 465 526 l 460 528 q 458 535 458 532 q 457 543 457 539 q 460 563 457 551 l 461 564 q 469 565 465 564 q 478 565 474 565 q 494 564 489 565 l 496 563 q 499 544 499 551 z "},"\u000b":{"ha":1001,"x_min":44,"x_max":957,"o":"m 957 428 q 912 592 951 513 q 810 734 872 672 q 667 833 747 796 q 503 869 588 869 q 337 833 417 869 q 194 736 257 797 q 90 596 131 675 q 44 431 50 517 q 90 266 50 344 q 194 127 131 188 q 337 29 257 67 q 501 -12 417 -8 q 666 28 586 -8 q 809 126 746 65 q 913 264 872 186 q 957 428 953 342 m 794 565 q 792 551 794 563 q 778 549 783 549 q 761 551 772 549 q 760 565 760 556 q 761 582 760 576 l 763 582 q 776 583 767 583 q 792 582 786 583 q 794 565 794 571 m 897 428 q 863 284 897 353 q 774 163 829 215 q 647 80 718 111 q 501 49 576 49 q 355 81 426 49 q 228 165 283 113 q 138 286 172 217 q 104 431 104 356 q 138 574 104 506 q 228 695 172 643 q 356 779 285 747 q 503 813 428 811 q 506 814 506 813 q 604 795 556 811 q 696 753 653 779 q 776 692 739 728 q 840 614 813 656 q 797 619 818 617 q 753 621 775 621 q 689 617 719 621 q 688 613 685 617 l 713 585 l 746 544 l 749 544 q 813 542 781 544 q 878 538 846 540 q 897 428 897 483 m 583 613 q 582 617 585 617 q 518 621 550 621 q 378 604 446 621 l 375 603 q 369 569 372 586 q 364 538 367 553 q 367 535 364 535 q 445 542 407 540 q 522 544 483 544 l 525 544 l 558 585 l 583 613 m 683 538 q 681 558 682 549 q 676 578 679 568 l 672 599 q 669 600 672 600 l 657 604 q 626 611 642 610 q 625 610 625 611 q 571 549 597 579 q 518 489 544 519 q 435 394 476 442 q 354 301 394 347 l 354 299 q 359 269 357 283 q 364 242 361 256 q 367 239 364 239 l 404 231 q 414 228 408 231 q 414 228 414 228 q 415 229 415 228 q 472 295 443 263 q 531 360 501 328 q 608 448 569 404 q 683 538 647 492 m 568 185 q 565 188 568 188 q 481 177 524 179 q 397 175 439 175 l 396 174 q 376 153 385 164 q 357 131 367 142 q 347 118 351 124 q 338 107 343 113 q 339 103 335 103 q 372 101 356 101 q 407 100 389 100 q 481 103 444 100 q 553 118 517 107 q 556 121 556 118 q 568 185 564 150 m 419 560 q 418 546 419 550 q 418 544 418 546 q 417 544 418 544 q 410 544 414 544 q 403 543 407 543 q 396 544 400 543 q 388 544 392 544 l 386 546 q 385 552 386 549 q 385 560 385 556 q 388 575 385 567 l 388 576 q 395 577 392 576 q 403 578 399 578 q 417 576 413 578 l 418 576 q 419 560 419 571 z "},"\f":{"ha":479,"x_min":43,"x_max":436,"o":"m 436 971 q 432 978 436 978 q 365 984 399 982 q 300 988 332 986 q 294 985 297 988 q 274 948 285 965 q 253 913 264 931 q 244 899 247 906 q 236 886 240 892 q 228 900 233 893 q 219 915 224 907 q 201 947 211 931 q 182 986 192 963 l 176 989 q 124 987 150 989 q 74 982 99 985 q 60 981 67 981 q 47 979 54 981 q 43 974 43 979 q 70 890 46 928 q 124 817 94 853 q 133 804 129 810 q 142 793 138 799 q 146 790 142 790 q 190 788 169 788 q 235 788 211 788 q 279 788 257 788 q 325 789 301 788 q 333 799 332 796 q 397 878 367 838 q 436 971 428 919 z "},"\r":{"ha":326,"x_min":58,"x_max":269,"o":"m 269 365 q 266 530 269 449 q 256 692 263 611 q 212 722 236 711 q 161 732 188 732 q 114 724 138 732 q 72 696 90 715 l 71 692 q 58 367 58 531 q 61 209 58 288 q 68 51 64 131 q 114 22 88 32 q 167 11 140 11 q 256 49 218 11 q 266 207 263 128 q 269 365 269 286 z "},"\u0019":{"ha":507,"x_min":38,"x_max":471,"o":"m 468 901 q 465 908 471 906 q 431 923 450 917 q 393 936 413 929 l 386 932 q 308 737 349 833 q 228 543 268 640 q 132 309 179 426 q 40 72 85 192 q 43 65 38 68 q 79 51 61 58 q 119 36 97 43 q 126 40 124 35 q 196 216 160 129 q 269 392 232 303 q 373 645 322 518 q 468 901 424 772 z "},"\u001a":{"ha":1001,"x_min":44,"x_max":957,"o":"m 957 428 q 912 592 951 513 q 810 733 872 672 q 667 832 747 794 q 503 869 588 869 q 337 833 417 869 q 194 736 257 797 q 90 596 131 675 q 44 431 50 517 q 90 266 50 344 q 194 127 131 188 q 337 29 257 67 q 501 -12 417 -8 q 666 28 586 -8 q 809 126 746 65 q 913 264 872 186 q 957 428 953 342 m 897 428 q 863 284 897 353 q 774 163 829 215 q 647 80 718 111 q 501 49 576 49 q 355 81 426 49 q 228 165 283 113 q 138 286 172 217 q 104 431 104 356 q 138 574 104 506 q 228 695 172 643 q 356 779 285 747 q 503 813 428 811 q 506 814 506 813 q 651 777 581 810 q 776 692 721 744 q 864 571 831 639 q 897 428 897 503 m 732 340 q 711 406 732 376 q 660 454 690 435 q 701 499 688 469 q 715 558 715 528 l 715 567 q 699 635 715 604 q 656 690 682 667 q 595 728 629 714 q 526 747 561 743 q 522 743 522 747 q 524 696 524 719 q 524 649 524 672 q 526 644 524 644 q 574 624 554 642 q 594 579 594 607 l 594 575 q 595 570 594 572 q 596 565 596 568 q 568 517 596 533 q 511 500 540 500 l 496 500 q 447 519 468 500 q 425 565 425 538 l 425 579 q 438 622 425 603 q 475 644 451 642 q 479 647 479 644 q 481 672 481 660 q 481 696 481 685 l 481 742 q 478 746 481 746 q 415 728 444 743 q 362 690 385 714 q 324 636 339 667 q 307 572 310 606 l 306 572 l 306 556 q 321 498 306 525 q 360 456 336 471 q 308 406 331 436 q 285 340 285 376 q 288 324 285 335 q 304 251 289 286 q 345 187 319 215 q 405 141 371 158 q 478 122 439 124 q 481 125 481 122 l 481 174 l 481 224 q 476 226 481 226 q 425 251 444 228 q 406 306 406 275 l 406 311 l 406 318 q 435 377 406 354 q 500 400 465 400 l 507 400 q 512 401 510 400 q 517 401 514 401 q 583 379 553 401 q 613 318 613 357 l 613 310 q 586 253 611 276 q 529 226 561 229 q 525 222 525 226 q 524 197 525 210 q 524 174 524 185 l 524 124 q 526 119 524 119 q 601 141 565 124 q 665 185 638 158 q 711 248 693 213 q 732 324 729 283 l 732 340 z "},"\u001b":{"ha":1001,"x_min":44,"x_max":957,"o":"m 957 428 q 912 592 951 513 q 810 733 872 672 q 667 832 747 794 q 503 869 588 869 q 337 833 417 869 q 194 736 257 797 q 90 596 131 675 q 44 431 50 517 q 90 266 50 344 q 194 127 131 188 q 337 29 257 67 q 501 -12 417 -8 q 666 28 586 -8 q 809 126 746 65 q 913 264 872 186 q 957 428 953 342 m 897 428 q 863 284 897 353 q 774 163 829 215 q 647 80 718 111 q 501 49 576 49 q 355 81 426 49 q 228 165 283 113 q 138 286 172 217 q 104 431 104 356 q 138 574 104 506 q 228 695 172 643 q 356 779 285 747 q 503 813 428 811 q 506 814 506 813 q 651 777 581 810 q 776 692 721 744 q 864 571 831 639 q 897 428 897 503 m 738 424 q 737 433 738 428 q 736 442 736 438 l 736 447 q 724 540 736 493 q 687 628 711 588 q 626 699 663 668 q 540 740 589 729 l 539 742 q 534 743 536 744 q 533 739 532 742 l 533 690 q 534 666 533 678 q 535 642 535 654 q 539 638 535 638 q 589 601 575 632 q 603 539 603 571 l 603 524 q 574 454 603 483 q 506 425 544 425 l 494 425 q 432 454 457 425 q 407 519 407 483 l 407 525 q 408 555 407 540 q 414 585 408 569 q 438 619 421 608 q 471 639 456 631 l 472 642 l 475 740 q 471 744 475 744 q 394 719 428 742 q 337 664 360 697 q 301 590 314 631 q 288 510 289 549 l 288 511 l 288 492 q 303 422 288 454 q 344 365 318 389 q 403 326 369 340 q 474 313 438 313 l 486 313 q 555 326 522 313 q 613 368 588 340 l 613 364 q 610 321 613 343 q 599 278 607 299 q 576 244 590 258 q 538 226 561 231 q 535 224 535 226 q 534 199 535 211 q 533 175 533 188 q 532 150 532 163 q 531 126 532 139 q 536 122 531 122 q 626 160 588 131 q 689 233 664 190 q 726 325 714 275 q 738 424 738 375 m 475 125 q 474 149 475 138 q 474 172 474 161 l 474 221 q 469 225 474 225 l 467 225 q 432 243 444 225 q 419 283 419 261 l 419 288 q 417 292 419 292 q 360 292 389 292 q 304 296 332 293 q 300 292 297 296 q 323 230 308 260 q 358 176 338 200 q 408 137 379 151 q 471 121 436 122 q 475 125 475 121 z "}," ":{"ha":417,"x_min":0,"x_max":0,"o":""},"!":{"ha":319,"x_min":56,"x_max":265,"o":"m 265 614 l 265 626 q 261 765 265 696 q 253 904 257 835 q 211 944 236 931 q 158 957 186 957 q 68 910 104 957 l 67 907 q 60 769 64 838 q 56 632 56 701 l 56 606 q 62 479 56 542 q 76 354 68 417 q 85 289 81 315 q 89 283 85 283 q 158 274 119 274 q 225 281 190 274 q 229 285 229 281 q 235 326 232 304 q 242 368 239 347 q 258 490 250 429 q 265 614 265 550 m 254 231 q 247 236 254 240 q 163 214 208 214 q 64 242 107 214 l 56 238 l 60 156 q 62 113 61 135 q 64 69 63 90 q 108 30 81 44 q 164 15 135 15 q 208 25 188 15 q 246 57 229 35 q 250 144 249 100 q 254 231 251 188 z "},"\"":{"ha":585,"x_min":50,"x_max":535,"o":"m 535 779 q 529 832 535 810 q 527 842 528 838 q 525 851 526 846 q 517 888 521 869 q 506 926 513 907 q 504 928 506 926 q 501 929 503 929 q 413 944 457 939 q 322 953 368 950 q 317 947 317 953 q 321 850 319 899 q 322 753 322 801 q 328 747 322 747 l 381 747 q 403 747 392 747 q 426 746 415 746 q 392 664 424 700 q 319 608 360 628 l 317 604 l 317 569 q 316 552 317 560 q 315 535 315 544 q 322 529 315 526 q 406 563 367 539 q 473 619 444 586 q 518 694 501 653 q 535 779 535 735 m 265 947 q 260 953 265 953 q 172 947 215 951 q 83 933 128 943 q 79 929 79 933 q 58 842 67 886 q 50 751 50 797 q 54 746 50 746 l 153 746 q 124 671 150 706 q 58 625 99 636 q 54 619 54 625 l 54 617 q 61 585 57 601 q 71 554 65 569 q 76 550 72 550 q 154 572 119 553 q 213 622 189 592 q 251 690 238 653 q 264 768 264 728 q 264 782 264 776 q 263 796 264 789 q 264 833 264 815 q 264 872 264 853 q 265 910 264 892 q 265 947 265 929 z "},"#":{"ha":749,"x_min":43,"x_max":706,"o":"m 706 629 q 705 646 706 638 q 703 663 704 654 q 701 685 701 674 q 700 710 700 697 q 696 715 700 715 q 670 719 683 718 q 643 722 657 719 q 620 726 632 725 q 596 728 608 726 q 605 845 603 786 q 610 964 607 904 q 607 969 610 967 q 597 972 601 972 q 561 981 578 976 q 525 988 544 985 q 518 982 518 988 q 509 858 515 919 q 494 735 503 797 q 435 737 464 736 q 376 738 406 738 l 335 738 q 342 778 338 757 q 349 818 346 799 q 363 906 356 863 q 376 994 369 950 q 371 1001 376 1001 q 285 997 326 1001 q 279 993 279 997 q 276 975 276 983 q 272 957 275 967 q 251 846 261 901 q 231 735 240 790 q 159 728 194 732 q 86 721 124 725 q 81 715 81 721 q 80 694 81 704 q 78 675 79 685 q 76 654 76 664 q 75 633 75 644 q 81 628 75 628 q 147 631 114 631 q 215 633 181 632 q 197 509 204 571 q 181 385 189 447 q 115 390 147 388 q 49 394 82 392 q 43 389 43 394 q 44 368 44 378 q 46 349 44 360 q 47 328 47 338 q 49 308 47 319 q 53 304 49 304 q 111 295 81 299 q 169 289 142 292 q 160 169 163 228 q 154 50 157 111 q 158 44 154 44 q 164 43 161 43 q 171 42 168 43 q 204 33 188 38 q 240 26 221 29 q 246 32 246 26 q 258 156 253 94 q 271 282 264 218 q 319 280 294 281 q 368 279 343 279 q 399 280 383 279 q 432 281 415 281 l 413 156 q 402 88 407 122 q 390 22 397 54 q 396 15 390 15 q 434 17 415 15 q 472 21 453 18 l 479 21 q 485 25 485 21 q 490 51 488 39 q 496 76 493 64 q 517 181 507 129 q 535 285 526 232 q 543 285 539 285 q 551 286 547 286 q 607 291 579 289 q 661 297 635 293 q 665 303 665 297 q 669 343 668 322 q 671 385 671 364 q 664 390 671 390 q 625 386 644 386 q 585 385 606 386 q 567 384 575 385 q 551 382 558 383 q 569 507 561 444 q 585 631 578 569 q 603 631 594 631 q 621 629 611 631 q 660 627 640 628 q 700 624 681 626 q 706 629 706 624 m 482 636 l 471 549 q 460 463 465 506 q 447 379 454 419 q 406 378 426 378 q 367 379 386 379 q 325 378 346 379 q 285 379 304 378 q 303 508 294 444 q 321 638 311 572 l 421 638 q 451 637 436 638 q 482 636 467 636 z "},"$":{"ha":831,"x_min":46,"x_max":783,"o":"m 782 658 q 758 753 778 708 q 708 835 739 799 q 636 900 676 872 q 549 942 596 928 l 542 936 l 546 853 q 547 811 547 832 q 549 771 547 792 q 551 767 549 767 q 590 726 575 751 q 604 674 604 701 l 604 661 q 610 656 604 656 q 692 656 651 656 q 776 653 733 656 q 782 658 782 653 m 783 325 q 756 422 783 381 q 685 492 728 463 q 593 540 643 521 q 499 574 543 560 q 496 821 497 699 q 490 1068 494 943 q 485 1074 490 1074 q 433 1076 460 1076 q 383 1076 408 1076 q 378 1071 378 1076 q 376 840 376 954 q 375 610 375 725 q 314 641 343 618 q 285 699 285 664 l 285 703 q 290 748 285 724 q 321 778 296 772 q 324 781 324 778 q 324 786 325 783 q 325 824 325 806 q 326 863 325 843 q 328 903 328 882 q 328 943 328 924 q 322 949 328 949 q 231 917 272 943 q 161 853 190 892 q 115 767 132 814 q 94 674 97 721 l 94 675 q 93 661 93 668 q 93 650 93 656 q 119 552 93 594 q 187 479 146 510 q 278 429 228 449 q 375 399 328 410 q 376 271 376 335 q 376 144 376 208 q 376 14 376 79 q 378 -117 376 -51 q 383 -122 378 -122 l 483 -122 q 489 -117 489 -122 q 497 122 494 4 q 499 361 499 240 q 557 330 529 350 q 588 275 585 310 q 582 226 586 251 q 551 188 578 200 q 549 182 549 188 q 547 147 547 165 q 546 114 547 131 q 542 13 546 64 q 549 7 542 4 q 640 47 597 19 q 713 112 682 74 q 763 197 744 150 q 781 294 781 243 q 783 310 782 303 q 783 325 783 318 m 326 8 q 325 51 325 31 q 325 93 325 72 q 324 136 325 115 q 322 178 324 157 q 318 183 322 183 q 263 221 286 194 q 238 283 240 247 l 240 303 l 240 307 q 237 313 240 311 q 231 311 233 314 q 140 315 185 313 q 51 322 96 318 q 46 315 46 322 q 75 209 53 260 q 133 117 97 158 q 215 45 168 75 q 319 3 263 15 q 326 8 326 0 z "},"%":{"ha":1210,"x_min":42,"x_max":1168,"o":"m 1168 368 q 1156 451 1168 410 q 1119 527 1143 493 q 1060 584 1096 561 q 978 611 1025 607 l 964 613 q 958 607 958 613 q 963 492 963 549 q 967 486 963 486 q 999 467 986 481 q 1018 438 1011 454 q 1027 401 1025 421 q 1029 361 1029 381 q 1028 337 1029 349 q 1028 314 1028 325 q 1022 263 1026 289 q 1006 214 1017 238 q 980 171 996 190 q 939 140 964 151 q 936 136 936 140 q 928 80 932 108 q 917 25 924 51 q 918 19 915 22 q 924 18 921 17 q 1016 63 974 32 q 1090 134 1058 93 q 1140 224 1121 175 q 1164 324 1160 272 l 1164 322 q 1168 368 1168 343 m 938 489 q 938 547 938 518 q 935 607 938 576 q 929 613 935 613 q 828 581 869 611 q 763 506 788 551 q 726 407 738 461 q 715 303 715 353 l 715 299 q 714 283 714 292 q 714 268 714 275 q 723 181 714 225 q 753 99 732 136 q 809 38 775 63 q 893 14 843 14 q 899 18 899 14 q 904 49 901 33 q 910 79 907 64 q 913 103 911 90 q 917 126 914 115 q 914 133 917 132 q 871 181 879 149 q 863 250 863 214 l 863 300 q 865 352 863 325 q 874 404 867 379 q 895 450 881 429 q 935 483 910 471 l 938 489 m 842 915 q 836 922 844 922 l 783 926 q 756 928 769 928 q 729 929 743 929 l 724 925 q 651 744 689 833 q 574 564 613 656 q 463 303 517 433 q 367 31 410 172 q 372 24 364 24 q 399 22 386 24 q 426 19 413 21 q 453 17 440 18 q 479 15 465 17 q 485 19 482 15 q 556 200 518 111 q 633 379 594 289 q 744 642 690 510 q 842 915 797 774 m 496 701 q 486 781 496 740 q 456 856 476 822 q 404 910 436 889 q 328 932 372 932 l 314 932 q 308 928 308 932 q 304 900 306 914 q 301 872 303 886 q 299 847 300 860 q 294 819 297 833 q 299 813 294 814 q 342 769 332 800 q 351 704 351 738 q 351 687 351 696 q 350 669 350 678 q 349 659 350 664 q 349 649 349 654 q 347 632 347 640 q 344 614 346 624 q 338 567 342 590 q 328 524 335 544 q 308 487 321 503 q 272 463 294 471 q 269 453 265 457 q 270 396 269 425 q 272 339 271 367 q 278 333 272 333 q 379 368 338 338 q 447 444 421 399 q 483 542 472 489 q 494 647 494 596 l 494 671 q 496 685 496 678 q 496 701 496 693 m 292 921 q 285 928 292 931 q 190 888 232 918 q 119 815 149 857 q 72 722 90 772 q 47 624 54 672 q 42 569 42 600 q 56 486 42 526 q 98 414 71 446 q 162 360 125 382 q 244 335 199 339 q 250 340 250 335 q 249 375 249 358 q 249 408 249 392 q 248 432 249 419 q 247 456 247 444 q 243 461 247 461 q 221 468 232 463 l 222 468 q 188 524 196 492 q 179 590 179 556 q 180 617 179 604 q 182 643 181 631 q 190 692 185 667 q 204 741 194 718 q 230 783 214 764 q 271 810 246 801 l 274 813 q 278 840 276 826 q 283 867 281 854 l 292 921 z "},"&":{"ha":878,"x_min":46,"x_max":831,"o":"m 831 203 q 824 208 831 211 q 805 204 814 206 q 788 203 796 203 q 718 225 749 203 q 724 234 721 229 q 731 243 728 239 q 790 354 761 297 q 822 476 819 411 q 817 482 822 482 l 646 482 q 640 476 640 482 q 628 406 636 440 q 604 339 621 372 l 497 483 q 558 520 528 499 q 611 569 588 542 q 649 628 635 596 q 664 699 664 661 q 663 708 664 703 q 663 717 663 713 q 648 793 663 756 q 608 860 633 831 q 549 908 583 889 q 475 933 515 928 q 468 928 468 933 l 468 783 q 472 778 468 778 q 485 767 482 775 q 488 750 488 758 l 488 721 q 460 662 488 685 q 400 628 432 639 q 394 635 396 632 q 373 674 382 654 q 364 718 364 694 l 364 738 q 367 763 364 751 q 386 776 371 774 q 390 782 390 776 q 392 819 392 801 q 393 857 392 838 q 394 893 394 875 q 394 929 394 911 q 389 935 394 935 q 311 910 347 931 q 248 859 275 890 q 205 789 221 828 q 188 710 189 750 q 187 701 188 706 q 186 693 186 697 q 199 619 186 654 q 228 551 213 585 q 163 510 196 533 q 104 458 131 488 q 62 394 78 429 q 46 319 46 360 q 47 297 46 304 l 47 299 q 75 196 51 244 q 135 108 99 147 q 219 42 172 69 q 319 6 267 15 q 326 11 326 6 q 322 81 326 47 q 319 123 321 101 q 317 167 317 144 q 313 172 317 172 q 256 214 276 182 q 235 282 235 246 l 235 292 q 260 360 235 329 q 319 408 285 392 q 376 333 347 371 q 435 260 406 296 q 458 231 447 244 q 481 201 469 217 q 472 195 476 199 q 460 188 467 192 q 433 174 447 181 q 400 165 418 167 q 394 160 394 165 q 395 121 394 140 q 396 82 396 101 l 396 6 q 401 0 396 0 q 502 28 454 3 q 590 86 550 54 q 647 51 618 65 q 708 36 676 36 q 747 42 731 36 q 799 57 771 46 q 801 60 801 57 q 804 71 803 65 q 807 82 806 76 q 821 142 814 113 q 831 203 828 171 z "},"'":{"ha":308,"x_min":50,"x_max":258,"o":"m 258 875 q 257 894 258 890 q 254 906 256 899 q 252 921 253 913 q 250 936 251 929 l 244 939 l 235 939 q 154 917 189 939 q 97 859 119 894 q 62 780 74 824 q 50 693 50 736 q 54 646 50 668 l 54 647 q 56 629 56 638 q 57 611 56 621 q 61 565 58 586 q 64 561 61 561 q 164 536 110 536 q 203 540 183 536 q 240 551 222 543 q 242 556 242 551 q 251 645 249 600 q 254 735 253 690 q 249 740 254 740 q 203 739 225 739 q 157 739 181 739 q 165 781 158 760 q 185 822 172 803 q 214 853 197 840 q 253 869 231 867 q 258 875 258 869 z "},"(":{"ha":451,"x_min":42,"x_max":414,"o":"m 411 -156 q 341 -46 369 -106 q 296 77 313 14 q 272 207 279 140 q 264 339 264 274 q 270 483 264 410 q 293 626 276 556 q 338 764 310 697 q 407 889 365 831 l 407 896 q 335 935 372 919 q 258 953 299 950 q 254 950 257 953 q 171 818 210 886 q 103 677 132 750 q 58 527 75 604 q 42 371 42 450 q 99 61 42 211 q 246 -219 157 -89 q 248 -220 247 -219 q 250 -221 249 -221 q 335 -206 294 -219 q 410 -164 375 -192 q 411 -156 414 -161 z "},")":{"ha":465,"x_min":44,"x_max":418,"o":"m 417 371 q 361 676 418 529 q 217 949 304 822 l 217 951 q 211 956 217 956 q 51 897 122 953 q 50 889 44 894 q 125 778 96 839 q 171 650 154 717 q 194 515 188 583 q 200 379 200 446 q 192 241 200 311 q 167 103 185 171 q 122 -30 150 35 q 53 -150 94 -94 q 53 -157 50 -156 q 123 -200 85 -185 q 201 -218 161 -215 q 206 -215 203 -218 q 358 62 301 -89 q 417 371 415 213 z "},"*":{"ha":557,"x_min":35,"x_max":518,"o":"m 518 747 q 513 760 515 754 q 507 774 510 767 q 494 803 500 789 q 474 843 489 817 q 468 846 471 846 q 404 828 436 838 q 340 808 372 819 q 337 874 339 842 q 335 939 335 907 l 335 946 q 329 951 335 951 q 299 953 314 953 q 271 953 285 953 q 249 953 260 953 q 226 951 238 953 q 221 946 221 951 q 217 876 218 910 q 215 806 217 842 q 149 827 182 817 q 85 849 117 838 l 78 846 q 58 801 67 825 q 39 753 49 778 q 38 744 38 751 q 40 736 35 739 q 72 725 57 731 q 103 714 88 719 q 138 701 121 707 q 171 690 154 696 l 153 664 q 124 626 139 644 q 97 588 110 607 q 97 582 96 583 q 120 565 108 574 q 143 547 132 557 q 165 530 154 538 q 188 513 176 522 q 196 514 193 507 q 234 569 214 542 q 275 624 254 596 q 316 568 296 596 q 354 511 336 540 q 363 510 357 504 q 389 532 379 525 q 407 546 399 539 q 436 567 422 557 q 454 582 450 578 q 454 588 456 583 q 423 633 439 611 q 392 678 407 656 q 382 690 388 682 q 413 702 397 697 q 444 714 428 707 l 514 739 q 518 747 518 740 z "},"+":{"ha":863,"x_min":31,"x_max":832,"o":"m 832 390 q 832 426 832 410 q 831 464 832 444 q 825 469 831 469 q 772 471 799 471 q 721 472 747 471 q 616 476 668 475 q 513 478 564 476 q 504 783 511 629 q 499 789 504 789 q 485 790 492 789 q 472 790 479 790 q 442 792 457 792 q 413 792 428 792 q 389 792 401 792 q 367 790 378 792 q 361 785 361 790 q 353 478 356 631 q 196 476 274 478 q 39 472 118 475 l 33 467 q 31 429 32 447 q 31 392 31 411 q 31 365 31 378 q 32 339 32 351 q 38 333 32 333 q 353 325 193 325 q 355 224 354 274 q 358 125 356 174 q 360 72 360 99 q 361 19 360 46 q 367 14 361 14 q 404 13 386 13 q 443 13 424 13 q 468 13 456 13 q 497 14 482 13 q 503 19 503 14 q 509 172 507 96 q 513 325 511 247 q 668 326 590 325 q 825 332 746 328 q 831 338 831 332 q 832 363 832 350 q 832 390 832 376 z "},",":{"ha":308,"x_min":49,"x_max":257,"o":"m 257 60 q 254 121 257 92 q 247 179 251 150 q 244 183 247 183 q 149 207 201 207 q 71 192 108 207 q 67 188 67 192 q 58 98 60 143 q 54 6 56 53 q 58 0 54 0 l 154 0 q 122 -80 146 -42 q 53 -126 97 -118 q 49 -129 50 -126 q 50 -135 49 -132 l 54 -164 q 56 -178 56 -171 q 57 -193 56 -186 q 61 -197 57 -197 q 68 -198 64 -197 q 75 -199 72 -199 q 128 -188 103 -199 q 175 -160 154 -178 q 213 -120 196 -143 q 239 -74 229 -97 q 253 -4 250 -37 q 257 60 257 29 z "},"-":{"ha":514,"x_min":56,"x_max":458,"o":"m 458 414 q 433 485 458 453 q 432 485 433 485 q 429 486 431 486 q 257 494 343 494 q 86 486 171 494 l 82 485 q 56 414 56 451 q 79 346 56 375 q 81 345 79 346 q 83 344 82 344 q 256 336 171 336 q 432 344 344 336 q 452 377 446 360 q 458 414 458 394 z "},".":{"ha":304,"x_min":53,"x_max":251,"o":"m 251 97 q 239 189 251 147 q 238 192 239 190 q 236 193 236 193 q 150 201 192 201 q 68 192 106 201 l 64 188 q 53 94 53 140 q 61 17 53 54 q 65 13 61 13 q 110 6 88 8 q 156 3 132 3 q 236 13 201 3 q 240 17 240 13 q 249 56 247 36 q 251 97 251 76 z "},"/":{"ha":586,"x_min":39,"x_max":549,"o":"m 546 904 q 543 911 549 908 q 471 935 507 926 q 397 951 435 944 l 390 947 q 321 776 357 860 q 249 607 285 693 q 139 344 192 475 q 40 72 86 214 q 42 65 39 68 q 114 40 78 50 q 189 24 150 29 q 196 28 193 24 q 260 184 226 107 q 326 340 293 261 q 442 617 386 479 q 546 904 499 756 z "},":":{"ha":297,"x_min":47,"x_max":251,"o":"m 249 463 q 247 497 249 479 q 244 531 246 514 q 242 579 243 554 q 238 629 240 604 q 236 633 238 633 q 147 667 199 667 q 60 635 96 667 l 58 631 q 53 547 56 589 q 50 463 51 506 q 56 457 50 454 q 150 469 103 469 q 242 457 193 469 q 249 463 251 454 m 247 217 q 240 222 250 225 q 153 210 196 210 q 54 225 103 210 l 47 219 q 51 135 49 178 q 56 49 53 92 q 101 20 75 31 q 154 10 128 10 q 197 17 175 10 q 236 42 218 25 q 243 130 240 86 q 247 217 246 174 z "},";":{"ha":300,"x_min":47,"x_max":253,"o":"m 251 449 l 247 532 q 245 574 246 553 q 242 615 244 594 q 198 653 222 640 q 146 665 174 665 q 100 656 122 665 q 61 628 78 647 l 60 624 q 56 539 57 582 q 53 454 54 496 q 60 449 53 444 q 146 469 101 469 q 243 443 194 469 q 249 443 246 440 q 251 449 251 446 m 253 179 l 253 204 q 247 210 253 210 q 215 208 232 208 q 182 208 199 208 q 136 208 158 208 q 90 210 114 208 q 72 210 81 210 q 53 211 63 211 q 47 206 47 211 q 47 115 47 161 q 50 25 47 69 q 54 19 50 19 q 99 6 76 10 q 147 1 122 3 q 142 -33 147 -15 q 126 -67 136 -51 q 104 -93 117 -83 q 75 -103 92 -103 q 57 -100 68 -103 l 57 -99 q 51 -97 54 -96 q 47 -103 47 -99 q 47 -118 47 -110 q 49 -135 47 -128 q 50 -147 50 -142 q 50 -161 50 -154 q 53 -165 50 -162 q 100 -183 72 -183 q 149 -168 126 -183 q 186 -132 171 -153 q 233 -41 218 -83 q 249 46 249 1 l 249 51 q 249 84 249 67 q 251 118 250 101 q 253 149 253 133 q 253 179 253 164 z "},"<":{"ha":747,"x_min":36,"x_max":713,"o":"m 710 115 q 706 121 713 118 q 467 212 585 161 q 231 317 349 263 q 197 331 214 324 q 161 347 179 339 q 430 467 296 410 q 703 571 564 525 l 707 578 q 699 616 703 597 q 689 654 694 635 q 682 658 686 660 q 397 556 533 615 q 124 431 260 496 q 82 411 103 421 q 42 392 61 401 q 39 386 39 392 q 36 347 36 367 q 36 308 36 328 q 39 303 36 306 q 90 278 64 290 q 140 256 115 267 q 406 135 272 193 q 682 33 539 78 q 689 38 686 32 q 695 56 692 47 q 700 76 699 65 q 710 115 704 100 z "},"=":{"ha":986,"x_min":39,"x_max":950,"o":"m 947 449 q 927 508 940 479 q 896 565 914 538 q 892 568 896 568 q 483 589 688 589 q 290 585 386 589 q 96 571 193 581 l 92 568 q 42 450 57 513 q 47 443 39 443 q 260 447 154 446 q 474 449 365 449 q 708 447 592 449 q 942 442 824 444 q 947 449 950 442 m 947 342 q 942 349 947 349 q 727 344 833 346 q 514 343 621 343 q 279 345 396 343 q 44 350 163 347 l 39 343 q 58 283 46 314 q 89 225 71 253 q 93 222 89 222 q 300 207 197 213 q 507 201 403 201 q 698 206 603 201 q 889 219 793 211 q 893 222 893 219 q 926 280 913 250 q 947 342 940 310 z "},">":{"ha":733,"x_min":31,"x_max":703,"o":"m 703 307 l 703 342 q 703 364 703 353 q 701 386 703 375 q 699 392 701 392 q 635 421 667 407 q 572 450 604 435 q 320 565 446 510 q 57 661 194 621 q 50 657 51 661 q 42 624 46 642 q 36 592 39 607 q 35 586 35 589 q 33 582 35 585 q 38 575 32 578 q 307 467 172 525 q 576 347 442 410 q 307 226 442 283 q 35 124 172 168 l 31 117 q 34 101 33 110 q 38 85 35 93 q 42 63 40 74 q 47 42 44 53 q 54 39 50 36 q 348 142 207 79 q 631 269 489 204 l 700 301 q 703 307 703 304 z "},"?":{"ha":764,"x_min":40,"x_max":724,"o":"m 724 649 q 722 663 724 656 q 721 678 721 669 q 694 785 718 733 q 633 878 671 838 q 546 946 596 919 q 440 976 496 972 q 435 971 435 976 q 435 933 435 951 q 438 896 436 915 q 440 857 439 876 q 440 818 440 838 q 444 813 440 813 q 478 799 463 806 q 506 776 494 792 l 504 776 q 519 730 515 749 q 522 694 522 711 l 522 689 q 494 616 522 644 q 435 563 467 588 q 408 540 422 551 q 394 531 394 529 q 324 431 344 482 q 303 325 303 379 l 303 321 q 301 317 301 319 l 301 290 q 307 285 301 285 q 347 283 326 283 q 389 283 368 283 q 443 283 417 283 q 499 285 471 283 q 504 290 504 285 q 514 343 504 319 q 539 388 524 367 q 574 428 554 410 q 614 467 593 447 q 654 506 635 486 q 689 547 674 525 q 714 593 704 568 q 724 649 724 618 m 350 972 l 344 978 q 225 947 281 975 q 129 872 169 918 q 65 768 89 826 q 40 647 42 710 q 46 642 40 642 q 228 654 139 650 q 233 660 233 654 q 235 674 235 667 q 238 690 236 682 q 242 724 240 707 q 251 760 244 740 l 250 758 q 292 799 268 788 q 342 813 317 810 q 347 818 347 813 q 348 895 347 857 q 350 972 349 933 m 511 211 q 506 217 511 217 q 450 214 478 214 q 394 214 422 214 q 349 214 371 214 q 304 215 326 214 l 299 210 q 299 154 299 182 q 301 99 300 126 q 303 62 303 79 q 304 25 304 44 q 308 19 304 19 q 392 15 350 15 q 444 17 418 15 q 494 21 469 18 q 500 26 500 21 q 503 82 503 54 q 507 138 504 110 l 511 211 z "},"@":{"ha":1228,"x_min":132,"x_max":1121,"o":"m 888 371 q 888 385 888 378 q 886 400 888 393 q 887 407 886 403 q 888 414 888 411 q 869 507 888 463 q 819 585 850 551 q 744 640 788 619 q 654 660 701 660 l 633 660 l 632 660 l 629 660 q 557 649 593 660 q 490 619 521 639 q 434 572 458 600 q 397 507 410 543 q 395 497 396 501 q 393 488 394 493 q 392 481 392 483 q 388 465 392 478 q 392 458 383 458 q 464 463 428 461 q 536 465 500 464 q 542 469 542 465 q 568 518 542 500 q 625 536 594 536 l 631 536 q 640 538 633 538 q 694 519 669 538 q 718 471 718 500 l 718 465 q 719 410 718 438 q 719 356 719 383 q 718 264 719 310 q 714 174 717 218 l 714 150 q 718 96 714 125 q 721 92 718 92 q 733 64 718 75 q 788 56 749 53 l 792 56 q 921 99 861 63 q 1025 188 981 135 q 1095 308 1069 242 q 1121 442 1121 375 q 1068 604 1111 528 q 960 738 1025 681 q 813 829 894 796 q 649 863 732 863 q 460 822 551 863 q 299 710 369 781 q 183 550 228 640 q 132 363 138 460 q 183 172 138 264 q 300 10 228 81 q 464 -102 372 -60 q 654 -146 556 -144 q 656 -137 656 -151 q 656 -106 656 -125 q 656 -71 656 -87 q 658 -54 657 -54 q 500 -21 576 -54 q 365 69 424 13 q 272 199 307 125 q 236 356 236 274 q 269 511 236 436 q 358 644 301 586 q 488 738 414 703 q 644 774 563 774 l 651 774 q 788 747 721 774 q 908 675 854 721 q 994 567 961 629 q 1028 432 1026 504 q 1019 351 1028 393 q 990 273 1010 310 q 942 206 971 236 q 874 163 913 176 q 876 210 874 186 q 881 257 878 233 l 883 301 q 888 371 888 336 m 654 94 q 650 143 650 119 q 650 158 650 151 q 651 174 650 167 l 651 204 q 650 208 651 207 q 646 207 649 210 q 628 201 639 203 q 607 199 618 200 q 601 198 604 199 q 594 197 597 197 q 547 213 571 199 q 524 253 524 226 l 524 258 q 533 290 524 278 q 559 308 543 301 q 593 317 575 314 q 628 322 611 319 q 642 324 638 322 l 644 328 l 644 443 q 640 447 644 447 l 618 443 q 611 442 615 443 q 604 442 607 442 q 525 427 568 436 q 445 400 482 418 q 383 352 408 382 q 358 276 358 322 q 359 267 358 271 q 360 258 360 264 q 383 189 364 221 q 428 132 401 157 q 490 92 456 107 q 561 72 525 76 q 574 70 568 71 q 588 69 581 69 q 651 90 625 69 q 654 94 654 93 z "},"A":{"ha":897,"x_min":42,"x_max":856,"o":"m 856 46 q 819 239 843 144 q 763 426 794 333 q 696 610 732 519 q 624 790 660 700 l 567 931 q 561 933 567 933 q 497 938 529 936 q 433 939 465 939 q 335 935 382 939 l 329 932 l 275 800 q 201 618 238 710 q 134 434 165 526 q 78 247 103 342 q 42 53 54 151 q 46 46 42 47 q 256 7 144 19 q 261 11 261 7 q 319 256 285 135 q 390 500 354 378 q 405 550 397 525 q 421 601 413 575 q 435 650 428 625 q 449 701 442 675 q 474 590 458 643 q 508 485 489 538 q 528 427 518 457 q 544 369 538 397 q 532 371 538 371 q 522 371 528 371 q 507 371 515 371 q 492 369 500 371 q 467 368 479 368 q 442 368 454 368 q 436 364 436 368 q 426 330 431 347 q 415 294 421 313 q 400 247 408 271 q 383 197 392 222 q 389 190 381 190 q 425 189 408 189 q 463 189 443 189 q 511 189 486 189 q 561 190 536 189 q 579 191 569 190 q 599 192 589 192 q 622 101 610 147 q 640 10 633 56 q 646 6 640 6 q 749 19 699 10 q 851 40 800 28 q 856 46 856 40 z "},"B":{"ha":885,"x_min":50,"x_max":836,"o":"m 836 332 q 795 444 836 394 q 699 521 754 493 q 776 584 743 543 q 808 676 808 625 q 807 690 808 683 q 806 703 806 696 q 763 818 797 769 q 677 899 728 867 q 566 946 626 931 q 447 961 506 961 q 428 961 438 961 q 410 960 419 961 q 393 958 401 958 q 376 957 385 957 q 371 951 371 957 q 369 910 369 931 q 369 868 369 889 q 369 825 369 846 q 368 782 369 804 q 374 776 368 776 l 390 776 q 413 781 406 781 q 425 782 419 782 l 439 782 q 492 778 464 782 q 542 763 519 774 q 581 733 565 753 q 599 685 597 714 q 581 640 597 657 q 542 613 565 622 q 492 601 519 604 q 442 599 465 599 l 421 599 q 410 599 415 599 q 397 601 404 600 q 384 603 390 603 q 369 604 378 604 q 364 599 364 604 l 364 422 q 369 417 364 417 q 386 417 378 417 q 401 419 394 418 q 421 421 408 421 l 449 421 q 504 417 475 421 q 558 401 533 413 q 599 369 583 389 q 615 317 615 349 l 615 310 q 599 253 615 276 q 558 216 583 231 q 503 195 533 201 q 444 189 474 189 q 432 189 438 189 q 419 190 426 189 l 414 190 q 397 193 411 190 q 379 194 392 194 l 372 194 q 367 189 367 194 q 368 147 368 169 q 369 106 368 126 q 371 64 371 85 q 371 22 371 44 q 376 17 371 17 q 413 15 394 15 q 449 15 431 15 q 460 15 456 15 q 471 14 464 14 q 633 48 554 14 q 764 149 711 82 q 810 222 790 182 q 835 307 831 263 l 835 306 q 836 318 836 313 q 836 332 836 325 m 292 943 q 286 949 292 949 q 103 911 189 938 l 99 907 q 50 475 50 693 q 61 270 50 371 q 93 69 72 169 q 97 65 93 65 q 190 42 143 53 q 283 25 236 32 q 290 31 290 25 q 275 258 279 144 q 271 488 271 372 q 276 715 271 603 q 292 943 281 828 z "},"C":{"ha":972,"x_min":29,"x_max":944,"o":"m 924 658 q 872 776 907 721 q 789 874 838 832 q 681 941 740 915 q 554 969 621 967 l 549 964 q 550 924 550 943 q 551 883 550 904 q 553 842 553 863 q 554 800 553 821 q 560 796 554 796 q 613 782 589 794 q 656 749 638 769 q 688 704 675 729 q 707 653 700 679 q 713 649 707 649 q 815 651 764 651 q 918 651 867 651 q 924 658 926 651 m 942 338 q 936 344 944 344 l 872 344 q 796 344 835 344 q 721 346 758 344 q 715 340 715 346 q 700 281 713 310 q 667 228 688 251 q 620 191 647 206 q 560 175 593 176 q 556 169 556 175 q 554 128 554 149 q 553 85 554 107 q 551 43 551 64 q 549 0 550 22 q 554 -6 549 -6 q 688 29 624 0 q 803 103 751 58 q 890 208 854 149 q 942 338 926 268 m 476 0 l 476 171 q 471 176 476 176 q 378 205 417 178 q 314 274 339 232 q 277 366 289 315 q 265 464 265 417 l 265 481 q 265 495 265 488 q 264 510 264 503 q 275 608 264 557 q 310 700 286 658 q 374 769 335 742 q 468 796 413 796 q 471 797 469 796 q 472 797 472 797 l 475 800 q 476 885 476 842 q 476 968 476 928 q 471 974 476 974 q 299 928 379 971 q 158 818 218 886 q 64 665 99 750 q 29 490 29 579 l 29 482 q 64 306 29 392 q 158 153 99 221 q 299 42 218 85 q 471 -6 379 -1 q 476 0 476 -6 z "},"D":{"ha":919,"x_min":47,"x_max":871,"o":"m 871 489 q 844 639 871 565 q 770 773 817 713 q 660 878 724 833 q 521 943 596 922 q 513 946 517 944 q 504 949 508 947 q 480 955 492 951 q 453 958 468 958 l 443 958 q 413 957 428 958 q 382 956 397 956 l 376 956 q 372 950 372 956 q 369 866 369 907 q 367 782 368 825 q 372 776 367 776 q 390 776 381 776 q 408 774 399 775 l 424 774 q 513 751 474 774 q 581 693 553 729 q 623 612 608 657 q 638 519 638 567 q 638 504 638 513 q 636 490 638 497 l 636 464 q 635 380 636 422 q 622 296 635 338 q 592 242 613 263 q 547 209 572 221 q 494 194 522 197 q 442 190 467 190 l 424 190 q 411 190 417 190 q 399 192 406 190 q 385 194 392 193 q 371 194 378 194 q 365 189 365 194 q 366 157 365 174 q 368 124 367 140 q 370 74 369 99 q 371 24 371 49 q 376 18 371 18 q 403 17 390 17 q 432 17 417 17 q 532 24 481 17 q 628 57 583 31 q 749 164 704 101 q 825 292 793 226 l 824 292 q 860 387 850 336 q 871 489 871 438 m 289 940 q 283 946 289 946 q 101 910 194 936 l 97 906 q 60 694 74 801 q 47 476 47 586 q 59 271 47 372 q 94 69 71 169 q 99 65 94 65 q 189 42 143 53 q 282 26 235 32 q 288 32 288 26 q 267 475 267 253 q 272 708 267 593 q 289 940 278 824 z "},"E":{"ha":763,"x_min":33,"x_max":731,"o":"m 721 760 l 713 808 q 705 858 708 833 q 696 907 701 883 q 692 911 696 911 q 535 947 614 936 q 372 958 456 958 l 357 958 q 351 953 351 958 q 351 911 351 932 q 350 871 350 890 q 350 828 350 850 q 349 786 350 807 q 354 781 349 781 l 378 781 q 545 774 461 781 q 714 753 629 767 q 721 760 721 753 m 704 426 q 704 508 704 468 q 701 592 704 550 q 696 597 701 597 q 547 603 621 600 q 397 606 472 606 l 353 606 q 347 600 347 606 q 347 511 347 556 q 349 422 347 467 q 354 417 349 417 q 526 417 442 417 q 699 421 611 418 q 704 426 704 421 m 731 217 q 724 222 731 225 q 557 198 640 204 q 390 192 474 192 l 356 192 q 350 186 350 192 q 351 146 351 167 q 351 104 351 125 l 351 21 q 357 15 351 15 l 383 15 q 544 24 464 15 q 700 60 624 32 q 704 64 704 60 q 706 76 706 71 q 710 89 707 82 q 722 151 715 119 q 731 217 728 183 m 267 29 q 250 501 250 263 q 267 944 250 721 q 261 950 267 950 q 169 935 214 946 q 79 911 124 925 l 75 907 q 43 696 53 803 q 33 481 33 589 q 42 274 33 376 q 72 69 51 171 q 76 65 72 65 q 166 40 119 51 q 261 24 213 29 q 267 29 267 24 z "},"F":{"ha":740,"x_min":24,"x_max":717,"o":"m 717 718 q 705 792 711 754 q 692 867 699 831 q 688 871 692 871 q 374 921 535 921 l 361 921 q 356 915 356 921 l 356 832 q 355 789 356 810 q 354 747 354 768 q 360 742 354 742 l 378 742 q 544 733 461 742 q 710 711 626 725 q 717 718 717 711 m 678 442 q 678 489 678 465 q 676 536 678 513 q 671 542 676 542 q 515 547 592 544 q 358 549 438 549 l 353 543 l 353 369 q 358 364 353 364 q 515 365 438 364 q 671 368 592 365 q 676 372 676 368 q 678 407 678 390 q 678 442 678 424 m 258 -10 q 242 457 242 221 q 258 908 242 681 q 251 914 258 914 q 160 898 206 907 q 69 874 114 889 l 65 869 q 33 658 43 764 q 24 443 24 551 q 33 236 24 339 q 63 32 42 133 q 67 28 63 28 q 158 2 111 13 q 251 -15 204 -8 q 258 -10 258 -15 z "},"G":{"ha":1006,"x_min":46,"x_max":960,"o":"m 949 650 q 903 749 932 703 q 835 834 874 796 q 749 903 796 872 q 653 953 703 933 q 647 956 650 954 q 640 958 643 957 l 642 958 q 608 971 625 965 q 572 979 592 976 l 567 974 q 567 945 567 958 q 568 918 568 932 q 570 860 569 889 q 571 804 571 832 q 576 799 571 799 l 581 799 q 638 785 611 799 q 684 751 664 772 q 717 702 704 729 q 736 647 731 675 q 742 643 736 643 l 943 643 q 949 650 951 643 m 960 504 l 960 535 q 954 540 960 540 q 775 544 864 543 q 596 547 686 546 l 590 542 l 590 365 q 596 360 590 360 q 631 360 614 360 q 664 361 647 361 q 712 360 688 361 q 760 361 736 360 q 736 295 751 328 q 698 237 721 263 q 645 194 675 211 q 578 176 615 178 q 572 171 572 176 q 569 87 571 128 q 565 3 568 46 q 571 -3 565 -3 q 629 10 601 -1 q 681 40 657 22 q 726 81 706 58 q 767 125 747 103 q 765 90 767 107 q 763 56 764 72 q 762 46 763 50 q 761 36 761 42 q 768 31 761 31 q 833 43 801 36 q 897 58 865 50 q 901 63 901 58 q 960 504 960 276 m 482 889 l 482 972 q 476 978 482 978 q 472 978 474 978 q 467 979 469 979 l 456 979 q 439 978 450 978 q 417 975 426 976 q 396 969 407 974 q 252 902 317 949 q 142 792 188 856 q 71 651 96 728 q 46 494 46 574 l 46 471 q 73 306 46 389 q 149 155 100 224 q 269 41 199 86 q 426 -10 339 -4 q 449 -10 438 -11 q 471 -7 460 -8 l 475 -7 q 481 -1 481 -7 l 481 171 q 476 176 481 176 q 381 208 428 183 q 308 278 333 233 l 310 278 q 283 385 286 336 q 278 482 279 435 q 276 501 275 492 q 276 519 276 510 q 288 616 276 567 q 322 706 299 665 q 383 774 346 747 q 474 800 421 800 l 475 800 q 481 804 481 800 q 482 847 482 826 q 482 889 482 868 z "},"H":{"ha":896,"x_min":53,"x_max":843,"o":"m 843 474 q 794 904 843 689 q 790 908 794 908 q 699 931 746 922 q 607 947 653 940 q 600 942 600 947 q 613 773 607 857 q 621 606 618 689 q 531 608 576 607 q 442 608 486 608 l 374 608 q 368 603 368 608 l 368 418 q 374 413 368 413 l 621 413 q 615 221 619 317 q 599 29 610 125 q 604 24 599 24 q 699 37 651 29 q 790 60 746 44 q 794 64 794 60 q 831 267 819 164 q 843 474 843 369 m 296 943 q 290 949 296 949 q 106 911 194 938 l 101 907 q 65 693 78 800 q 53 475 53 586 q 64 270 53 371 q 96 69 75 169 q 100 65 96 65 q 194 42 147 51 q 288 25 240 32 q 294 31 294 25 q 280 255 285 143 q 275 481 275 367 q 296 943 275 711 z "},"I":{"ha":326,"x_min":54,"x_max":271,"o":"m 271 476 q 267 692 271 585 q 257 906 264 799 q 161 957 218 957 q 110 944 135 957 q 68 908 86 932 l 67 906 q 54 489 54 697 q 67 69 54 278 q 113 30 85 43 q 168 17 140 17 q 257 63 221 17 q 267 269 264 167 q 271 476 271 372 z "},"J":{"ha":749,"x_min":53,"x_max":696,"o":"m 696 472 q 658 900 696 689 q 654 904 658 904 q 468 949 567 938 q 464 943 464 949 q 476 435 476 689 q 476 359 476 397 q 475 283 475 321 l 475 254 q 475 239 475 247 q 474 225 475 232 l 472 210 l 467 200 q 447 186 456 189 q 432 181 439 183 q 428 178 428 181 q 425 91 426 133 q 421 6 424 49 q 426 0 421 0 l 446 0 q 453 1 449 0 q 461 1 458 1 q 471 4 465 3 q 483 10 476 6 l 482 8 q 565 51 528 22 q 628 117 601 79 q 671 199 656 154 q 689 292 686 244 q 694 382 692 336 q 696 472 696 428 m 335 4 l 335 90 q 335 133 335 113 q 333 176 335 154 q 329 181 333 181 q 296 192 311 183 q 274 218 281 201 l 274 217 q 267 252 268 236 q 265 279 265 268 l 265 308 q 265 326 265 317 q 267 344 265 336 q 268 363 268 354 q 268 381 268 371 q 263 386 268 386 q 58 394 160 388 l 53 389 q 54 368 54 378 q 54 350 54 360 q 55 337 54 343 q 56 324 56 331 q 76 209 56 267 q 131 106 96 151 q 217 30 167 60 q 329 -1 267 0 q 335 4 335 -1 z "},"K":{"ha":868,"x_min":31,"x_max":842,"o":"m 839 68 q 725 239 785 156 q 603 404 665 322 q 556 467 579 436 q 508 529 532 497 q 549 577 529 553 q 590 626 568 601 q 709 765 650 696 q 824 906 768 833 q 821 914 829 911 q 701 938 761 928 q 579 953 642 947 q 575 950 578 953 q 508 856 543 901 q 439 764 474 810 q 386 705 415 735 q 335 643 357 675 l 333 640 q 328 554 332 597 q 332 471 324 511 l 346 400 q 388 339 365 369 q 433 279 411 308 q 522 153 478 217 q 604 24 565 90 q 608 21 607 21 q 724 35 667 26 q 836 60 781 44 q 839 68 842 61 m 274 33 q 256 259 261 146 q 250 486 250 372 q 256 713 250 600 q 274 939 261 825 q 268 944 274 944 q 177 930 222 939 q 88 910 132 921 l 83 906 q 44 695 58 801 q 31 481 31 589 q 81 69 31 271 q 85 65 81 65 q 176 44 131 54 q 267 28 221 35 q 274 33 274 28 z "},"L":{"ha":713,"x_min":24,"x_max":688,"o":"m 688 218 q 681 224 688 226 q 528 199 604 206 q 374 193 451 193 l 347 193 q 342 188 342 193 l 342 21 q 347 15 342 15 l 365 15 q 514 25 440 15 q 658 60 588 35 q 663 64 663 60 q 676 142 669 103 q 688 218 683 181 m 260 26 q 249 261 253 144 q 246 496 246 378 q 249 722 246 608 q 260 947 253 835 q 253 953 261 953 q 159 937 206 946 q 68 911 113 928 l 64 907 q 33 694 43 800 q 24 478 24 588 q 33 272 24 374 q 61 69 42 169 q 65 65 61 65 q 158 39 110 50 q 253 21 206 28 q 260 26 261 21 z "},"M":{"ha":1092,"x_min":53,"x_max":1039,"o":"m 1039 475 q 1024 692 1039 585 q 979 904 1008 800 q 975 908 979 908 q 893 926 935 918 q 807 939 851 933 l 801 932 q 835 476 835 704 q 827 255 835 365 q 800 36 819 144 q 806 29 800 29 q 892 42 849 35 q 975 60 935 50 q 979 64 979 60 q 1039 475 1039 261 m 804 632 q 795 719 804 683 q 774 788 786 756 q 749 856 761 821 q 732 943 738 892 q 726 949 732 949 l 714 950 l 713 950 q 707 946 707 950 q 668 760 690 851 q 621 575 646 668 q 583 420 601 497 q 547 264 564 343 q 515 395 532 331 q 479 526 497 460 q 426 735 453 631 q 378 947 399 840 q 371 951 378 951 l 363 950 q 358 944 358 950 q 343 854 354 892 q 321 782 332 817 q 301 709 310 747 q 290 619 292 671 q 301 590 292 613 q 320 544 310 568 q 339 497 331 519 q 350 468 347 475 q 358 440 354 453 q 365 411 363 426 q 401 217 383 314 q 439 22 419 119 q 444 18 439 18 q 494 15 469 15 q 546 15 519 15 q 594 15 571 15 q 646 17 619 15 q 651 21 651 17 q 690 219 672 121 q 724 417 708 317 q 731 440 726 428 q 738 463 735 451 q 750 495 740 471 q 772 547 760 519 q 793 599 783 575 q 804 632 803 624 m 292 935 q 286 942 292 942 q 199 928 242 935 q 115 911 157 921 l 111 907 q 68 694 83 801 q 53 478 53 588 q 67 272 53 374 q 108 69 81 169 q 113 65 108 65 q 185 51 149 57 q 258 38 221 44 l 283 33 q 290 40 290 33 q 257 476 257 257 q 266 706 257 592 q 292 935 275 821 z "},"N":{"ha":896,"x_min":53,"x_max":842,"o":"m 842 475 q 793 904 842 690 l 789 908 q 699 931 744 922 q 607 947 653 940 q 600 942 600 947 q 619 717 611 829 q 631 492 628 604 q 663 435 646 464 q 694 381 679 407 q 752 281 725 331 q 807 181 779 232 q 813 177 810 176 q 818 182 817 178 q 835 328 829 256 q 842 475 842 400 m 794 68 q 651 335 732 201 q 486 606 569 469 q 384 773 435 689 q 285 943 333 857 l 281 946 q 108 910 194 936 q 104 901 101 907 q 238 649 163 775 q 393 394 314 522 q 505 213 450 303 q 610 28 560 122 q 615 25 613 25 q 705 39 660 31 q 790 60 750 47 q 794 68 797 63 m 292 31 l 288 79 q 273 283 279 181 q 264 488 267 385 q 249 513 257 501 q 233 539 242 525 q 161 667 197 604 q 92 797 125 731 l 81 796 q 60 636 67 717 q 53 474 53 556 q 64 270 53 371 q 96 69 75 169 q 100 65 96 65 q 192 42 146 51 q 285 25 239 32 q 292 31 293 25 z "},"O":{"ha":1061,"x_min":50,"x_max":1011,"o":"m 1011 489 l 1011 504 q 977 675 1011 593 q 884 822 943 757 q 747 929 825 888 q 579 979 668 971 q 574 974 574 979 q 576 933 575 953 q 576 890 576 913 q 576 847 576 868 q 578 804 576 826 q 583 799 578 799 q 676 770 638 796 q 738 704 714 744 q 772 615 761 664 q 782 518 782 565 q 782 497 782 507 q 781 476 782 488 q 782 460 782 468 q 782 442 782 451 q 769 350 782 396 q 732 268 757 304 q 669 208 707 232 q 582 181 632 183 l 576 175 q 576 117 576 146 q 574 61 575 89 q 573 32 574 46 q 572 3 572 18 q 579 -3 572 -3 q 590 -1 586 -1 q 601 -1 596 -1 q 766 50 690 4 q 896 165 842 96 q 981 319 950 235 q 1011 489 1011 404 m 486 975 q 481 981 486 981 q 310 933 389 976 q 173 820 231 889 q 83 665 115 751 q 50 490 50 579 l 50 485 q 75 330 50 406 q 146 190 100 254 q 256 77 192 125 q 396 8 319 29 q 436 1 417 1 q 478 -1 456 0 q 483 4 483 -1 l 483 175 q 478 181 483 181 q 390 211 428 186 q 326 274 351 236 q 289 358 301 311 q 276 450 276 404 q 277 469 276 460 q 279 489 278 479 q 278 503 279 496 q 278 517 278 510 q 290 613 278 564 q 326 701 301 661 q 388 769 350 742 q 478 799 425 796 q 483 804 483 799 l 483 806 q 484 849 483 828 q 485 892 485 869 q 485 933 485 914 q 486 975 485 954 z "},"P":{"ha":813,"x_min":35,"x_max":779,"o":"m 779 594 q 778 616 779 606 q 776 638 778 626 q 756 752 776 696 q 697 853 735 808 q 608 926 660 899 q 493 954 556 954 q 472 954 482 954 q 453 956 464 954 q 421 958 436 957 q 389 958 406 958 q 372 958 381 958 q 358 957 365 958 q 354 951 354 957 q 353 911 354 932 q 353 871 353 890 q 353 829 353 850 q 351 789 353 810 q 357 783 351 783 l 417 783 q 459 781 438 783 q 501 769 481 779 l 501 771 q 549 712 539 747 q 561 643 560 676 q 558 592 561 618 q 539 546 554 565 q 490 526 514 531 q 443 521 467 521 l 354 521 q 349 517 349 521 q 349 473 349 494 q 350 428 350 451 l 350 339 q 356 333 350 333 l 468 333 q 591 345 528 333 q 707 401 654 357 q 764 490 749 438 q 779 594 779 542 m 272 944 q 265 950 272 950 q 174 935 219 943 q 85 911 129 926 l 81 907 q 47 694 58 801 q 35 478 35 588 q 46 272 35 374 q 78 69 57 169 q 82 65 78 65 q 172 40 126 50 q 264 24 218 31 q 271 29 271 24 q 257 251 261 140 q 253 474 253 361 q 258 709 253 592 q 272 944 263 826 z "},"Q":{"ha":1061,"x_min":50,"x_max":1047,"o":"m 1043 154 q 1042 161 1047 158 q 1033 169 1039 164 q 1017 181 1026 174 q 1001 190 1013 183 q 976 203 990 196 q 950 219 963 211 q 932 231 938 226 q 989 355 968 289 q 1010 490 1010 421 l 1010 497 q 969 677 1010 590 q 863 831 929 764 q 708 938 796 897 q 528 978 621 978 l 525 978 q 343 936 429 978 q 192 825 257 894 q 88 667 126 756 q 50 485 50 578 l 50 482 q 88 301 50 389 q 192 147 126 214 q 342 38 257 79 q 521 -6 426 -4 q 635 6 578 -7 q 740 50 692 18 q 742 58 744 54 q 665 122 703 90 q 586 183 626 153 q 584 184 585 183 q 582 185 583 185 q 554 180 567 182 q 526 178 542 178 l 519 178 q 417 206 461 178 q 342 277 372 233 q 295 375 311 321 q 279 482 279 429 l 279 506 q 296 610 279 557 q 344 704 313 663 q 422 772 376 746 q 524 799 467 799 l 536 799 q 638 772 593 799 q 715 702 683 744 q 763 606 746 660 q 779 500 779 553 l 779 479 q 777 421 779 450 q 764 363 775 392 q 742 381 753 372 q 718 399 731 389 q 693 419 706 410 q 669 439 681 429 l 661 439 q 603 369 632 404 q 543 300 574 333 q 544 292 540 294 q 632 225 585 260 q 728 154 679 190 q 823 82 776 118 q 910 14 869 46 q 918 14 917 11 q 943 43 929 28 q 969 72 957 58 q 1006 113 989 94 q 1043 154 1024 131 z "},"R":{"ha":867,"x_min":53,"x_max":815,"o":"m 813 68 q 783 189 786 126 q 783 197 783 193 q 782 207 783 203 q 778 280 781 242 q 765 353 775 318 q 734 417 754 388 q 676 463 714 446 l 668 465 q 728 491 701 471 q 773 539 754 511 q 801 599 792 567 q 811 664 811 632 l 811 675 q 772 812 811 746 q 661 917 732 878 q 555 951 611 944 q 440 958 499 958 q 410 958 425 958 q 381 957 396 957 q 375 951 378 957 q 372 866 374 908 q 369 781 371 824 q 375 775 369 775 l 381 775 q 403 776 392 775 q 426 778 415 776 q 446 779 438 779 q 465 779 454 779 l 492 779 q 532 776 511 779 q 568 760 553 772 q 592 717 588 738 q 599 678 596 697 l 599 665 q 597 615 599 642 q 583 569 594 589 l 583 571 q 531 542 556 547 q 481 538 506 538 l 372 538 q 367 533 367 538 q 366 490 367 513 q 365 446 365 468 q 365 403 365 424 q 364 358 365 382 q 369 353 364 353 l 379 353 q 398 352 389 353 q 418 350 407 351 q 433 348 425 349 q 449 347 440 347 q 509 331 479 344 q 550 286 539 317 l 550 288 q 565 227 561 254 q 569 176 568 200 q 572 164 571 169 q 572 151 572 158 q 608 26 582 85 q 614 24 611 24 q 713 38 664 29 q 808 60 761 46 q 813 68 815 63 m 292 32 q 271 493 271 258 q 292 943 271 718 q 285 949 292 949 q 194 933 240 942 q 104 911 149 924 l 100 907 q 53 478 53 700 q 97 69 53 272 q 101 65 97 65 q 192 43 146 53 q 286 26 238 33 q 292 32 292 26 z "},"S":{"ha":906,"x_min":46,"x_max":860,"o":"m 843 668 q 835 704 839 686 q 824 740 831 722 q 777 826 807 786 q 709 897 747 865 q 626 948 671 928 q 531 972 581 968 l 532 972 l 519 975 l 513 975 q 507 969 507 975 q 507 942 507 956 q 508 917 507 929 q 510 862 508 889 q 511 807 511 835 q 515 803 511 803 q 558 794 538 800 q 594 772 579 788 l 594 774 q 617 725 613 749 q 626 681 622 701 q 628 672 628 676 q 629 664 628 668 q 635 660 629 660 q 694 662 665 661 q 754 663 724 663 q 795 662 774 663 q 838 661 817 661 q 843 668 846 661 m 860 325 q 845 402 860 365 q 806 469 831 439 q 747 524 781 500 q 676 560 714 547 q 568 592 617 579 q 474 614 519 604 q 451 619 463 617 q 428 624 439 621 q 381 637 403 629 q 340 655 358 644 q 312 680 322 665 q 301 714 301 694 l 301 724 q 333 785 301 764 q 400 806 364 806 l 413 806 q 418 811 418 806 q 419 860 419 835 q 419 908 419 885 q 420 940 419 924 q 421 972 421 956 q 414 978 421 978 l 406 976 l 400 976 q 283 953 339 976 q 184 890 228 931 q 113 796 140 850 q 81 681 85 742 l 81 682 q 78 667 79 675 q 78 651 78 660 q 96 573 78 610 q 143 508 114 536 q 210 459 172 479 q 286 429 247 439 q 360 410 326 418 q 424 394 393 401 q 469 385 447 389 q 513 374 490 381 q 599 337 561 360 q 636 275 636 314 l 636 268 q 626 227 636 244 q 599 197 615 210 q 560 178 582 185 q 518 172 539 172 q 513 167 513 172 q 509 83 511 124 q 506 -1 507 42 q 511 -7 504 -7 q 569 1 540 -4 q 625 22 597 7 l 625 21 q 706 65 667 38 q 776 126 744 92 q 828 203 807 161 q 857 293 850 246 q 859 309 858 301 q 860 325 860 317 m 421 -6 q 421 38 421 17 q 419 79 421 58 q 418 122 418 101 q 418 164 418 143 q 414 169 418 169 q 406 171 410 171 q 396 172 401 171 q 355 182 376 176 q 317 200 333 188 l 317 199 q 288 253 297 226 q 271 303 278 279 q 267 313 268 308 q 264 324 267 318 l 258 328 l 203 328 q 128 328 165 328 q 53 331 90 329 q 48 329 50 331 q 47 325 46 328 q 75 212 51 267 q 137 113 99 157 q 226 40 175 69 q 336 0 278 10 q 360 -3 347 -3 q 385 -7 372 -4 l 414 -11 q 421 -6 421 -11 z "},"T":{"ha":836,"x_min":40,"x_max":796,"o":"m 796 756 q 768 904 786 828 q 764 908 768 908 q 588 946 679 933 l 581 940 q 585 885 583 913 q 589 831 586 858 q 591 805 590 818 q 593 778 592 792 q 599 772 593 772 q 694 763 647 768 q 789 749 740 757 q 796 756 796 749 m 243 940 q 238 946 243 946 q 152 931 193 940 q 71 911 111 922 l 67 907 q 55 846 60 876 q 44 783 50 815 l 40 758 q 47 751 40 751 q 135 763 92 758 q 224 771 179 768 q 229 776 229 771 q 235 859 232 818 q 243 940 239 900 m 535 486 q 532 717 535 603 q 524 947 529 831 q 518 953 524 953 q 460 957 489 956 q 404 958 432 958 q 317 954 358 958 l 311 949 q 301 713 304 831 q 297 478 297 596 q 310 25 297 251 q 315 19 310 19 q 408 15 361 15 q 462 16 435 15 q 517 18 489 17 q 522 24 522 18 q 535 486 535 254 z "},"U":{"ha":883,"x_min":51,"x_max":832,"o":"m 832 463 q 820 682 832 574 q 786 897 808 790 q 782 901 786 901 q 691 926 738 917 q 597 942 644 935 q 590 936 590 942 q 605 699 600 817 q 610 461 610 581 l 610 365 q 609 310 610 338 q 603 256 608 283 q 560 196 589 213 q 500 179 532 179 l 496 179 q 490 175 490 179 l 490 174 q 489 88 490 129 q 485 1 488 46 q 490 -4 485 -4 l 504 -4 q 635 26 575 -4 q 739 108 696 57 q 806 224 782 158 q 831 357 831 289 l 831 378 q 831 420 831 400 q 832 463 832 440 m 400 0 q 400 43 400 22 q 399 86 400 65 q 397 129 397 108 q 396 172 396 150 q 390 178 396 178 q 340 189 365 181 q 299 219 315 197 l 300 219 q 277 292 281 260 q 274 357 274 325 q 272 411 272 385 q 272 467 272 439 q 293 938 272 701 q 288 943 293 943 q 194 928 239 939 q 103 904 149 918 l 99 900 q 64 684 76 793 q 51 463 51 575 q 53 415 51 439 q 54 367 54 390 l 54 354 q 79 222 54 286 q 149 106 104 157 q 256 25 194 56 q 388 -6 317 -6 l 394 -6 q 400 0 400 -6 z "},"V":{"ha":831,"x_min":29,"x_max":801,"o":"m 801 903 q 797 908 801 908 q 601 946 701 933 l 596 942 q 551 734 576 836 q 499 528 526 632 q 488 486 493 508 q 476 443 482 464 q 524 292 501 368 q 567 139 546 215 q 572 135 568 135 q 578 139 576 135 q 649 326 614 232 q 715 515 685 419 q 767 706 744 610 q 801 903 790 803 m 515 25 q 457 219 488 124 q 394 411 426 315 q 309 676 350 544 q 238 944 268 807 l 232 949 q 131 933 181 942 q 33 911 81 924 q 29 904 29 911 q 120 524 56 708 q 260 158 185 339 q 288 90 274 124 q 315 22 301 56 q 321 18 315 18 q 372 16 346 17 q 425 15 399 15 q 467 16 446 15 q 510 18 488 17 q 515 25 518 18 z "},"W":{"ha":1172,"x_min":44,"x_max":1128,"o":"m 1128 811 q 1124 903 1128 858 q 1119 908 1124 908 q 1031 923 1075 917 q 943 936 988 929 l 936 931 q 925 725 936 826 q 894 524 914 624 q 934 341 915 432 q 960 157 953 250 q 965 151 961 153 q 971 154 969 150 q 1031 312 1003 232 q 1081 474 1060 392 q 1115 641 1103 557 q 1128 811 1128 725 m 894 32 q 872 239 889 136 q 830 442 854 342 q 776 643 806 543 q 718 843 747 743 l 685 951 q 679 956 685 956 q 611 957 644 957 q 544 957 579 957 l 489 957 q 485 953 485 957 q 436 731 460 842 q 393 508 413 619 q 424 393 408 450 q 458 279 440 336 q 479 212 469 246 q 497 146 489 178 q 503 142 499 142 q 508 146 507 142 q 535 317 521 232 q 565 488 550 401 q 576 550 571 519 q 586 613 581 581 q 603 545 594 578 q 618 479 611 513 q 669 251 646 364 q 708 24 693 139 q 714 18 708 18 q 801 21 758 18 q 889 26 844 24 q 894 32 894 26 m 457 25 q 447 54 451 40 q 438 83 443 68 q 369 292 403 188 q 308 503 336 397 q 261 715 281 608 q 235 932 242 822 l 229 938 q 139 926 183 933 q 50 911 94 919 q 46 906 46 911 q 44 876 44 890 q 44 849 44 864 q 64 636 44 740 q 115 430 83 532 q 186 229 146 328 q 269 35 226 131 q 275 32 269 32 q 363 24 319 26 q 451 18 407 21 q 457 25 460 18 z "},"X":{"ha":860,"x_min":35,"x_max":826,"o":"m 804 903 q 800 911 807 908 q 697 934 750 926 q 590 947 643 942 l 585 944 q 540 857 563 900 q 493 771 518 814 q 493 765 490 768 q 534 703 515 735 q 575 639 553 671 q 595 608 585 624 q 617 576 606 592 q 625 576 621 569 q 638 599 632 588 q 651 622 644 611 q 734 765 694 694 q 804 903 774 836 m 824 68 q 655 365 749 218 q 464 660 561 513 q 369 803 415 732 q 278 949 324 875 l 274 951 q 169 938 221 946 q 65 917 117 929 q 61 908 58 914 q 209 648 128 778 q 378 388 290 518 q 497 208 438 297 q 608 26 556 119 q 613 24 611 24 q 717 38 665 29 q 819 60 769 47 q 824 68 826 63 m 375 254 q 374 260 376 256 q 328 326 350 292 q 282 393 306 360 l 246 446 q 238 446 242 451 q 226 426 231 435 q 214 406 221 417 q 119 238 165 321 q 38 74 72 156 q 42 65 35 68 q 145 42 93 53 q 253 25 197 31 q 257 28 254 25 q 307 129 281 79 q 361 228 333 179 q 368 241 364 235 q 375 254 372 247 z "},"Y":{"ha":842,"x_min":38,"x_max":804,"o":"m 803 901 q 799 908 804 906 q 697 931 747 922 q 596 947 647 940 l 589 943 q 543 819 569 883 q 489 692 517 756 q 483 678 486 685 q 478 664 481 671 l 478 658 q 518 580 499 619 q 557 501 538 540 q 573 469 565 486 q 589 438 581 453 q 594 435 592 435 q 600 438 599 435 q 615 469 607 453 q 629 500 622 485 q 722 697 675 599 q 803 901 769 794 m 538 364 q 492 455 515 408 q 446 546 469 501 q 345 744 394 646 q 251 946 296 843 l 247 949 q 43 911 140 938 q 39 904 38 908 q 144 654 83 774 q 269 417 204 535 q 285 391 276 404 q 300 364 293 378 q 302 242 300 301 q 307 121 304 182 q 309 72 308 96 q 311 24 310 47 q 317 18 311 18 q 367 15 342 15 q 418 15 392 15 q 467 15 443 15 q 518 18 492 15 q 524 24 524 18 q 533 194 531 108 q 538 364 535 279 z "},"Z":{"ha":867,"x_min":43,"x_max":824,"o":"m 582 939 q 583 945 585 942 q 578 949 581 949 q 428 957 503 957 q 262 947 344 957 q 99 918 179 938 l 94 914 q 81 838 88 876 q 68 763 74 800 q 75 756 68 756 q 257 772 167 767 q 439 778 347 778 q 443 779 443 778 q 483 826 463 803 q 524 872 503 849 q 552 905 538 888 q 582 939 567 922 m 814 763 q 808 811 811 789 q 799 856 804 833 q 793 881 796 868 q 788 906 790 893 q 783 910 788 910 q 767 914 775 913 q 753 918 760 915 q 681 933 719 929 q 676 932 678 933 q 551 789 614 860 q 426 647 489 718 q 235 428 331 538 q 44 208 140 318 l 43 203 q 55 136 49 169 q 68 69 61 103 q 72 65 68 65 q 117 55 96 60 q 161 44 139 50 q 172 42 167 43 q 183 39 178 40 q 189 40 188 39 q 322 195 256 119 q 457 347 389 271 q 638 553 549 450 q 814 763 728 656 m 824 214 q 817 221 824 224 q 619 197 718 201 q 424 192 521 192 l 419 190 q 373 140 396 167 q 329 88 350 114 q 282 32 306 58 q 281 26 279 29 q 286 22 282 22 q 366 17 326 19 q 446 15 406 15 q 619 26 533 15 q 788 60 704 36 q 792 64 792 60 q 810 140 803 101 q 824 214 817 178 z "},"[":{"ha":481,"x_min":43,"x_max":438,"o":"m 438 757 q 435 790 436 774 q 433 822 435 807 q 432 856 433 839 q 428 889 431 872 q 425 893 428 893 q 282 953 358 940 l 275 947 q 276 910 276 928 q 276 874 276 893 q 277 836 276 854 q 278 800 278 818 q 283 794 278 794 q 431 751 357 786 q 438 757 438 747 m 251 -212 l 251 950 q 246 954 251 954 l 240 954 q 153 939 196 954 q 71 896 110 924 l 68 892 q 43 350 43 621 q 49 100 43 224 q 65 -149 54 -24 q 68 -153 65 -153 q 152 -201 107 -183 q 246 -218 197 -218 q 251 -212 251 -218 m 438 -21 q 435 -15 438 -18 q 431 -15 433 -12 q 358 -44 394 -35 q 283 -56 321 -53 l 278 -61 l 278 -151 q 277 -182 278 -167 q 276 -212 276 -197 q 282 -218 276 -218 q 425 -161 363 -210 q 428 -157 428 -161 q 429 -139 429 -149 q 431 -122 429 -131 q 435 -72 433 -96 q 438 -21 436 -47 z "},"\\":{"ha":447,"x_min":38,"x_max":410,"o":"m 410 43 q 331 318 374 182 q 244 590 289 454 q 182 782 213 686 q 124 975 151 878 q 117 979 121 981 q 78 965 97 975 q 40 944 60 956 l 38 939 q 111 680 71 808 q 194 424 151 551 q 263 217 229 319 q 325 8 296 114 q 332 4 328 3 q 370 18 351 10 q 407 38 389 26 q 410 43 410 40 z "},"]":{"ha":506,"x_min":54,"x_max":451,"o":"m 222 947 q 217 953 222 953 q 71 894 138 944 l 68 890 q 65 857 67 874 q 63 824 64 840 q 60 792 61 808 q 57 758 60 775 q 65 753 57 750 q 214 793 138 788 q 219 799 219 793 q 221 835 221 817 q 221 872 221 853 q 222 910 221 892 q 222 947 222 928 m 451 354 q 446 620 451 488 q 428 888 440 753 q 425 892 428 892 q 341 936 386 919 q 249 953 296 953 l 244 947 q 244 365 244 654 q 243 -215 244 78 q 249 -219 243 -219 l 253 -219 q 425 -162 349 -219 q 428 -158 428 -162 q 446 98 440 -29 q 451 354 451 225 m 219 -212 l 219 -136 q 219 -99 219 -117 q 218 -61 219 -81 q 213 -56 218 -56 q 137 -42 175 -53 q 63 -11 99 -31 l 54 -17 q 60 -83 57 -50 q 65 -150 63 -117 q 68 -154 65 -154 q 136 -194 100 -178 q 213 -218 172 -211 q 219 -212 219 -218 z "},"^":{"ha":401,"x_min":0,"x_max":401,"o":"m 401 1006 q 374 1081 399 1049 q 321 1140 349 1113 l 304 1157 q 253 1158 279 1158 q 201 1158 228 1158 q 151 1158 176 1158 q 101 1157 128 1158 l 97 1156 q 86 1143 94 1151 q 29 1081 56 1115 q 0 1004 3 1047 q 6 1000 0 1000 q 23 999 14 1000 q 40 997 32 999 q 140 993 90 993 q 144 996 142 993 q 166 1026 154 1011 q 189 1057 178 1042 l 200 1072 q 261 997 238 1031 q 265 994 264 994 q 365 999 315 994 q 381 1001 374 1000 q 397 1001 389 1001 q 401 1006 401 1001 z "},"_":{"ha":739,"x_min":-12,"x_max":753,"o":"m 750 -206 q 750 -199 753 -203 q 700 -169 722 -175 q 369 -165 533 -165 q 39 -169 206 -165 q 35 -170 38 -169 q 32 -171 33 -171 q 10 -178 21 -174 q -10 -193 -1 -182 q -10 -199 -12 -196 q 13 -220 1 -214 q 35 -229 24 -226 l 36 -229 q 202 -231 119 -229 q 368 -232 285 -232 q 535 -232 451 -232 q 701 -229 618 -232 q 704 -228 704 -228 q 708 -226 706 -228 l 707 -226 q 730 -219 718 -224 q 750 -206 742 -215 z "},"`":{"ha":375,"x_min":50,"x_max":321,"o":"m 321 825 q 303 907 321 868 q 267 982 286 946 l 261 985 q 226 987 243 986 q 192 988 208 988 q 124 985 157 988 q 57 978 90 983 q 54 971 50 978 q 101 902 75 933 q 154 840 126 871 q 176 817 165 829 q 197 793 186 804 q 201 792 199 792 q 258 794 229 793 q 315 801 288 796 q 319 807 319 801 q 320 816 319 811 q 321 825 321 821 z "},"a":{"ha":786,"x_min":53,"x_max":733,"o":"m 733 375 q 733 393 733 385 q 732 413 733 403 q 733 423 732 418 q 733 432 733 428 q 710 551 733 494 q 645 652 686 608 q 550 722 604 696 q 433 749 496 749 q 419 749 426 749 q 407 747 414 749 q 404 749 406 749 q 404 749 404 749 l 401 749 q 308 735 354 749 q 221 697 261 722 q 150 635 181 672 q 103 551 119 599 q 99 539 100 544 q 97 526 99 533 q 94 517 94 519 q 89 497 94 514 q 94 489 86 489 q 282 497 188 494 q 288 503 288 497 q 322 566 289 543 q 396 589 356 589 l 403 589 q 415 590 407 590 q 484 567 453 590 q 515 504 515 543 l 515 497 q 517 426 515 461 q 518 356 518 392 q 516 238 518 297 q 511 121 514 179 l 511 122 q 510 107 510 115 q 510 92 510 100 q 511 57 510 74 q 515 21 513 40 q 521 15 515 15 q 619 26 569 18 q 713 46 668 33 q 717 50 717 46 q 716 69 717 60 q 715 89 715 79 q 719 159 715 125 q 725 229 722 193 l 729 286 q 733 375 733 332 m 433 19 q 429 51 431 36 q 428 82 428 67 q 428 101 428 93 q 429 122 428 111 q 431 142 431 133 q 431 161 431 151 q 422 165 431 171 q 399 157 413 158 q 372 154 386 156 q 364 153 368 154 q 356 153 360 153 q 325 158 340 153 q 296 172 310 163 q 274 194 282 181 q 265 224 265 207 l 265 231 q 278 271 265 256 q 310 294 290 286 q 354 306 331 303 q 400 313 378 310 q 408 314 404 314 q 417 315 413 314 l 421 321 l 421 468 q 415 474 421 474 l 388 469 q 378 467 382 468 q 368 467 374 467 q 267 449 322 460 q 164 414 211 438 q 85 352 117 390 q 53 254 53 314 q 53 242 53 247 q 54 231 53 238 q 83 142 60 183 q 142 68 107 100 q 222 15 178 36 q 313 -10 265 -6 q 329 -12 321 -11 q 347 -12 338 -12 q 391 -7 371 -12 q 431 14 411 -1 q 433 19 433 17 z "},"b":{"ha":799,"x_min":46,"x_max":751,"o":"m 751 392 l 751 413 q 728 540 751 476 q 663 653 704 603 q 563 734 621 703 q 438 767 506 765 q 385 763 411 767 q 335 754 360 760 q 331 749 331 754 l 331 661 q 331 618 331 640 q 329 574 331 596 q 332 568 329 571 q 338 568 335 565 q 366 581 351 575 q 396 588 381 588 l 401 588 q 463 569 438 588 q 503 523 488 551 q 527 460 519 494 q 535 396 535 426 l 535 365 q 528 299 535 333 q 508 235 522 264 q 469 186 493 206 q 407 167 444 167 l 404 167 q 369 174 386 167 q 336 193 351 182 l 333 193 q 328 188 328 193 q 329 135 328 161 q 331 81 331 108 q 332 54 332 67 q 332 28 332 42 q 335 24 332 26 q 381 1 357 8 q 429 -7 406 -6 q 563 35 503 -3 q 664 130 622 74 q 728 256 706 186 q 751 392 751 325 m 276 943 q 271 949 278 949 q 181 934 225 944 q 93 908 136 924 l 89 904 q 56 688 67 797 q 46 468 46 579 q 83 68 46 265 q 88 64 83 64 q 177 39 132 49 q 269 24 222 29 q 275 29 276 24 q 264 254 268 142 q 260 479 260 367 q 265 711 260 597 q 276 943 269 825 z "},"c":{"ha":794,"x_min":40,"x_max":758,"o":"m 749 476 q 743 490 746 483 q 739 504 740 497 q 728 534 733 519 q 719 560 724 549 q 615 692 683 638 q 458 753 547 746 l 453 747 q 456 669 456 708 q 458 590 457 629 q 464 585 458 585 q 499 572 485 583 q 521 546 513 561 q 534 511 529 531 q 542 474 539 492 q 547 469 542 469 l 743 469 q 749 476 749 469 m 756 285 q 750 292 758 292 q 692 290 721 290 q 636 290 664 290 q 594 290 615 290 q 554 292 575 290 q 549 288 549 292 q 540 249 544 269 q 525 211 535 229 q 501 181 515 193 q 464 168 486 169 l 458 163 q 456 81 458 122 q 453 0 454 40 q 453 -4 451 -3 q 458 -6 456 -6 q 566 23 517 -3 q 653 89 615 49 q 717 181 692 129 q 756 285 743 232 m 369 749 q 364 754 369 754 q 235 717 294 750 q 132 631 175 683 q 65 514 89 579 q 40 382 40 449 l 40 351 q 65 222 40 285 q 134 110 90 160 q 236 28 178 60 q 363 -8 294 -4 q 368 -3 368 -8 q 367 39 368 18 q 367 81 367 60 q 366 122 367 101 q 365 163 365 143 q 361 168 363 168 q 310 191 329 174 q 280 232 290 208 q 265 283 269 256 q 261 339 261 311 q 261 360 261 350 q 263 379 261 369 l 263 413 q 266 469 263 440 q 280 523 269 499 q 309 564 290 547 q 360 585 328 581 l 361 585 q 367 590 367 585 q 367 669 367 631 q 369 749 368 708 z "},"d":{"ha":814,"x_min":54,"x_max":760,"o":"m 760 465 q 749 687 760 578 q 717 904 738 796 q 713 908 717 908 q 626 933 669 924 q 536 950 582 943 l 529 944 q 542 706 538 824 q 547 465 547 588 q 531 28 547 246 q 536 22 531 22 q 628 36 583 28 q 717 60 674 44 q 721 63 721 60 q 750 263 740 163 q 760 465 760 363 m 451 599 q 451 676 451 639 q 450 754 451 714 q 446 760 450 760 q 419 764 432 763 q 392 765 407 765 l 379 765 q 250 733 310 765 q 147 651 190 701 q 78 535 103 600 q 54 404 54 471 q 55 392 54 397 q 56 379 56 386 q 85 247 60 313 q 152 126 110 181 q 253 37 194 72 q 382 -3 311 1 q 413 -2 399 -4 q 442 4 426 0 q 446 10 446 4 q 447 44 446 26 q 449 76 447 61 q 450 106 450 92 q 450 136 450 121 l 450 161 q 444 167 450 167 l 447 164 q 428 172 435 172 l 419 172 q 356 190 383 172 q 310 234 329 207 q 281 294 290 261 q 271 360 271 328 l 271 383 q 280 452 271 417 q 308 517 289 488 q 354 566 326 547 q 419 585 382 585 l 424 585 q 449 594 440 585 q 451 599 451 597 z "},"e":{"ha":832,"x_min":44,"x_max":788,"o":"m 788 344 l 788 354 q 759 499 788 428 q 681 627 731 571 q 564 717 631 683 q 421 751 497 751 q 278 719 346 751 q 158 632 210 686 q 75 508 106 578 q 44 365 44 439 q 75 224 44 292 q 157 105 106 157 q 276 22 208 53 q 417 -10 343 -10 l 436 -10 q 544 10 493 -10 q 638 64 594 31 q 715 140 681 97 q 774 231 749 183 q 774 236 776 233 q 768 239 771 239 q 722 238 744 238 q 678 238 701 238 q 622 238 650 238 q 567 239 594 238 q 563 238 564 239 q 510 183 543 204 q 438 161 478 161 l 421 161 q 353 178 383 161 q 301 224 322 196 q 269 288 281 253 q 258 358 258 322 l 258 392 q 268 462 258 426 q 298 526 278 497 q 347 572 318 554 q 414 590 376 590 l 431 590 q 515 555 479 590 q 563 472 551 519 q 467 474 514 474 q 372 475 419 475 q 367 471 367 475 q 359 432 363 451 q 356 390 356 413 q 360 331 356 357 q 361 319 361 325 q 363 308 361 314 l 368 304 q 574 305 472 304 q 781 311 676 306 q 786 315 786 311 q 788 329 788 322 q 788 344 788 336 z "},"f":{"ha":547,"x_min":46,"x_max":501,"o":"m 501 574 q 500 644 501 610 q 496 715 499 679 q 492 721 496 721 q 446 731 468 728 q 400 738 424 735 q 382 740 390 739 q 364 743 374 742 l 364 747 l 364 753 q 376 776 364 768 q 403 785 388 785 q 425 781 414 785 q 457 771 440 778 q 469 767 464 768 q 482 765 475 765 q 489 769 489 765 q 483 838 486 804 q 475 904 479 872 q 472 910 475 910 q 415 934 446 925 q 354 950 385 943 q 311 956 333 956 q 244 938 275 956 q 192 892 214 921 q 157 828 169 864 q 144 757 144 793 q 144 749 144 753 q 144 740 143 744 q 114 735 128 738 q 88 731 100 733 q 73 727 81 728 q 58 725 65 726 l 54 719 q 46 575 47 646 q 51 569 46 569 q 95 574 74 572 q 140 576 117 575 q 140 533 140 554 q 139 490 139 511 q 144 264 139 376 q 156 39 149 151 q 160 33 156 33 q 276 15 214 15 q 315 17 296 15 q 351 21 333 18 q 357 26 357 21 q 365 258 363 143 q 367 492 367 374 l 367 576 q 409 574 388 575 q 453 571 431 574 q 475 569 464 569 q 497 568 486 569 q 501 574 501 568 z "},"g":{"ha":839,"x_min":54,"x_max":786,"o":"m 786 250 q 746 681 786 467 q 742 685 746 685 q 654 708 700 699 q 563 724 608 718 q 557 718 556 724 q 569 490 564 603 q 574 263 574 378 q 572 171 574 217 q 571 79 571 125 l 571 67 q 562 17 571 40 q 537 -25 553 -7 q 498 -54 521 -43 q 449 -65 475 -65 l 429 -65 q 367 -50 397 -65 q 322 -3 336 -35 l 322 -4 q 317 1 322 1 q 211 10 264 4 q 106 22 158 15 q 99 15 96 22 q 106 -15 103 0 q 114 -40 108 -29 q 163 -119 132 -85 q 233 -179 193 -154 q 318 -217 272 -204 q 411 -231 364 -231 l 436 -231 q 562 -205 501 -231 q 669 -135 622 -179 q 747 -33 717 -92 q 781 90 776 25 q 785 170 783 131 q 786 250 786 210 m 476 217 l 476 249 q 473 254 476 253 q 467 253 469 256 q 442 237 456 242 q 414 232 428 232 l 408 232 q 350 246 376 232 q 303 282 324 260 q 272 333 283 304 q 261 393 261 363 l 261 406 q 273 469 261 438 q 306 525 285 500 q 355 565 326 550 q 417 581 383 581 q 465 564 442 581 l 474 568 q 473 606 474 588 q 472 644 472 625 q 472 682 472 664 q 471 719 472 700 q 468 724 471 724 q 426 745 449 739 q 379 751 403 751 l 372 751 q 250 719 306 751 q 153 636 194 688 q 87 522 113 585 q 56 397 61 460 l 56 399 q 54 383 54 392 q 54 368 54 376 q 77 249 54 307 q 141 145 100 190 q 237 73 182 100 q 356 46 292 46 l 371 46 q 422 49 397 46 q 469 60 446 51 q 474 64 474 60 q 474 104 474 83 q 475 144 474 125 q 476 181 476 164 q 476 217 476 197 z "},"h":{"ha":769,"x_min":49,"x_max":719,"o":"m 719 483 l 719 499 q 701 596 719 549 q 650 680 682 643 q 574 739 618 717 q 478 761 529 761 l 465 761 q 343 717 396 761 q 342 713 342 715 q 342 671 342 692 q 343 632 342 651 q 344 611 344 621 q 344 592 344 603 q 344 571 344 581 q 343 550 344 561 q 347 544 343 546 q 353 546 350 543 q 401 578 374 571 q 408 578 404 578 q 414 579 411 579 q 457 568 439 579 q 486 538 475 557 q 503 497 497 519 q 508 451 508 474 q 508 439 508 444 q 507 428 508 435 q 507 401 507 415 q 506 376 507 389 q 501 201 504 289 q 492 26 499 114 q 497 21 492 21 q 588 35 544 25 q 675 60 632 44 q 679 64 679 60 q 710 272 701 168 q 719 483 719 376 m 275 946 q 269 951 276 951 q 179 936 225 946 q 93 911 133 926 l 89 907 q 59 694 69 800 q 49 478 49 588 q 58 272 49 374 q 86 69 67 169 q 90 65 86 65 q 177 40 132 50 q 267 22 222 29 q 274 28 274 22 q 263 253 267 140 q 260 479 260 365 q 264 713 260 597 q 275 946 268 828 z "},"i":{"ha":360,"x_min":68,"x_max":279,"o":"m 274 751 l 265 907 q 224 947 249 933 q 172 960 200 960 q 122 947 146 960 q 82 911 99 935 l 81 908 q 79 869 79 889 q 78 832 79 851 l 74 754 q 76 749 74 751 q 81 750 78 747 q 172 775 122 775 q 265 747 225 775 q 274 751 274 742 m 279 453 q 275 690 279 571 q 272 694 275 692 q 169 724 224 724 q 76 700 119 724 l 74 694 q 69 571 71 632 q 68 447 68 510 q 71 246 68 347 q 78 44 74 144 q 122 5 96 18 q 176 -8 149 -8 q 226 3 201 -8 q 265 39 250 15 q 276 246 272 143 q 279 453 279 349 z "},"j":{"ha":435,"x_min":54,"x_max":379,"o":"m 371 761 l 368 839 q 366 878 368 858 q 363 917 364 897 q 362 919 363 918 q 361 921 361 921 q 291 965 331 949 q 210 982 251 982 q 174 978 192 982 l 169 974 q 169 930 169 951 q 168 886 168 908 q 168 843 168 864 q 167 800 168 822 q 172 794 167 794 q 192 797 182 796 q 210 797 201 797 q 289 786 250 797 q 364 756 328 775 q 369 756 367 753 q 371 761 372 758 m 379 365 q 371 703 379 533 q 369 708 371 708 q 292 736 333 726 q 210 746 251 746 q 191 745 200 746 q 171 743 182 744 q 167 738 169 743 q 165 545 167 642 q 164 353 164 449 q 165 194 164 272 q 167 36 167 115 q 167 31 168 33 q 165 26 165 29 q 162 5 164 15 q 153 -14 160 -6 l 154 -11 q 121 -21 135 -21 q 93 -14 110 -21 l 93 -15 q 83 -8 85 -8 q 79 -6 81 -7 q 72 -1 75 -3 q 64 3 68 0 l 60 3 q 54 -3 54 3 q 59 -76 57 -39 q 64 -150 61 -114 q 93 -175 74 -161 q 199 -212 142 -212 q 282 -182 242 -212 q 349 -83 329 -136 q 371 29 368 -29 q 376 197 374 114 q 379 365 379 281 z "},"k":{"ha":790,"x_min":44,"x_max":753,"o":"m 747 717 q 744 725 753 725 q 615 739 679 733 q 486 747 551 744 q 482 744 485 747 q 451 692 467 718 q 419 640 435 665 q 381 581 404 614 q 344 521 358 549 l 343 518 q 342 466 343 489 q 344 413 340 443 l 358 292 l 388 238 q 444 131 415 185 q 497 21 474 76 q 501 18 500 18 q 618 32 561 22 q 731 60 675 42 q 735 68 738 63 q 664 199 704 132 q 581 336 624 267 q 550 383 565 360 q 521 431 535 407 l 708 668 q 728 692 718 681 q 747 717 738 704 m 276 944 q 269 950 276 950 q 181 934 225 943 q 93 911 136 925 l 89 907 q 44 479 44 693 q 86 69 44 271 q 90 65 86 65 q 178 41 133 51 q 269 25 224 31 q 275 31 275 25 q 262 255 267 143 q 257 481 257 367 q 262 713 257 599 q 276 944 267 828 z "},"l":{"ha":321,"x_min":56,"x_max":264,"o":"m 264 476 q 260 692 264 585 q 250 906 257 799 q 209 944 233 931 q 158 957 185 957 q 110 944 133 957 q 69 908 86 932 l 68 906 q 56 471 56 690 q 58 270 56 371 q 65 69 61 169 q 110 31 83 44 q 164 17 136 17 q 212 28 189 17 q 250 63 235 39 q 260 269 257 167 q 264 476 264 372 z "},"m":{"ha":1176,"x_min":50,"x_max":1126,"o":"m 1126 382 q 1126 408 1126 396 q 1125 435 1126 421 q 1103 543 1124 490 q 1048 638 1083 596 q 964 708 1013 681 q 857 738 915 735 l 858 738 q 844 739 851 739 q 832 739 839 739 q 735 710 779 739 q 663 639 692 682 q 604 718 643 683 q 513 753 565 753 q 506 752 510 753 q 499 751 501 751 q 434 731 464 749 q 378 694 404 714 q 375 688 371 692 q 368 614 371 650 q 363 542 365 578 q 371 538 363 532 q 401 554 386 547 q 433 561 415 561 l 438 561 q 463 545 454 561 q 474 514 472 529 q 476 472 475 490 q 476 436 476 453 l 476 371 q 479 194 476 282 q 486 18 482 107 q 492 13 486 13 q 540 11 515 11 q 590 11 565 11 q 639 11 615 11 q 688 13 663 11 q 693 18 693 13 q 704 183 701 101 q 707 347 707 264 l 707 424 q 706 431 707 428 q 706 439 706 435 q 711 481 706 460 q 728 520 717 503 q 757 549 740 538 q 796 560 774 560 q 801 559 799 560 q 807 558 804 558 l 811 558 q 853 547 835 558 q 885 519 872 536 q 904 480 897 501 q 911 436 911 458 l 911 431 q 912 399 911 415 q 913 365 913 382 q 903 197 913 282 q 875 31 894 113 q 881 24 872 24 q 969 33 925 28 q 1057 46 1014 39 q 1061 49 1061 46 q 1111 212 1096 128 q 1126 382 1126 296 m 301 35 q 264 379 264 203 q 300 714 264 544 q 294 721 303 721 q 203 713 249 718 q 114 700 158 707 l 110 696 q 50 374 50 540 q 65 210 50 290 q 110 56 81 131 q 114 51 110 51 q 203 38 158 44 q 296 28 249 32 q 301 35 304 28 z "},"n":{"ha":781,"x_min":50,"x_max":729,"o":"m 729 371 q 728 410 729 390 q 726 450 728 431 q 705 549 724 500 q 655 639 686 599 q 580 706 624 679 q 483 739 536 733 l 475 739 q 417 725 443 739 q 372 688 392 711 q 368 682 368 685 l 368 525 q 372 519 368 521 q 378 521 375 518 q 406 548 393 535 q 433 569 419 561 l 438 569 q 472 559 458 569 q 495 532 486 549 q 508 496 504 515 q 511 458 511 476 l 511 394 q 508 208 511 300 q 494 22 504 115 q 500 17 494 17 q 683 46 596 22 q 688 50 688 46 q 729 371 729 206 m 282 24 q 271 201 275 113 q 267 379 267 289 q 271 551 267 467 q 281 722 275 636 q 275 728 282 728 q 183 717 229 725 q 93 699 138 710 l 89 694 q 50 371 50 539 q 89 56 50 207 q 93 51 89 51 q 183 31 138 40 q 276 18 229 22 q 282 24 283 18 z "},"o":{"ha":871,"x_min":49,"x_max":822,"o":"m 822 371 l 822 385 q 795 517 822 453 q 722 633 768 582 q 615 715 676 683 q 483 751 553 747 q 478 746 478 751 q 479 707 479 726 q 481 669 479 689 q 482 631 482 650 q 482 593 482 613 q 488 588 482 588 q 544 568 522 585 q 580 526 567 551 q 599 470 593 501 q 604 410 604 439 q 604 390 604 400 q 603 374 604 382 l 603 350 q 598 288 603 319 q 581 228 593 256 q 546 183 568 201 q 489 161 524 165 l 483 156 q 482 76 483 115 q 478 -3 481 38 q 483 -8 478 -8 q 500 -6 492 -7 q 515 -4 508 -6 q 531 -2 522 -3 q 546 1 539 -1 q 656 55 606 18 q 744 141 707 92 q 801 249 781 190 q 822 371 822 308 m 392 -3 q 392 38 392 18 q 390 76 392 57 q 389 115 389 96 q 389 156 389 136 q 383 161 389 161 q 326 182 349 165 q 289 224 303 199 q 269 279 275 249 q 264 339 264 310 q 265 359 264 350 q 267 378 265 368 q 266 390 267 385 q 265 401 265 394 q 271 462 265 431 q 290 520 276 493 q 326 565 303 547 q 383 586 349 583 l 389 592 q 390 631 390 611 q 390 669 390 650 q 391 708 390 689 q 392 747 392 728 q 386 753 392 753 q 253 716 315 750 q 147 629 192 682 q 75 510 101 576 q 49 375 49 443 l 49 363 q 68 245 49 303 q 122 139 88 188 q 206 53 157 90 q 313 0 254 17 q 326 -1 313 0 q 347 -4 339 -3 l 346 -4 q 386 -8 364 -8 q 392 -3 392 -8 z "},"p":{"ha":814,"x_min":53,"x_max":761,"o":"m 761 321 q 757 379 761 351 q 740 501 756 438 q 694 617 725 564 q 615 706 663 669 q 500 750 567 743 l 496 750 q 433 738 464 750 q 374 708 403 725 q 372 700 368 704 l 372 628 q 372 589 372 608 q 371 550 371 569 q 376 544 371 544 q 382 548 378 546 q 389 553 386 550 q 425 573 407 564 q 465 582 443 582 l 472 582 q 519 561 500 582 q 542 515 538 540 q 544 486 544 500 q 544 461 544 474 q 544 438 544 449 q 543 415 543 426 q 542 394 543 404 q 542 374 542 385 q 542 353 542 363 q 543 333 542 344 q 545 303 544 318 q 546 272 546 288 l 546 257 q 523 192 546 214 q 469 169 500 169 l 463 169 q 414 180 436 169 q 371 203 392 190 q 363 199 363 208 q 363 111 363 154 q 364 24 363 68 q 368 18 364 18 q 380 15 375 15 q 392 11 385 14 q 446 -6 418 1 q 503 -12 474 -12 l 510 -12 q 623 18 575 -12 q 701 97 671 49 q 747 203 732 144 q 761 321 761 263 m 379 544 q 377 544 378 543 q 376 544 376 544 q 376 542 375 543 q 379 544 376 542 m 283 -200 q 267 269 267 33 q 283 724 267 496 q 278 729 283 729 q 187 715 232 725 q 97 692 142 706 l 93 688 q 63 477 74 582 q 53 264 53 372 q 93 -157 53 53 q 97 -161 93 -161 q 187 -187 142 -176 q 276 -206 232 -199 q 283 -200 283 -206 z "},"q":{"ha":813,"x_min":53,"x_max":758,"o":"m 758 257 q 748 470 758 365 q 718 681 738 575 q 714 685 718 685 q 625 709 669 700 q 535 725 581 718 l 528 719 q 544 250 544 483 q 540 22 544 135 q 526 -204 536 -92 q 533 -210 526 -210 q 624 -194 579 -203 q 711 -171 668 -186 q 715 -167 715 -171 q 758 257 758 39 m 446 551 l 446 633 q 446 672 446 653 q 444 713 446 693 q 442 718 444 715 l 433 722 q 392 740 414 732 q 343 749 369 749 l 335 749 q 214 713 265 749 q 128 621 163 676 q 75 498 93 565 q 56 369 57 431 q 54 347 56 358 q 53 324 53 335 q 71 203 53 264 q 124 95 89 143 q 209 17 158 47 q 326 -14 260 -14 l 339 -14 q 387 -9 364 -14 q 431 3 410 -4 q 435 8 435 3 l 435 186 q 431 191 435 190 q 425 189 428 192 q 401 170 417 176 q 368 164 385 164 q 316 179 336 164 q 285 218 296 194 q 272 270 275 242 q 268 326 268 299 q 269 348 268 338 q 269 368 269 358 l 269 444 q 270 467 269 456 q 272 489 271 478 q 306 556 279 532 q 365 581 332 581 l 371 581 q 407 570 390 581 q 438 547 424 560 l 446 551 z "},"r":{"ha":511,"x_min":40,"x_max":469,"o":"m 469 542 q 468 564 468 553 q 467 588 468 576 q 462 647 465 618 q 453 704 458 676 q 449 708 453 708 q 442 711 444 710 q 436 714 439 713 q 415 724 425 721 l 417 724 q 401 728 410 726 q 385 729 393 729 q 347 722 365 729 q 313 703 329 714 q 311 694 307 697 l 315 525 q 324 521 318 517 q 365 541 343 532 q 411 550 386 550 q 417 549 414 550 q 424 549 421 549 q 445 545 435 547 q 463 538 456 543 q 469 542 469 533 m 261 17 l 261 729 q 256 735 261 735 q 162 727 208 735 q 71 701 115 719 l 67 697 q 47 535 54 615 q 40 371 40 454 q 65 56 40 210 q 68 51 65 51 q 160 22 113 32 q 256 11 207 13 q 261 17 261 11 z "},"s":{"ha":774,"x_min":49,"x_max":725,"o":"m 706 503 q 674 597 697 553 q 614 676 650 642 q 532 731 578 710 q 435 756 486 753 q 429 750 429 756 l 429 749 q 430 714 429 731 q 431 678 431 697 q 431 641 431 658 q 432 606 432 624 q 438 600 432 600 l 443 600 q 472 590 460 600 q 490 565 483 579 q 500 533 497 550 q 503 501 503 515 q 508 496 503 496 q 557 498 533 497 q 604 499 581 499 q 651 498 628 499 q 700 496 675 497 q 706 503 706 496 m 725 271 q 708 335 725 306 q 666 386 692 364 q 609 424 640 408 q 547 449 578 440 q 457 474 496 464 q 382 490 418 483 q 371 494 376 493 q 360 496 365 494 q 305 515 328 506 q 279 547 282 524 l 279 550 q 294 587 279 571 q 328 603 308 603 l 333 603 q 339 608 339 603 q 340 643 340 626 q 340 679 340 661 q 341 715 340 697 q 342 750 342 732 q 336 756 342 756 q 239 735 286 754 q 155 682 192 715 q 95 604 118 649 q 71 508 72 560 l 71 510 q 69 500 69 506 q 69 490 69 494 q 86 428 69 456 q 128 378 103 400 q 185 342 154 357 q 246 318 217 326 q 335 294 297 303 q 410 276 374 286 q 415 275 413 275 q 421 274 418 275 q 480 251 454 263 q 508 217 506 240 l 508 211 q 488 165 508 183 q 442 147 468 147 l 436 147 q 431 143 431 147 q 430 119 431 131 q 429 94 429 107 q 429 46 429 71 q 426 -1 429 22 q 432 -7 426 -7 l 438 -7 q 542 14 492 -7 q 631 70 592 35 q 696 153 671 106 q 724 256 721 201 q 724 263 724 260 q 725 271 725 267 m 340 -1 q 339 71 339 35 q 339 144 339 108 q 333 150 339 150 q 274 184 294 153 q 253 251 253 215 l 253 264 q 247 269 253 269 l 213 269 q 54 274 131 269 q 49 268 49 274 q 78 165 53 213 q 142 81 103 118 q 232 22 182 44 q 335 -7 282 -1 q 340 -1 340 -7 z "},"t":{"ha":544,"x_min":46,"x_max":499,"o":"m 499 571 q 497 618 497 594 q 494 667 497 643 q 493 689 493 678 q 492 713 493 701 q 488 718 492 718 q 425 732 456 725 q 363 742 394 739 q 360 822 361 782 q 356 904 358 863 q 350 910 356 910 q 249 892 297 907 q 156 854 200 876 q 153 849 153 851 q 152 821 153 835 q 150 792 151 807 q 149 764 149 778 q 147 738 149 751 q 103 731 124 735 q 58 722 82 728 l 54 717 q 53 693 53 706 q 51 671 53 682 q 47 623 49 647 q 46 574 46 599 q 51 568 46 568 l 58 568 q 100 572 79 571 q 143 575 121 574 q 141 520 142 547 q 140 465 140 493 q 142 365 140 415 q 144 267 143 315 q 145 240 144 253 q 146 214 146 228 l 146 201 q 158 131 146 165 q 192 69 169 97 q 244 25 214 42 q 310 8 274 8 q 328 9 319 8 q 344 13 336 10 q 403 26 376 17 q 454 50 431 36 l 471 57 q 474 63 474 57 l 478 100 q 484 151 481 126 q 489 201 488 176 q 481 207 489 210 q 424 188 449 193 q 408 185 413 185 q 376 202 389 185 q 364 240 364 219 q 365 254 364 249 q 367 350 367 301 q 368 446 368 399 q 367 510 368 478 q 367 576 367 543 q 430 572 399 574 q 494 565 461 569 q 499 571 499 565 z "},"u":{"ha":789,"x_min":56,"x_max":732,"o":"m 732 357 q 690 692 732 529 q 686 696 690 696 q 507 728 597 719 l 501 722 q 513 534 508 626 q 517 346 517 442 q 513 182 517 263 q 503 19 510 101 q 508 14 503 14 q 517 15 513 14 q 525 15 521 15 q 609 26 568 19 q 690 44 650 33 q 694 47 694 44 q 732 357 732 199 m 419 26 l 419 175 q 415 181 419 179 q 408 178 411 182 q 388 165 404 165 l 378 165 q 333 178 353 165 q 299 210 313 190 q 279 253 286 229 q 272 301 272 278 l 272 374 q 275 549 272 463 q 286 724 278 636 q 281 729 286 729 q 189 717 235 725 q 101 699 143 710 l 97 694 q 67 533 78 615 q 56 368 56 451 q 56 340 56 353 q 57 313 57 326 q 73 207 57 260 q 119 109 89 154 q 194 33 150 64 q 294 -3 238 3 l 307 -3 q 364 2 335 -3 q 417 21 393 7 q 419 26 419 24 z "},"v":{"ha":721,"x_min":47,"x_max":672,"o":"m 672 689 q 668 694 672 694 q 574 713 622 706 q 478 726 526 721 l 472 722 q 449 581 461 651 q 421 439 438 510 l 442 372 q 478 251 461 311 q 511 129 496 192 q 517 125 513 125 q 522 129 521 125 q 617 403 575 265 q 672 689 660 542 m 451 21 q 407 188 432 106 q 354 353 382 269 q 297 537 325 446 q 247 724 269 628 l 242 728 q 146 717 193 725 q 51 697 99 708 q 47 692 47 697 q 74 540 56 614 q 116 393 92 465 q 169 251 140 321 q 226 110 197 181 q 246 63 236 86 q 265 18 256 40 q 271 15 265 15 q 372 11 321 11 q 410 12 392 11 q 446 14 428 13 q 451 21 454 14 z "},"w":{"ha":1068,"x_min":56,"x_max":1013,"o":"m 1013 622 q 1012 656 1013 639 q 1010 689 1011 674 q 1006 694 1010 694 q 913 708 960 701 q 821 718 867 714 l 815 713 q 808 574 814 642 q 788 436 801 506 q 831 264 811 350 q 854 88 850 178 q 858 82 854 83 q 865 85 863 81 q 970 345 928 211 q 1013 622 1013 479 m 793 26 q 744 333 785 183 q 656 632 703 483 q 640 679 649 656 q 625 726 632 703 q 619 731 625 731 q 601 731 610 731 q 583 732 592 732 q 544 733 564 733 q 506 733 525 733 q 476 733 490 733 q 447 732 463 733 l 443 728 q 406 602 424 665 q 369 476 388 539 l 361 447 q 403 288 381 367 q 449 131 425 208 q 454 126 450 126 q 460 131 458 126 q 479 218 471 175 q 497 306 488 261 q 535 485 514 394 l 564 364 q 606 191 586 276 q 640 17 626 106 q 646 13 640 13 q 717 15 682 13 q 788 21 751 18 q 793 26 793 21 m 419 22 q 362 192 390 107 q 310 365 333 278 q 272 540 288 451 q 253 717 257 628 l 247 722 q 154 712 201 718 q 63 699 107 706 q 58 693 58 699 q 56 661 57 678 q 56 629 56 644 q 71 472 56 549 q 111 319 86 394 q 169 172 136 244 q 236 31 201 100 q 242 28 236 28 q 414 15 328 17 q 419 22 422 15 z "},"x":{"ha":760,"x_min":39,"x_max":722,"o":"m 321 626 q 311 647 317 635 q 294 676 306 658 q 281 701 288 689 q 268 726 275 714 l 263 729 q 156 717 208 725 q 53 699 104 710 q 49 690 46 696 q 107 581 72 638 q 178 465 142 524 l 176 465 q 181 458 179 461 q 186 450 183 454 q 190 447 188 447 q 196 450 193 447 q 257 535 226 493 q 319 621 288 578 q 321 626 321 622 m 700 690 q 696 699 703 696 q 597 717 647 710 q 493 728 546 724 l 489 725 q 415 617 453 671 q 339 510 376 563 q 180 283 256 396 q 42 57 104 171 q 46 49 39 51 q 144 30 94 38 q 247 18 194 22 q 251 21 249 18 q 333 142 292 83 q 418 261 375 201 q 569 475 496 368 q 700 690 642 582 m 719 54 q 663 155 696 104 q 592 257 629 206 q 580 274 585 265 q 568 290 575 282 l 561 290 q 530 247 546 268 q 499 206 514 226 q 467 163 482 183 q 436 121 451 142 q 436 115 433 118 q 472 67 456 92 q 506 18 489 42 q 510 15 508 15 q 614 26 563 19 q 715 46 665 33 q 719 54 722 49 z "},"y":{"ha":721,"x_min":46,"x_max":676,"o":"m 676 675 q 672 682 676 679 q 482 724 579 711 l 475 719 q 444 565 460 642 q 408 411 428 489 q 422 366 415 389 q 435 319 428 343 q 466 205 450 261 q 497 90 482 149 q 501 86 499 86 q 508 90 506 86 q 517 117 511 104 q 528 144 522 131 q 613 407 572 275 q 676 675 653 539 m 457 -33 q 421 99 440 33 q 383 231 401 164 q 315 476 347 354 q 251 722 282 597 l 246 726 q 147 710 196 719 q 50 685 97 700 q 46 678 46 682 q 92 500 64 586 q 151 326 119 414 q 199 186 175 256 q 242 46 222 117 q 239 13 242 29 q 225 -17 236 -4 l 226 -17 q 169 -33 200 -33 q 156 -33 163 -33 q 143 -31 150 -32 q 129 -29 136 -29 q 117 -28 124 -29 q 103 -26 110 -26 q 89 -24 96 -25 q 82 -29 82 -24 q 84 -47 83 -37 q 86 -62 85 -56 q 92 -118 89 -90 q 100 -174 94 -146 q 104 -176 100 -176 q 115 -179 110 -178 q 126 -182 121 -181 q 190 -196 154 -190 q 219 -201 206 -199 q 249 -204 233 -204 q 321 -192 286 -204 q 384 -158 356 -181 q 432 -104 413 -136 q 457 -33 451 -72 z "},"z":{"ha":728,"x_min":47,"x_max":681,"o":"m 447 719 q 449 726 450 722 q 443 729 447 729 q 400 732 422 732 q 360 732 379 732 q 235 726 297 732 q 113 706 174 719 l 108 701 q 97 647 101 675 q 89 590 92 619 l 85 554 q 90 549 85 549 q 190 558 140 554 q 293 563 240 561 q 296 564 296 563 q 334 603 315 583 q 372 642 353 622 q 410 681 392 661 q 447 719 428 700 m 658 558 q 647 628 653 593 q 633 696 642 663 q 629 700 633 700 q 616 703 622 701 q 604 706 610 704 q 576 711 589 708 q 544 717 564 714 q 540 715 542 717 q 448 617 494 667 q 356 518 401 568 q 201 354 278 435 q 49 190 124 274 l 47 185 q 51 167 50 176 q 54 151 53 158 q 61 100 57 125 q 72 53 65 75 q 76 49 72 49 q 112 40 94 44 q 146 33 129 36 q 159 31 153 32 q 172 28 165 29 q 178 29 176 28 q 279 142 228 86 q 383 253 331 197 q 522 401 454 328 q 657 553 590 475 q 658 558 658 554 m 681 203 q 674 208 681 208 q 550 194 611 199 q 426 189 489 190 l 422 188 q 393 158 407 172 q 365 128 379 143 q 318 76 342 101 q 271 25 294 51 q 269 19 268 22 q 275 15 271 15 q 324 13 299 14 q 375 13 350 13 q 513 19 446 13 q 646 46 579 26 q 650 50 650 46 q 652 57 651 53 q 654 64 653 61 q 670 133 663 99 q 681 203 678 167 z "},"{":{"ha":418,"x_min":44,"x_max":374,"o":"m 372 -108 q 369 -103 372 -104 q 364 -104 367 -101 q 340 -119 353 -112 q 315 -133 328 -126 q 303 -139 304 -139 q 287 -132 293 -139 q 276 -115 281 -125 q 268 -69 269 -87 q 268 -32 267 -50 q 272 31 269 0 q 274 94 274 63 l 274 114 q 269 189 274 150 q 251 263 264 228 q 215 324 239 297 q 154 365 192 351 q 201 396 181 375 q 236 443 222 417 q 258 499 250 469 q 269 557 267 528 l 271 571 l 271 583 q 270 683 271 633 q 269 782 269 732 l 269 790 q 271 813 269 800 q 276 837 272 826 q 285 855 279 847 q 303 863 292 863 q 315 860 310 863 l 331 851 l 331 853 q 364 831 351 842 q 370 831 367 829 q 372 836 374 832 q 368 876 368 857 q 368 893 368 885 q 367 911 368 903 q 331 940 350 929 q 289 960 311 951 l 290 958 q 276 965 283 964 q 260 967 268 967 q 209 946 232 967 q 176 900 186 925 q 156 816 158 854 q 153 739 153 778 l 153 693 q 153 669 153 682 q 151 647 153 658 l 151 610 q 149 546 151 579 q 135 483 146 513 q 105 435 125 454 q 51 411 85 415 q 46 408 47 411 q 47 401 44 404 l 47 329 q 51 324 47 324 q 99 300 81 318 q 130 257 118 282 q 147 203 142 232 q 153 149 153 174 q 154 38 154 93 q 156 -72 154 -17 q 163 -126 156 -97 q 183 -181 169 -156 q 218 -222 197 -206 q 268 -239 239 -239 q 279 -238 275 -239 q 289 -236 283 -237 q 367 -187 336 -218 q 370 -148 369 -168 q 372 -108 371 -128 z "},"|":{"ha":290,"x_min":56,"x_max":211,"o":"m 211 469 q 210 706 211 588 q 206 942 208 824 q 203 947 206 942 q 175 975 196 963 q 139 994 154 988 l 136 994 q 93 974 115 985 q 64 950 71 963 q 62 947 63 947 q 60 943 61 946 l 60 942 q 58 708 60 824 q 56 475 56 593 q 56 261 56 368 q 60 49 57 154 q 62 44 61 46 q 64 39 63 42 q 91 10 69 24 q 131 -10 113 -3 q 176 12 154 -1 q 204 36 199 25 l 203 35 q 204 38 204 36 q 206 40 204 39 q 210 255 208 149 q 211 469 211 361 z "},"}":{"ha":421,"x_min":46,"x_max":374,"o":"m 374 326 l 374 401 q 368 407 374 407 q 317 430 336 410 q 287 478 297 450 q 274 538 276 506 q 271 600 271 571 l 271 724 q 268 795 271 760 q 256 864 265 831 q 219 937 244 906 q 161 968 193 968 q 132 963 144 968 l 133 963 q 92 941 110 954 q 57 913 74 928 q 56 908 56 913 q 55 891 56 900 q 53 872 54 882 q 51 854 51 863 q 50 836 51 846 q 58 832 50 826 q 79 846 68 839 q 108 860 90 853 q 121 864 117 864 q 138 856 131 864 q 148 838 144 849 q 153 813 151 826 q 154 790 154 800 l 154 782 q 154 744 154 763 q 153 708 154 728 q 151 671 151 689 q 151 635 151 654 l 151 615 q 151 586 151 600 q 153 557 151 572 q 162 498 154 528 q 183 442 169 468 q 217 396 197 417 q 265 364 238 375 q 207 322 229 349 q 172 260 185 294 q 156 188 160 226 q 151 115 151 150 l 151 93 q 151 67 151 79 q 153 39 151 54 q 154 10 154 24 q 154 -18 154 -4 q 153 -30 154 -25 q 153 -42 153 -35 q 153 -65 153 -54 q 150 -87 153 -76 q 139 -121 147 -107 q 119 -135 131 -135 q 100 -126 110 -135 l 97 -125 q 76 -112 86 -118 q 57 -99 65 -106 q 50 -98 54 -96 q 47 -104 46 -100 q 51 -144 51 -125 q 51 -161 51 -153 q 53 -179 51 -171 q 128 -232 92 -214 q 158 -237 143 -237 q 206 -221 186 -237 q 240 -179 226 -204 q 261 -126 254 -154 q 268 -74 268 -97 q 269 -18 269 -46 q 269 38 268 10 q 271 92 271 65 q 271 147 271 119 q 276 201 271 172 q 292 254 281 229 q 322 298 303 279 q 369 321 340 317 l 374 326 z "},"~":{"ha":410,"x_min":0,"x_max":410,"o":"m 410 1100 q 407 1122 410 1111 q 394 1146 404 1133 q 392 1149 394 1149 q 367 1151 379 1150 q 340 1151 354 1151 q 321 1151 331 1151 q 303 1153 311 1151 q 297 1151 300 1153 q 297 1146 294 1149 q 299 1140 299 1143 q 291 1131 299 1133 q 276 1128 283 1128 l 274 1128 q 238 1131 256 1128 q 201 1139 219 1135 q 121 1151 161 1150 q 79 1142 100 1150 q 40 1120 58 1133 q 11 1089 22 1107 q 0 1050 0 1071 q 1 1034 0 1042 q 7 1019 3 1026 q 8 1017 7 1017 q 10 1014 10 1015 q 11 1013 10 1014 q 15 1008 14 1010 q 19 1003 17 1006 q 63 999 42 1000 q 108 997 85 997 q 114 1003 114 997 q 132 1019 114 1017 q 169 1015 150 1019 q 206 1007 188 1011 q 244 997 225 1001 q 286 993 264 993 q 330 1002 308 993 q 369 1026 351 1011 q 399 1060 388 1040 q 410 1100 410 1079 z "},"":{"ha":308,"x_min":49,"x_max":257,"o":"m 257 60 q 254 121 257 92 q 247 179 251 150 q 244 183 247 183 q 149 207 201 207 q 71 192 108 207 q 67 188 67 192 q 58 98 60 143 q 54 6 56 53 q 58 0 54 0 l 154 0 q 122 -80 146 -42 q 53 -126 97 -118 q 49 -129 50 -126 q 50 -135 49 -132 l 54 -164 q 56 -178 56 -171 q 57 -193 56 -186 q 61 -197 57 -197 q 68 -198 64 -197 q 75 -199 72 -199 q 128 -188 103 -199 q 175 -160 154 -178 q 213 -120 196 -143 q 239 -74 229 -97 q 253 -4 250 -37 q 257 60 257 29 z "},"":{"ha":1001,"x_min":44,"x_max":957,"o":"m 957 428 q 912 592 951 513 q 810 733 872 672 q 667 832 747 794 q 503 869 588 869 q 337 833 417 869 q 194 736 257 797 q 90 596 131 675 q 44 431 50 517 q 90 266 50 344 q 194 127 131 188 q 337 29 257 67 q 501 -12 417 -8 q 666 28 586 -8 q 809 126 746 65 q 913 264 872 186 q 957 428 953 342 m 897 428 q 863 284 897 353 q 774 163 829 215 q 647 80 718 111 q 501 49 576 49 q 355 81 426 49 q 228 165 283 113 q 138 286 172 217 q 104 431 104 356 q 138 574 104 506 q 228 695 172 643 q 356 779 285 747 q 503 813 428 811 q 506 814 506 813 q 651 777 581 810 q 776 692 721 744 q 864 571 831 639 q 897 428 897 503 m 457 756 q 454 760 458 760 q 385 738 417 756 q 331 692 354 719 q 295 631 308 665 q 282 560 282 596 l 282 554 q 285 550 282 550 q 307 551 296 551 q 329 551 318 551 l 400 551 q 404 554 404 551 q 403 565 403 561 q 403 576 403 569 q 412 628 403 604 q 453 657 421 653 q 454 661 454 657 l 457 756 m 707 338 l 707 343 q 701 385 707 364 q 683 424 694 406 q 656 455 672 442 q 618 472 639 468 q 664 514 646 488 q 682 572 682 540 q 681 589 682 583 q 666 651 679 621 q 631 703 653 681 q 581 741 610 726 q 518 758 551 756 q 514 756 514 760 q 515 732 515 744 q 515 707 515 719 q 516 683 515 696 q 517 658 517 671 q 519 656 517 656 q 550 634 543 653 q 557 596 557 615 l 557 589 q 546 556 557 568 q 518 535 535 543 q 483 524 501 528 q 447 519 464 521 q 442 521 444 521 l 438 521 l 433 518 l 433 410 q 439 407 433 407 q 459 409 450 408 q 479 410 468 410 l 485 410 q 547 390 517 410 q 576 335 576 369 l 576 328 q 574 299 576 314 q 564 272 571 285 q 547 251 557 260 q 519 242 536 243 q 517 239 517 242 q 515 214 515 226 q 515 189 515 201 q 515 164 515 178 q 514 139 515 151 q 518 136 514 133 q 590 157 556 139 q 651 203 625 175 q 692 266 676 231 q 707 338 707 301 m 460 139 q 459 164 460 151 q 458 188 458 176 q 458 213 458 200 q 457 239 458 226 q 454 242 457 242 q 422 251 435 242 q 403 276 410 261 q 393 308 396 290 q 390 342 390 325 l 390 360 q 388 363 390 363 q 369 363 379 363 q 350 364 360 364 q 311 364 331 364 q 272 365 292 364 q 269 363 267 365 q 283 283 269 322 q 322 212 297 244 q 380 158 346 179 q 456 135 414 138 q 460 139 460 135 z "},"":{"ha":586,"x_min":50,"x_max":536,"o":"m 536 33 q 529 85 536 57 q 517 132 524 108 q 504 179 511 156 q 500 183 504 183 q 413 197 457 192 q 322 206 368 203 q 317 200 317 206 q 321 103 319 151 q 322 6 322 54 q 328 0 322 0 q 354 -1 342 0 q 381 -1 367 -1 l 426 -1 q 393 -82 424 -47 q 321 -135 363 -117 l 318 -140 q 317 -176 318 -158 q 315 -211 317 -193 q 322 -217 315 -219 q 333 -212 322 -217 q 350 -206 343 -208 q 355 -203 353 -204 q 357 -201 357 -201 q 428 -165 394 -189 q 485 -111 461 -142 q 522 -44 508 -81 q 536 33 536 -7 m 265 200 q 260 206 265 206 q 172 200 215 203 q 83 188 128 197 q 81 186 82 188 q 79 185 79 185 q 58 96 67 140 q 50 6 50 51 q 54 0 50 0 l 151 0 q 125 -77 147 -39 q 60 -121 103 -115 l 54 -128 q 61 -159 57 -143 q 71 -190 65 -175 q 76 -194 71 -194 q 162 -171 126 -193 q 220 -114 197 -149 q 253 -36 243 -79 q 264 50 264 7 q 264 67 264 60 q 263 81 264 74 q 264 117 264 99 q 264 153 264 135 q 265 177 264 165 q 265 200 265 189 z "},"":{"ha":1161,"x_min":54,"x_max":1108,"o":"m 1108 64 q 1082 109 1101 96 q 1042 133 1063 122 q 1013 135 1026 135 q 985 136 1000 135 q 954 138 969 138 q 925 138 940 138 q 919 135 921 138 q 921 129 918 132 q 948 106 935 118 q 964 79 961 94 q 947 38 961 53 q 918 14 933 24 q 916 8 915 11 q 921 6 917 6 q 981 7 951 6 q 1039 8 1010 8 l 1042 8 q 1081 28 1061 17 q 1108 64 1101 40 m 661 65 q 658 103 661 85 q 653 138 656 121 q 647 142 653 142 q 615 142 631 142 q 583 143 600 143 l 517 143 q 511 139 511 143 q 501 71 501 108 q 508 7 501 39 q 514 3 508 3 l 581 3 q 613 2 597 3 q 646 1 629 1 l 651 6 q 661 65 661 33 m 242 131 q 244 136 244 133 q 239 139 243 139 q 180 138 211 139 q 119 136 149 138 q 83 115 100 128 q 54 81 65 101 q 78 34 61 49 q 115 10 96 19 l 238 7 q 242 10 242 7 q 240 15 243 13 q 215 36 226 24 q 200 64 204 49 q 215 106 203 92 q 242 131 226 119 z "},"":{"ha":765,"x_min":36,"x_max":728,"o":"m 728 510 q 728 524 728 517 q 726 539 728 532 q 724 601 726 571 q 717 663 721 631 q 713 667 717 667 q 615 681 665 676 q 517 690 565 686 l 511 685 q 515 602 514 643 q 517 519 515 561 q 522 514 517 514 q 622 509 572 511 q 722 504 671 507 q 728 510 728 504 m 492 381 q 489 661 492 522 q 481 942 486 800 q 476 947 481 947 q 433 951 454 950 q 388 953 411 953 q 289 949 336 953 l 283 943 q 271 426 271 685 q 274 156 271 290 q 283 -114 278 22 q 289 -119 286 -119 q 342 -124 315 -122 q 396 -125 369 -125 q 435 -125 415 -125 q 475 -122 456 -125 q 481 -117 481 -122 q 490 131 488 8 q 492 381 492 254 m 251 686 q 246 692 251 692 q 147 683 194 689 q 50 671 99 678 l 47 665 q 44 619 44 642 q 40 574 43 597 q 39 543 40 558 q 36 513 38 528 q 42 507 36 507 q 142 511 92 510 q 242 514 192 513 q 247 519 247 514 q 248 547 247 533 q 249 575 249 560 q 249 631 249 603 q 251 686 250 658 z "},"":{"ha":1001,"x_min":44,"x_max":957,"o":"m 957 428 q 912 592 951 513 q 810 733 872 672 q 667 832 747 794 q 503 869 588 869 q 337 833 417 869 q 194 736 257 797 q 90 596 131 675 q 44 431 50 517 q 90 266 50 344 q 194 127 131 188 q 337 29 257 67 q 501 -12 417 -8 q 666 28 586 -8 q 809 126 746 65 q 913 264 872 186 q 957 428 953 342 m 897 428 q 863 284 897 353 q 774 163 829 215 q 647 80 718 111 q 501 49 576 49 q 355 81 426 49 q 228 165 283 113 q 138 286 172 217 q 104 431 104 356 q 138 574 104 506 q 228 695 172 643 q 356 779 285 747 q 503 813 428 811 q 506 814 506 813 q 651 777 581 810 q 776 692 721 744 q 864 571 831 639 q 897 428 897 503 m 739 411 q 738 431 739 422 q 738 451 738 440 l 738 463 q 727 556 738 508 q 694 646 717 604 q 635 716 671 688 q 547 750 599 744 q 544 746 544 750 q 544 721 544 733 q 546 696 544 708 q 547 672 547 685 q 547 646 547 660 q 550 643 547 643 l 558 639 q 573 633 565 636 q 588 624 581 631 q 611 582 606 606 q 617 535 617 558 q 616 512 617 524 q 614 489 615 500 q 613 466 614 478 q 611 443 611 454 q 612 431 611 436 q 613 418 613 425 q 613 397 613 407 q 614 375 614 386 q 613 348 614 361 q 611 321 613 335 q 594 262 608 289 q 550 233 579 235 l 546 229 q 545 195 546 213 q 544 160 544 178 q 543 143 543 151 q 543 126 543 135 q 547 122 543 122 q 635 160 599 131 q 694 229 671 189 q 728 317 717 269 q 739 411 739 365 m 479 128 q 477 177 478 151 q 476 229 476 203 q 474 232 476 232 q 433 249 453 236 l 435 249 q 404 301 411 272 q 397 363 397 331 q 398 385 397 374 q 399 408 399 397 q 400 429 400 419 q 400 451 400 440 l 400 486 q 402 535 400 510 q 412 581 404 560 q 434 619 419 603 q 474 642 449 635 l 476 644 q 478 669 478 657 q 478 696 478 683 q 478 719 478 707 q 479 744 479 732 q 475 747 479 747 q 385 712 422 742 q 323 640 347 682 q 288 547 299 597 q 276 451 276 497 q 275 438 275 444 q 275 425 275 432 q 286 326 275 376 q 321 233 297 276 q 383 160 344 190 q 474 124 421 131 q 479 128 479 124 z "},"":{"ha":503,"x_min":53,"x_max":450,"o":"m 450 801 q 424 882 447 846 q 374 951 400 918 q 360 967 367 960 q 347 983 354 975 q 344 986 347 986 q 294 988 319 988 q 246 988 271 988 q 208 988 226 988 q 172 986 192 988 l 168 983 q 159 973 164 978 q 150 963 154 968 l 150 964 q 91 890 119 928 q 53 803 63 851 q 58 796 53 796 q 192 788 125 789 q 197 790 194 788 q 216 826 207 811 q 233 851 225 840 q 244 869 239 861 q 256 886 250 876 q 286 838 272 863 q 311 790 300 814 q 317 788 314 788 q 382 790 350 789 q 446 796 414 792 q 450 801 450 796 z "},"":{"ha":1001,"x_min":44,"x_max":957,"o":"m 957 428 q 912 592 951 513 q 810 734 872 672 q 667 833 747 796 q 503 869 588 869 q 337 833 417 869 q 194 736 257 797 q 90 596 131 675 q 44 431 50 517 q 90 266 50 344 q 194 127 131 188 q 337 29 257 67 q 501 -12 417 -8 q 666 28 586 -8 q 809 126 746 65 q 913 264 872 186 q 957 428 953 342 m 897 428 q 863 284 897 353 q 774 163 829 215 q 647 80 718 111 q 501 49 576 49 q 355 81 426 49 q 228 165 283 113 q 138 286 172 217 q 104 431 104 356 q 138 574 104 506 q 228 695 172 643 q 356 779 285 747 q 503 813 428 811 q 506 814 506 813 q 651 777 581 810 q 776 692 721 744 q 864 571 831 639 q 897 428 897 503 m 688 636 q 681 686 688 661 l 679 688 q 633 693 658 693 q 589 688 607 693 l 588 685 q 581 635 581 660 q 585 593 581 614 l 588 592 q 611 588 599 589 q 636 586 624 586 q 679 592 661 586 q 681 592 681 592 q 682 593 682 593 q 688 636 688 614 m 646 419 q 643 424 646 424 q 614 419 628 421 q 588 417 600 418 q 585 414 585 417 q 583 368 583 390 q 582 322 583 346 q 583 318 582 319 q 588 319 585 317 q 590 322 589 321 q 594 331 592 324 l 594 329 q 607 340 601 336 q 621 346 613 344 l 632 347 l 638 351 l 639 350 q 642 353 642 347 q 643 363 643 357 q 643 374 643 368 q 645 397 644 385 q 646 419 646 408 m 533 746 q 531 749 533 749 q 483 743 507 749 q 439 725 460 738 q 438 725 439 725 q 438 724 438 725 q 427 615 431 669 q 424 503 424 560 q 436 285 424 393 q 437 283 436 283 q 438 282 438 282 q 518 257 472 261 q 521 260 521 257 q 533 297 522 281 l 533 299 q 533 392 533 346 q 532 485 532 438 q 533 616 532 551 q 533 746 533 681 m 389 636 q 383 686 389 665 l 382 688 q 335 693 360 693 q 313 692 324 693 q 292 688 303 690 l 289 685 q 283 635 283 664 q 288 593 283 614 q 288 592 288 593 q 290 592 289 592 q 314 588 301 589 q 338 586 326 586 q 382 592 364 586 l 383 593 q 389 636 389 614 m 590 219 q 588 222 590 222 q 517 228 556 228 q 515 228 517 228 q 514 226 515 228 q 492 188 503 204 q 487 181 489 185 q 482 174 485 176 q 478 181 481 176 q 474 189 476 185 q 464 206 469 197 q 454 228 458 215 l 450 229 q 396 225 422 229 q 389 224 393 225 q 382 224 385 224 q 379 221 379 224 q 394 176 381 196 q 422 136 407 156 q 432 124 426 132 q 433 123 432 124 q 435 122 433 122 q 457 121 446 121 q 482 121 469 121 l 531 121 q 535 126 532 124 q 569 169 553 147 q 590 219 585 192 m 657 649 q 654 632 657 643 q 653 631 654 631 q 636 628 642 628 q 617 631 628 628 q 615 632 615 631 q 614 649 614 636 q 615 668 614 663 l 617 669 q 635 672 628 672 q 653 669 642 672 l 654 669 q 657 649 657 656 m 358 649 q 357 632 358 638 q 356 631 357 631 q 356 631 356 631 q 338 628 344 628 q 328 628 332 628 q 318 631 324 629 q 317 631 318 631 q 317 632 317 631 q 316 639 317 635 q 315 649 315 643 q 318 668 315 657 l 319 669 q 328 671 324 669 q 336 672 332 672 q 346 672 342 672 q 356 669 350 671 q 358 649 358 663 z "},"":{"ha":390,"x_min":0,"x_max":0,"o":""},"":{"ha":321,"x_min":53,"x_max":268,"o":"m 268 279 q 267 281 268 279 q 265 283 267 282 q 213 316 235 300 q 172 347 192 332 q 135 376 151 361 q 197 425 165 401 q 264 469 229 449 q 267 474 267 472 q 263 522 265 497 q 257 572 260 547 q 251 578 257 581 q 163 527 203 558 q 85 461 124 496 l 57 436 q 56 432 56 435 q 56 421 56 426 q 54 410 56 417 q 53 384 54 396 q 53 358 53 372 q 53 339 53 349 q 54 321 53 329 q 57 317 54 317 q 67 308 63 313 q 76 299 71 303 l 75 299 q 159 229 117 263 q 250 172 201 196 l 257 176 q 264 226 261 200 q 268 279 267 251 z "},"":{"ha":1415,"x_min":35,"x_max":1383,"o":"m 1364 760 q 1344 833 1354 796 q 1321 907 1333 871 q 1317 911 1321 911 q 1168 931 1243 922 q 1018 944 1093 939 l 1013 938 q 1020 885 1017 911 q 1026 832 1024 860 q 1030 804 1029 818 q 1033 778 1031 790 q 1039 774 1033 774 q 1358 753 1201 765 q 1364 760 1367 753 m 1365 486 q 1365 537 1365 513 q 1363 588 1364 561 q 1357 593 1363 593 q 1281 594 1318 594 q 1206 596 1244 594 q 1128 597 1167 597 q 1053 599 1090 597 l 1047 593 l 1047 418 q 1053 413 1047 413 q 1091 413 1072 413 q 1129 414 1110 414 q 1243 415 1188 415 q 1358 418 1300 415 q 1364 424 1364 418 q 1365 454 1365 439 q 1365 486 1365 471 m 1381 218 q 1375 225 1383 225 q 1040 200 1208 207 l 1035 194 q 1024 110 1031 153 q 1011 26 1018 68 q 1017 19 1011 19 q 1174 35 1096 26 q 1328 58 1253 43 q 1331 60 1329 58 q 1332 61 1332 61 q 1381 218 1361 139 m 925 472 q 904 947 925 711 q 899 953 904 953 q 736 957 817 957 l 699 957 q 693 951 693 957 l 693 924 q 620 951 657 939 q 543 975 583 964 q 536 969 536 978 q 529 883 532 926 q 524 794 526 839 q 528 790 524 792 q 618 750 575 775 q 692 689 661 725 l 692 294 q 617 229 660 254 q 526 189 574 204 l 532 185 l 522 185 q 526 140 525 163 q 529 94 526 118 q 533 49 532 71 q 536 4 535 28 q 543 -1 536 -4 q 621 22 583 8 q 693 54 658 35 l 694 50 l 693 35 l 693 18 q 699 13 693 13 l 743 13 q 794 13 768 13 q 847 14 821 13 q 872 15 860 14 q 897 15 885 15 q 903 21 903 15 q 919 246 914 133 q 925 472 925 358 m 453 963 q 447 969 453 969 q 286 919 361 961 q 156 813 211 876 q 68 668 100 749 q 36 503 36 588 l 36 494 q 35 478 35 486 q 35 463 35 471 q 66 299 35 378 q 153 156 97 219 q 283 52 208 93 q 443 4 357 11 q 449 11 449 4 q 436 101 442 56 q 428 192 431 147 q 425 197 428 197 q 347 233 378 206 q 298 297 317 260 q 272 377 279 333 q 264 463 264 421 q 265 478 264 469 q 265 493 265 486 l 265 511 q 274 598 265 553 q 301 681 282 643 q 351 748 319 719 q 428 785 382 776 q 431 788 431 785 q 431 793 432 790 q 431 799 431 796 q 432 804 432 801 q 442 884 438 844 q 453 963 447 924 z "},"":{"ha":308,"x_min":50,"x_max":258,"o":"m 258 875 q 257 894 258 890 q 254 906 256 899 q 252 921 253 913 q 250 936 251 929 l 244 939 l 235 939 q 154 917 189 939 q 97 859 119 894 q 62 780 74 824 q 50 693 50 736 q 54 646 50 668 l 54 647 q 56 629 56 638 q 57 611 56 621 q 61 565 58 586 q 64 561 61 561 q 164 536 110 536 q 203 540 183 536 q 240 551 222 543 q 242 556 242 551 q 251 645 249 600 q 254 735 253 690 q 249 740 254 740 q 203 739 225 739 q 157 739 181 739 q 165 781 158 760 q 185 822 172 803 q 214 853 197 840 q 253 869 231 867 q 258 875 258 869 z "},"":{"ha":308,"x_min":47,"x_max":257,"o":"m 257 757 q 253 840 257 799 q 243 924 249 882 q 240 929 243 929 q 150 951 199 951 q 108 947 129 951 q 68 935 88 942 q 65 929 65 935 q 63 906 64 918 q 61 883 63 894 q 56 817 58 850 q 53 751 53 785 q 58 746 53 746 l 153 746 q 141 703 149 725 q 122 665 133 682 q 94 635 110 647 q 56 622 78 624 q 51 615 47 622 q 53 601 53 608 q 56 586 54 594 q 57 571 57 579 q 58 556 57 564 q 61 550 58 550 q 72 549 67 549 q 85 549 79 549 q 153 567 121 549 q 208 617 185 586 q 244 684 231 647 q 257 757 257 721 z "},"":{"ha":588,"x_min":50,"x_max":536,"o":"m 536 740 q 531 746 536 746 l 478 746 q 454 746 467 746 q 432 744 443 746 q 460 821 435 785 q 525 869 485 857 q 529 874 529 869 q 525 898 529 892 q 518 915 521 904 q 515 927 515 922 q 511 939 514 932 l 506 943 q 418 915 454 940 q 360 853 382 890 q 328 769 338 815 q 318 679 318 724 q 318 664 318 671 q 319 649 318 657 q 319 596 319 622 q 317 544 318 569 q 322 539 317 539 q 331 540 326 539 q 339 540 335 540 q 420 545 379 543 q 501 557 461 547 q 506 561 506 557 q 528 649 519 604 q 536 740 536 694 m 268 956 q 261 961 268 964 q 186 928 224 949 q 118 878 149 907 q 69 813 88 849 q 50 733 50 776 l 50 719 q 58 641 50 679 q 78 565 67 603 q 82 561 78 561 q 170 547 126 551 q 260 539 214 542 q 265 544 265 539 q 263 609 264 576 q 263 674 263 642 q 262 706 263 690 q 261 739 261 722 q 256 744 261 744 q 229 745 242 744 q 203 746 217 746 l 154 746 q 190 828 157 793 q 263 885 222 863 q 265 889 265 888 q 265 907 265 899 q 267 924 265 915 q 268 939 268 931 q 268 956 268 947 z "},"":{"ha":585,"x_min":50,"x_max":535,"o":"m 535 779 q 529 832 535 810 q 527 842 528 838 q 525 851 526 846 q 517 888 521 869 q 506 926 513 907 q 504 928 506 926 q 501 929 503 929 q 413 944 457 939 q 322 953 368 950 q 317 947 317 953 q 321 850 319 899 q 322 753 322 801 q 328 747 322 747 l 381 747 q 403 747 392 747 q 426 746 415 746 q 394 665 426 699 q 321 608 361 631 q 317 604 317 608 l 317 569 q 316 552 317 560 q 315 535 315 544 q 322 529 315 526 q 406 563 367 539 q 473 619 444 586 q 518 694 501 653 q 535 779 535 735 m 265 947 q 260 953 265 953 q 172 947 215 951 q 83 933 128 943 q 79 929 79 933 q 58 842 67 886 q 50 751 50 797 q 54 746 50 746 l 153 746 q 124 671 150 706 q 58 625 99 636 q 54 619 54 625 l 54 617 q 61 585 57 601 q 71 554 65 569 q 76 550 72 550 q 154 572 119 553 q 213 622 189 592 q 251 690 238 653 q 264 768 264 728 q 264 782 264 776 q 263 796 264 789 q 264 833 264 815 q 264 872 264 853 q 265 910 264 892 q 265 947 265 929 z "},"":{"ha":463,"x_min":51,"x_max":410,"o":"m 410 476 q 392 541 407 510 q 353 596 376 572 q 299 634 329 619 q 235 649 268 649 q 169 635 201 649 q 113 597 138 621 q 71 542 88 574 q 51 478 54 511 q 69 412 53 443 q 111 356 86 381 q 168 317 136 332 q 233 303 200 303 q 298 317 267 303 q 353 356 329 332 q 393 412 378 381 q 410 476 408 443 z "},"":{"ha":769,"x_min":56,"x_max":714,"o":"m 714 413 q 703 453 714 433 q 671 488 692 474 q 527 493 599 492 q 385 494 456 494 q 242 493 313 494 q 99 488 171 492 l 96 486 q 65 454 74 475 q 56 413 56 433 q 65 374 56 393 q 94 342 74 354 q 383 333 238 333 q 669 342 525 333 q 703 374 693 356 q 714 413 714 393 z "},"":{"ha":1031,"x_min":58,"x_max":971,"o":"m 971 371 q 949 417 965 403 q 914 442 933 432 q 715 447 814 446 q 515 447 615 447 q 315 447 415 447 q 115 442 215 446 l 113 440 q 106 435 110 438 q 99 431 101 433 q 75 413 86 422 q 58 388 64 403 q 79 342 63 357 q 114 318 96 328 q 320 310 218 313 q 526 308 422 308 q 720 310 624 308 q 913 315 817 313 q 948 336 932 324 q 971 371 964 349 z "},"":{"ha":518,"x_min":53,"x_max":465,"o":"m 465 894 q 464 919 465 913 q 463 925 463 922 q 461 932 463 929 l 457 943 q 443 969 454 956 q 442 971 442 971 q 440 974 442 972 q 435 974 438 976 q 398 978 417 976 q 360 981 379 979 q 356 974 353 981 q 357 964 357 969 q 356 953 357 957 l 356 954 q 332 933 344 933 q 296 942 314 936 q 258 958 278 949 q 219 976 239 968 q 175 985 199 985 q 129 974 151 985 q 90 947 107 964 q 63 910 74 931 q 53 867 53 889 q 58 833 53 849 q 66 819 61 826 q 78 801 71 811 q 78 799 79 800 q 79 797 78 799 q 93 796 86 796 q 107 796 100 796 q 135 792 121 793 q 163 790 150 792 q 168 797 171 790 q 164 814 164 806 q 171 833 164 825 q 189 842 178 842 l 193 842 q 232 833 213 842 q 271 815 251 825 q 313 797 292 804 q 358 789 333 790 q 399 799 379 790 q 433 823 418 808 q 456 856 447 838 q 465 894 465 874 z "},"":{"ha":1136,"x_min":51,"x_max":1086,"o":"m 1067 847 q 1064 849 1065 849 q 1065 847 1064 849 l 1067 847 m 1083 431 q 1084 437 1086 433 q 1078 439 1082 440 q 1065 438 1074 438 q 1049 441 1057 438 q 1042 451 1042 444 q 1043 457 1042 454 q 1069 538 1061 496 q 1078 624 1078 579 q 1068 718 1078 671 q 1039 806 1058 765 l 1036 811 q 1044 819 1036 817 q 1058 821 1051 821 l 1064 821 q 1067 820 1067 821 q 1069 819 1068 819 l 1071 819 q 1078 819 1074 817 q 1081 825 1083 822 q 1072 837 1078 829 q 1065 847 1067 844 q 1028 851 1047 850 q 992 854 1008 853 q 969 856 981 856 q 944 858 957 857 q 939 853 939 858 q 900 678 933 761 q 824 518 867 596 q 763 656 796 590 q 696 788 729 722 q 674 828 685 808 q 651 869 663 849 l 646 872 q 611 873 628 872 q 576 874 594 874 l 506 874 q 500 868 500 874 l 499 846 q 506 840 499 838 q 519 842 511 842 q 550 835 535 842 q 565 813 565 828 q 565 808 565 810 q 564 804 564 807 l 564 446 q 542 423 564 426 q 504 419 521 419 q 499 414 499 419 l 499 410 q 501 400 500 404 q 501 392 501 396 q 507 386 501 386 l 586 386 q 624 385 606 386 q 663 385 643 385 q 668 390 668 385 l 668 392 q 671 413 671 403 q 665 418 671 418 l 656 418 q 626 423 640 418 q 608 446 611 428 q 610 506 610 476 q 610 565 610 535 l 610 756 l 632 711 q 710 553 672 632 q 768 392 749 475 q 774 388 768 388 l 788 389 l 794 389 q 799 392 796 389 q 905 569 857 476 q 972 764 953 661 q 990 624 990 696 q 984 540 990 582 q 963 457 978 497 q 936 433 956 439 q 897 426 917 428 q 892 422 892 426 l 888 410 l 883 399 q 889 393 881 393 q 924 396 907 396 q 960 397 942 396 q 1012 401 986 399 q 1065 407 1038 404 q 1069 410 1069 407 q 1076 420 1072 415 q 1083 431 1079 425 m 474 867 l 468 872 q 290 865 378 869 q 113 850 201 861 q 108 847 108 850 q 79 794 93 821 q 54 742 65 768 q 60 735 51 735 l 71 735 q 76 734 74 735 q 81 733 78 733 q 86 738 86 733 q 106 778 90 763 q 142 805 121 794 q 187 820 163 815 q 235 825 211 825 q 200 622 200 724 q 224 454 200 538 q 224 451 224 451 q 225 450 225 451 q 215 437 225 440 q 194 433 206 433 q 187 434 190 433 q 181 435 183 435 q 176 426 171 435 q 181 418 179 422 q 186 406 183 414 q 192 401 186 401 q 251 398 221 399 q 313 394 281 397 l 374 390 q 379 396 379 390 q 378 398 379 397 q 378 401 378 399 q 375 418 378 410 q 369 422 375 422 q 333 428 351 424 q 307 453 314 433 q 288 625 288 542 q 294 728 288 676 q 315 829 300 781 l 331 829 q 341 830 336 829 q 350 831 346 831 q 372 829 361 831 q 393 825 382 828 q 424 799 417 815 q 432 767 432 783 l 432 760 l 431 750 q 438 743 431 743 q 449 744 444 744 q 461 744 454 744 q 467 750 467 744 q 469 808 468 779 q 474 867 471 838 z "},"":{"ha":390,"x_min":0,"x_max":0,"o":""},"":{"ha":325,"x_min":54,"x_max":271,"o":"m 271 375 q 270 404 271 390 q 268 432 269 418 q 267 435 268 433 q 267 436 267 436 l 235 465 q 160 528 199 499 q 72 576 121 558 q 65 572 65 579 q 60 523 63 547 q 57 475 58 499 q 60 471 57 474 q 111 436 88 454 q 160 399 135 418 q 174 388 167 393 q 189 375 181 382 l 174 365 q 120 324 147 344 q 57 283 93 304 l 54 278 l 58 238 q 60 210 60 225 q 64 181 61 196 q 69 176 64 174 q 165 228 122 194 q 249 299 208 263 l 247 299 q 256 307 253 303 q 265 315 260 311 q 268 319 268 315 q 270 347 269 333 q 271 375 271 361 z "},"":{"ha":1379,"x_min":44,"x_max":1333,"o":"m 1333 317 l 1333 336 q 1301 488 1333 415 q 1213 618 1268 561 q 1085 710 1157 675 q 933 750 1013 746 l 935 750 q 921 751 928 751 q 906 751 914 751 q 794 727 847 751 q 694 667 740 703 q 601 725 650 700 q 493 750 551 750 l 489 750 q 483 744 483 750 q 475 667 479 706 q 468 589 471 628 q 474 583 468 583 q 528 564 507 581 q 560 522 549 547 q 575 467 571 497 q 579 410 579 438 q 578 395 579 403 q 578 381 578 388 q 579 358 579 369 q 579 336 579 347 q 575 280 579 308 q 560 227 571 251 q 528 186 549 203 q 474 165 507 169 q 469 160 469 165 q 474 126 472 143 q 476 89 475 108 q 485 1 478 46 q 490 -3 485 -3 q 598 23 547 -1 q 689 83 649 47 q 789 18 731 39 q 910 -3 847 -3 q 923 -2 917 -3 q 936 -1 929 -1 q 1049 19 994 0 q 1151 69 1103 38 q 1240 142 1200 100 q 1311 233 1281 185 q 1312 238 1314 236 q 1307 240 1310 240 q 1272 239 1290 239 q 1238 239 1256 239 q 1190 239 1214 239 q 1144 240 1168 239 q 1124 241 1133 240 q 1104 242 1115 242 q 1100 239 1103 242 q 1041 187 1078 206 q 964 168 1004 168 q 956 167 960 168 q 949 167 953 167 q 885 185 913 167 q 838 231 857 203 q 810 294 819 260 q 801 361 801 328 q 802 371 801 367 q 803 381 803 375 q 802 391 803 386 q 801 401 801 396 q 810 467 801 433 q 835 528 818 500 q 878 573 853 556 q 940 590 904 590 l 954 590 q 1003 581 979 590 q 1048 556 1028 572 q 1083 519 1068 540 q 1104 474 1097 499 l 913 478 q 907 474 907 478 q 902 434 904 454 q 900 393 900 414 l 900 381 q 901 343 900 361 q 907 310 903 325 q 913 306 907 306 q 1120 307 1017 306 q 1328 311 1224 308 q 1333 317 1333 311 m 415 8 q 407 54 411 33 q 398 111 401 83 q 392 165 394 139 q 386 171 392 171 q 329 192 353 175 q 290 235 306 210 q 267 290 275 260 q 260 350 260 319 q 260 363 260 357 q 261 376 260 369 q 260 388 260 383 q 260 400 260 393 q 267 460 260 429 q 290 515 275 490 q 330 558 306 540 q 388 581 354 576 l 392 586 q 402 662 396 624 q 415 739 408 700 q 410 746 418 746 q 274 705 339 738 q 157 622 208 672 q 75 506 106 571 q 44 369 44 442 q 76 234 44 297 q 158 122 107 171 q 275 41 210 72 q 410 1 340 10 q 415 8 415 1 z "},"":{"ha":899,"x_min":31,"x_max":868,"o":"m 674 1033 q 667 1110 671 1072 q 660 1186 664 1147 q 656 1192 660 1192 q 576 1203 615 1199 q 494 1210 536 1208 l 489 1204 q 490 1164 490 1185 q 490 1125 490 1144 q 491 1085 490 1106 q 492 1046 492 1065 q 497 1040 492 1040 q 583 1037 540 1040 q 668 1028 625 1033 q 674 1033 674 1028 m 368 1201 q 364 1207 368 1207 q 283 1200 322 1204 q 204 1188 243 1196 l 200 1182 q 192 1107 196 1144 q 185 1032 188 1069 q 192 1026 185 1026 q 277 1035 236 1033 q 360 1040 318 1038 q 365 1046 365 1040 q 366 1073 365 1060 q 367 1099 367 1086 q 367 1149 367 1124 q 368 1201 367 1175 m 865 926 q 861 935 868 935 q 639 964 753 953 l 633 961 q 615 923 624 942 q 596 885 606 904 q 531 753 564 818 q 464 624 497 689 l 464 618 q 491 563 478 590 q 518 508 504 536 q 546 453 532 481 q 574 397 560 425 q 582 397 576 389 q 728 660 657 528 q 865 926 799 792 m 565 367 q 546 403 556 385 q 526 440 536 421 q 394 701 460 571 q 265 964 328 831 l 261 967 q 147 956 203 963 q 38 940 92 950 q 33 932 31 940 q 171 652 96 793 q 329 368 246 511 q 333 198 331 282 q 339 29 336 114 q 344 24 339 24 q 438 19 390 19 q 491 20 464 19 q 546 22 518 21 q 551 28 551 22 q 560 197 557 111 q 565 367 563 282 z "},"":{"ha":319,"x_min":56,"x_max":265,"o":"m 261 733 q 258 818 260 775 q 253 901 256 861 q 211 941 236 928 q 158 954 186 954 q 113 944 135 954 q 76 913 92 933 l 75 910 q 73 868 74 889 q 71 825 72 847 q 69 782 69 803 q 67 740 68 761 q 69 735 67 738 q 75 735 72 732 q 158 757 114 757 q 253 729 210 757 q 261 733 261 724 m 265 340 l 265 357 q 260 476 265 417 q 247 593 254 535 q 242 636 244 615 q 236 679 239 657 q 232 685 236 685 q 198 694 215 692 q 161 696 181 696 q 93 688 128 696 q 90 682 90 688 q 83 628 88 654 q 75 574 78 601 q 61 466 67 519 q 56 356 56 413 l 56 342 q 59 206 56 274 q 65 69 63 138 q 110 30 83 43 q 164 17 136 17 q 213 28 189 17 q 253 64 238 40 q 262 203 258 135 q 265 340 265 271 z "},"":{"ha":858,"x_min":40,"x_max":819,"o":"m 810 478 q 774 572 799 526 q 716 655 750 618 q 638 718 682 692 q 543 754 594 744 q 538 750 538 754 l 536 750 l 540 639 q 541 606 542 622 q 542 574 540 589 l 543 569 q 581 528 567 554 q 600 475 594 503 q 606 471 600 471 l 804 471 q 810 478 813 471 m 817 286 q 811 293 819 293 l 613 293 q 607 289 607 293 q 583 231 599 258 q 542 188 568 203 q 539 183 539 185 l 539 58 q 538 32 539 44 q 538 7 538 19 l 539 7 l 539 6 q 544 0 539 0 q 642 37 597 10 q 721 102 686 64 q 780 188 756 140 q 817 286 804 236 m 503 360 q 494 878 503 617 q 489 883 494 883 l 482 883 q 440 885 460 883 q 397 886 419 886 l 392 881 q 388 411 388 644 q 388 141 388 275 q 390 -129 389 7 q 396 -135 390 -135 l 419 -135 q 454 -135 438 -135 q 488 -133 471 -135 q 493 -128 493 -133 q 501 116 499 -6 q 503 360 503 238 m 343 756 l 332 564 q 278 484 292 533 q 264 388 264 435 l 264 379 q 268 328 264 354 q 282 276 272 301 q 307 228 292 250 q 344 192 322 206 q 344 190 344 190 q 346 189 346 190 q 346 142 346 165 q 347 94 346 118 q 349 47 349 71 q 349 1 349 25 q 342 -4 349 -4 q 223 42 278 8 q 127 125 168 76 q 63 234 86 174 q 40 358 40 294 l 40 375 q 63 504 40 442 q 126 618 86 567 q 222 706 167 669 q 343 756 278 743 z "},"":{"ha":814,"x_min":44,"x_max":771,"o":"m 749 626 q 717 741 742 685 q 654 843 693 797 q 564 919 615 889 q 450 953 513 949 q 444 947 444 953 q 445 910 444 928 q 447 875 446 893 q 449 838 449 856 q 449 800 449 819 q 453 794 449 794 q 505 769 482 786 q 544 728 528 751 q 567 676 560 704 q 575 618 575 647 l 575 600 q 582 594 575 594 q 610 599 597 597 q 638 604 622 601 q 690 613 665 608 q 743 619 715 617 l 749 626 m 771 324 q 771 333 771 328 q 769 343 771 339 q 764 347 769 347 q 683 340 724 343 q 601 336 642 338 q 596 331 596 336 l 596 319 q 593 271 596 296 q 581 224 590 246 q 555 188 572 203 q 510 172 538 174 q 467 180 486 171 q 432 204 449 189 l 432 206 q 442 245 438 225 q 446 285 446 265 l 446 292 q 439 333 443 313 q 428 374 435 354 q 454 374 442 374 q 479 375 467 374 q 497 376 489 376 q 514 376 506 376 q 531 376 524 376 q 549 375 539 376 q 554 381 554 375 q 555 413 554 397 q 556 444 556 428 l 556 508 q 550 514 556 514 q 462 516 506 515 q 374 517 418 517 q 328 595 349 554 q 307 682 307 636 l 307 686 q 316 728 307 708 q 341 763 325 749 q 377 787 357 778 q 419 796 397 796 q 424 801 424 796 l 424 826 q 423 856 424 842 q 422 886 422 871 q 422 917 421 901 q 422 949 422 933 q 417 954 422 954 q 313 932 364 951 q 219 878 261 913 q 151 797 178 844 q 119 694 124 750 q 118 675 118 688 q 131 592 118 632 q 161 517 143 553 l 125 517 q 100 517 113 517 q 76 515 89 517 l 71 510 l 71 388 q 76 382 71 382 q 109 381 93 382 q 142 379 125 381 q 187 377 164 378 q 233 376 210 376 q 236 370 235 374 q 239 364 238 367 q 256 327 247 344 q 268 290 264 310 q 249 295 260 293 q 229 300 239 297 q 222 296 222 303 q 223 260 222 278 q 225 225 224 243 q 226 207 225 215 q 226 189 226 199 q 227 186 226 188 q 228 185 228 185 q 231 183 229 183 q 235 181 233 182 q 251 169 242 175 q 263 153 261 164 l 263 150 q 253 133 263 139 q 236 126 244 126 q 231 121 231 126 q 232 103 232 111 q 233 85 232 94 q 235 50 235 67 q 239 17 236 33 q 243 11 239 11 q 306 24 275 11 q 360 57 336 36 q 436 19 396 35 q 518 4 476 4 l 531 4 q 626 37 583 10 q 699 104 669 64 q 747 194 729 144 q 768 292 765 243 q 769 295 768 293 q 769 299 769 297 q 771 311 771 306 q 771 324 771 317 m 218 21 q 213 72 215 47 q 208 125 211 97 q 206 131 208 131 q 185 144 194 136 q 172 164 175 151 l 172 167 q 180 180 172 176 q 199 186 188 183 q 203 192 203 186 l 203 193 q 201 247 203 221 q 197 300 199 274 q 192 306 197 306 q 183 306 188 306 q 175 307 179 307 q 128 300 151 307 q 87 280 106 293 q 56 247 68 267 q 44 203 44 228 q 44 193 44 199 q 46 182 44 188 q 105 76 57 119 q 211 15 153 33 q 218 21 218 13 z "},"":{"ha":1115,"x_min":38,"x_max":1069,"o":"m 1049 658 q 997 776 1032 721 q 914 874 963 832 q 806 941 865 915 q 679 969 746 967 l 674 964 q 675 924 675 943 q 676 883 675 904 q 678 842 678 863 q 679 800 678 821 q 685 796 679 796 q 738 782 714 794 q 781 749 763 769 q 813 704 800 729 q 832 653 825 679 q 838 649 832 649 q 940 651 889 651 q 1043 651 992 651 q 1049 658 1051 651 m 1067 338 q 1061 344 1069 344 l 997 344 q 921 344 960 344 q 846 346 883 344 q 840 340 840 346 q 825 281 838 310 q 792 228 813 251 q 745 191 772 206 q 685 175 718 176 q 681 169 681 175 q 679 128 679 149 q 678 85 679 107 q 676 43 676 64 q 674 0 675 22 q 679 -6 674 -6 q 813 29 749 0 q 928 103 876 58 q 1015 208 979 149 q 1067 338 1051 268 m 947 469 q 942 474 947 474 q 727 471 833 472 q 514 469 621 469 q 451 469 482 469 q 390 471 422 469 l 390 481 q 390 495 390 488 q 389 510 389 503 q 390 525 389 517 q 390 540 390 533 l 474 540 q 942 536 708 540 q 947 540 949 536 q 927 580 940 561 q 896 618 914 599 q 892 621 896 621 q 688 631 789 628 q 483 635 586 635 l 407 635 q 433 696 417 667 q 473 747 450 725 q 526 783 496 769 q 593 796 556 796 q 596 797 594 796 q 597 797 597 797 l 600 800 q 601 885 601 842 q 601 968 601 928 q 596 974 601 974 q 456 943 522 971 q 334 868 389 915 q 238 758 279 821 q 176 626 197 696 q 135 625 156 626 q 96 622 115 624 l 92 621 q 42 542 57 585 q 47 538 38 535 l 157 539 q 155 515 156 526 q 154 490 154 503 l 154 482 l 154 472 q 99 474 126 474 q 44 475 72 474 l 39 469 q 58 430 46 450 q 89 390 71 410 q 90 390 89 390 q 93 389 92 389 q 129 387 111 388 q 165 385 147 386 q 222 240 182 308 q 318 117 261 171 q 446 31 375 64 q 596 -6 517 -1 q 601 0 601 -6 l 601 171 q 596 176 601 176 q 521 194 554 178 q 464 239 488 211 q 424 302 440 267 q 400 376 408 338 q 453 375 428 375 q 507 375 479 375 q 889 388 697 375 q 893 389 893 388 q 947 469 935 429 z "},"":{"ha":836,"x_min":40,"x_max":796,"o":"m 796 756 q 768 904 786 828 q 764 908 768 908 q 588 946 679 933 l 581 940 q 585 885 583 913 q 589 831 586 858 q 591 805 590 818 q 593 778 592 792 q 599 772 593 772 q 694 763 647 768 q 789 749 740 757 q 796 756 796 749 m 243 940 q 238 946 243 946 q 152 931 193 940 q 71 911 111 922 l 67 907 q 55 846 60 876 q 44 783 50 815 l 40 758 q 47 751 40 751 q 135 763 92 758 q 224 771 179 768 q 229 776 229 771 q 235 859 232 818 q 243 940 239 900 m 535 486 q 532 717 535 603 q 524 947 529 831 q 518 953 524 953 q 460 957 489 956 q 404 958 432 958 q 317 954 358 958 l 311 949 q 301 713 304 831 q 297 478 297 596 q 310 25 297 251 q 315 19 310 19 q 408 15 361 15 q 462 16 435 15 q 517 18 489 17 q 522 24 522 18 q 535 486 535 254 m 613 -57 q 608 -50 613 -50 q 542 -44 575 -46 q 476 -40 508 -42 q 471 -43 474 -40 q 429 -115 454 -78 q 421 -129 425 -122 q 413 -142 417 -136 q 405 -128 410 -135 q 396 -112 400 -121 q 378 -81 388 -97 q 358 -42 368 -65 l 353 -39 q 301 -41 326 -39 q 250 -46 275 -43 q 236 -47 243 -47 q 224 -49 231 -47 q 219 -54 219 -49 q 247 -137 222 -100 q 300 -211 271 -175 q 310 -224 306 -218 q 318 -235 314 -229 q 322 -237 318 -237 q 367 -240 346 -240 q 411 -240 388 -240 q 456 -240 433 -240 q 501 -239 478 -240 q 510 -229 508 -232 q 574 -149 543 -190 q 613 -57 604 -108 m 751 814 q 746 782 751 794 q 744 779 746 779 q 729 776 738 776 q 713 776 721 776 q 694 777 703 776 q 675 779 685 778 q 674 780 675 779 q 674 782 674 781 q 669 814 669 796 q 671 833 669 824 q 675 851 672 842 l 676 853 q 710 857 693 857 q 727 856 718 857 q 744 854 736 856 q 745 853 744 854 q 746 851 746 853 q 750 834 749 843 q 751 814 751 825 m 196 814 q 190 782 196 794 q 189 779 190 779 q 174 776 182 776 q 157 776 165 776 q 138 777 147 776 q 119 779 129 778 q 119 780 119 779 q 118 782 118 781 q 114 814 114 796 q 115 833 114 824 q 119 851 117 842 l 121 853 q 138 855 129 853 q 154 857 146 857 q 172 856 163 857 q 189 854 181 856 q 190 853 189 854 q 190 851 190 853 q 194 834 193 843 q 196 814 196 825 z "},"":{"ha":1001,"x_min":44,"x_max":957,"o":"m 957 428 q 912 592 951 513 q 810 733 872 672 q 667 832 747 794 q 503 869 588 869 q 337 833 417 869 q 194 736 257 797 q 90 596 131 675 q 44 431 50 517 q 90 266 50 344 q 194 127 131 188 q 337 29 257 67 q 501 -12 417 -8 q 666 28 586 -8 q 809 126 746 65 q 913 264 872 186 q 957 428 953 342 m 897 428 q 863 284 897 353 q 774 163 829 215 q 647 80 718 111 q 501 49 576 49 q 355 81 426 49 q 228 165 283 113 q 138 286 172 217 q 104 431 104 356 q 138 574 104 506 q 228 695 172 643 q 356 779 285 747 q 503 813 428 811 q 506 814 506 813 q 651 777 581 810 q 776 692 721 744 q 864 571 831 639 q 897 428 897 503 m 707 458 q 706 481 707 469 q 701 504 704 493 l 700 506 q 657 510 676 510 q 615 504 633 510 l 614 503 q 608 456 608 482 q 613 417 608 435 l 614 415 q 637 411 625 413 q 660 410 649 410 q 681 411 671 410 q 700 415 690 413 l 701 417 q 707 458 707 435 m 578 526 q 576 547 578 540 q 576 549 576 547 q 575 550 576 550 q 532 558 553 554 q 488 561 511 561 l 479 561 q 478 560 478 561 q 476 558 478 558 q 442 390 475 471 q 350 246 410 308 q 351 240 347 240 q 385 238 368 238 q 419 235 403 238 l 446 235 l 447 235 q 472 267 458 246 q 481 278 475 269 q 548 395 518 333 q 578 526 578 457 m 429 457 q 428 481 429 469 q 424 504 426 493 l 422 506 q 379 510 399 510 q 338 504 356 510 l 336 503 q 331 456 331 482 q 335 417 331 435 l 336 415 q 359 411 347 413 q 382 410 371 410 q 403 411 393 410 q 422 415 413 413 l 424 417 q 429 458 429 435 l 429 457 m 633 199 q 631 203 635 203 q 489 189 563 189 q 415 193 453 189 q 340 204 378 197 q 338 200 338 204 q 343 164 340 182 q 349 129 346 146 l 350 126 q 488 103 418 103 q 622 126 556 103 l 624 128 q 629 163 626 144 q 633 200 632 181 l 633 199 m 693 469 q 690 453 693 464 l 690 451 q 674 450 685 450 q 656 451 661 450 q 654 451 654 451 q 654 453 654 453 q 653 468 653 458 q 654 488 653 482 l 656 489 q 672 490 661 490 q 690 489 683 490 l 690 488 q 693 469 693 476 m 415 469 q 413 453 415 464 l 413 451 q 396 450 407 450 q 378 451 383 450 q 376 451 376 451 q 376 453 376 453 q 375 468 375 458 q 376 488 375 482 l 378 489 q 386 490 382 489 q 394 490 390 490 q 413 489 406 490 l 413 488 q 415 469 415 476 z "},"":{"ha":843,"x_min":49,"x_max":796,"o":"m 757 711 q 726 806 749 761 q 668 885 703 850 q 590 944 633 921 q 494 971 546 967 l 499 967 l 489 967 q 490 933 490 951 q 492 899 490 917 q 493 864 493 881 q 493 829 493 847 q 497 824 493 824 q 555 792 531 818 q 579 732 579 767 q 585 726 579 726 q 668 717 626 722 q 750 704 710 711 q 757 711 757 701 m 796 394 l 796 407 q 777 487 796 451 q 729 551 758 522 q 664 601 700 579 q 594 640 628 624 q 533 668 560 657 q 481 690 506 679 q 456 701 468 696 q 433 711 444 706 q 375 744 397 726 q 350 786 353 761 q 378 818 354 810 q 424 829 401 826 q 428 835 428 829 l 428 971 q 422 976 428 976 l 417 976 q 324 961 371 976 q 238 918 276 946 q 174 851 199 890 q 150 763 150 811 l 150 761 l 150 749 q 166 683 150 714 q 210 632 182 651 q 150 605 179 622 q 99 563 121 588 q 63 509 76 539 q 49 444 49 479 l 49 436 q 67 354 49 390 q 114 289 85 318 q 179 238 143 260 q 251 200 215 217 q 307 174 281 185 q 357 153 333 163 q 391 139 374 146 q 425 124 408 132 q 486 85 461 106 q 511 38 511 65 q 483 -12 508 7 q 431 -32 458 -31 q 425 -37 425 -32 l 425 -110 q 424 -147 425 -129 q 424 -182 424 -164 q 429 -187 424 -187 q 533 -167 481 -187 q 626 -111 585 -146 q 692 -30 667 -76 q 718 71 718 17 l 718 83 q 700 156 718 121 q 654 215 682 190 q 708 244 682 226 q 753 284 733 261 q 784 335 772 307 q 796 394 796 363 m 350 -179 q 349 -156 350 -168 q 349 -132 349 -143 q 347 -85 347 -108 q 346 -37 346 -61 q 343 -32 346 -32 q 267 9 299 -25 q 235 88 235 43 l 235 96 l 233 104 q 228 108 233 108 q 175 115 200 111 q 124 122 150 118 q 92 126 108 125 q 61 131 76 128 q 54 125 54 131 q 55 119 54 122 q 56 114 56 117 q 56 102 56 107 q 58 92 57 97 l 58 93 q 90 -9 64 39 q 154 -93 115 -57 q 242 -153 193 -129 q 344 -185 292 -176 q 350 -179 350 -185 m 603 374 q 578 326 603 343 q 525 297 553 308 q 434 340 479 318 q 344 382 389 361 q 313 397 329 389 q 281 417 296 406 q 258 442 267 428 q 249 474 249 456 l 249 475 q 256 501 249 490 q 276 520 264 513 q 304 533 289 528 q 333 542 319 538 q 335 542 335 542 q 338 543 336 543 q 362 532 350 538 q 389 521 374 526 q 459 492 425 507 q 529 460 493 478 q 578 426 554 447 q 603 375 603 406 l 603 374 z "},"":{"ha":597,"x_min":53,"x_max":544,"o":"m 544 864 q 513 938 544 906 q 431 943 472 942 q 350 946 390 944 l 344 939 q 349 903 347 921 q 350 869 350 886 q 342 789 350 828 q 347 782 339 782 q 429 785 388 783 q 511 789 471 786 q 536 824 528 804 q 544 864 544 844 m 253 789 q 248 830 250 808 q 246 871 246 851 q 247 903 246 886 q 251 939 249 921 q 246 946 251 946 q 86 938 164 943 l 82 936 q 60 901 67 921 q 53 863 53 882 q 82 789 53 819 q 165 785 122 786 q 247 782 207 783 q 253 789 253 782 z "},"":{"ha":1003,"x_min":46,"x_max":958,"o":"m 958 435 q 914 601 954 521 q 811 742 874 681 q 668 840 749 803 q 503 878 588 878 q 337 842 417 878 q 194 744 257 806 q 91 603 131 683 q 46 438 51 524 q 90 273 50 351 q 194 134 131 194 q 337 36 257 74 q 501 -6 417 -1 q 667 34 586 -3 q 810 131 747 71 q 914 270 874 192 q 958 435 954 349 m 897 436 q 863 292 897 361 q 774 169 829 222 q 649 86 719 117 q 503 56 578 56 q 356 88 428 56 q 228 172 285 119 q 139 293 172 224 q 106 438 106 363 q 140 582 106 513 q 229 704 174 651 q 357 788 285 757 q 504 819 429 819 q 649 788 579 819 q 775 703 719 757 q 864 581 831 650 q 897 436 897 511 m 778 557 q 744 635 767 599 q 690 699 722 671 q 617 744 657 728 q 535 763 578 761 l 531 760 q 532 732 532 744 q 533 706 532 719 q 533 678 533 692 q 535 651 533 665 q 538 649 535 649 q 602 617 576 646 q 635 554 628 589 q 639 551 635 551 q 706 553 672 553 q 775 553 740 553 q 778 557 779 553 m 790 346 q 786 350 792 350 l 744 350 q 694 350 719 350 q 644 351 669 350 q 640 347 640 351 q 609 274 636 307 q 538 239 582 240 q 535 235 539 239 q 535 207 535 221 q 533 179 535 194 q 533 151 533 165 q 531 122 532 138 q 535 119 531 119 q 622 142 581 124 q 698 192 664 161 q 756 261 732 222 q 790 346 781 300 m 483 122 l 483 236 q 479 239 483 239 q 417 258 443 240 q 376 304 392 276 q 352 365 360 332 q 344 429 344 397 l 344 440 q 344 449 344 444 q 343 460 343 454 q 351 524 343 490 q 374 585 358 558 q 416 631 390 613 q 478 649 442 649 l 481 649 l 482 651 q 483 707 483 679 q 483 763 483 735 q 479 765 483 765 q 365 735 418 764 q 273 663 313 707 q 210 561 233 618 q 188 446 188 504 l 188 442 q 210 325 188 382 q 273 224 233 268 q 365 151 313 179 q 479 119 418 122 q 483 122 483 119 z "},"":{"ha":1001,"x_min":44,"x_max":957,"o":"m 957 428 q 912 592 951 513 q 810 733 872 672 q 667 832 747 794 q 503 869 588 869 q 337 833 417 869 q 194 736 257 797 q 90 596 131 675 q 44 431 50 517 q 90 266 50 344 q 194 127 131 188 q 337 29 257 67 q 501 -12 417 -8 q 666 28 586 -8 q 809 126 746 65 q 913 264 872 186 q 957 428 953 342 m 897 428 q 863 284 897 353 q 774 163 829 215 q 647 80 718 111 q 501 49 576 49 q 331 92 413 49 q 190 206 249 135 q 247 197 218 200 q 307 190 276 193 q 310 194 311 190 q 286 422 286 308 q 310 643 286 529 q 306 647 310 647 q 246 641 275 644 q 186 633 217 638 l 183 631 q 154 527 164 581 q 144 418 144 474 q 181 217 144 314 q 124 318 144 264 q 104 431 104 372 q 138 574 104 506 q 228 695 172 643 q 356 779 285 747 q 503 813 428 811 q 506 814 506 813 q 651 777 581 810 q 776 692 721 744 q 864 571 831 639 q 897 428 897 503 m 854 424 l 854 458 q 839 530 853 494 q 802 593 825 565 q 747 639 779 621 q 676 658 715 657 l 678 658 q 661 660 672 660 q 597 640 626 660 q 549 593 568 621 q 510 645 536 622 q 450 668 485 668 l 440 668 q 397 654 417 665 q 361 631 378 643 q 358 625 358 629 q 354 576 356 600 q 350 529 353 553 q 356 526 350 524 q 376 538 367 533 q 397 542 386 542 l 400 542 q 417 531 411 542 q 424 511 424 521 q 426 483 425 496 q 426 460 426 471 l 426 417 q 428 300 426 358 q 432 183 429 242 q 436 179 432 179 l 501 179 l 565 179 q 569 183 569 179 q 576 292 575 238 q 578 400 578 346 l 578 451 l 578 461 q 593 515 578 489 q 636 540 608 540 l 644 540 l 647 540 q 696 514 679 540 q 713 460 713 488 l 713 456 q 713 434 713 444 q 714 413 714 424 q 708 301 714 357 q 689 192 701 244 q 693 188 686 188 q 751 194 721 190 q 808 201 781 197 q 811 204 811 201 q 844 311 835 256 q 854 424 854 367 z "},"":{"ha":572,"x_min":51,"x_max":519,"o":"m 519 300 q 518 304 519 303 q 506 314 511 310 q 493 324 500 318 q 456 353 475 339 q 419 383 438 368 q 449 408 435 396 q 476 433 463 421 q 498 453 488 443 q 519 472 508 463 l 519 476 q 513 538 518 508 q 501 597 508 567 q 499 609 500 604 q 496 619 497 614 l 488 622 q 437 582 463 603 q 388 542 411 561 q 347 506 367 524 q 307 474 328 489 q 304 469 304 471 q 306 418 306 443 q 306 369 306 394 q 306 337 306 354 q 307 303 307 319 q 310 299 307 301 q 353 265 333 282 q 397 228 374 247 q 442 192 419 210 q 485 157 465 175 q 491 156 488 154 q 494 160 494 157 q 519 300 515 229 m 271 135 q 271 175 271 156 q 269 214 271 194 q 268 253 268 233 q 268 293 268 274 l 265 296 q 211 340 238 318 q 157 383 185 361 q 172 397 165 390 q 188 411 179 404 l 265 476 q 267 481 267 478 q 267 563 267 521 q 269 644 268 604 q 266 650 269 649 q 260 649 263 651 q 226 619 242 633 q 192 589 210 604 q 125 528 158 558 q 56 469 92 499 l 54 465 q 51 422 51 443 q 51 381 51 403 q 51 346 51 364 q 53 311 51 329 q 54 307 53 307 q 146 230 100 268 q 236 153 192 192 q 249 142 243 147 q 261 131 254 136 q 267 129 264 128 q 271 135 271 131 z "},"":{"ha":1001,"x_min":44,"x_max":957,"o":"m 957 428 q 912 592 951 513 q 810 733 872 672 q 667 832 747 794 q 503 869 588 869 q 337 833 417 869 q 194 736 257 797 q 90 596 131 675 q 44 431 50 517 q 90 266 50 344 q 194 127 131 188 q 337 29 257 67 q 501 -12 417 -8 q 666 28 586 -8 q 809 126 746 65 q 913 264 872 186 q 957 428 953 342 m 897 428 q 863 284 897 353 q 774 163 829 215 q 647 80 718 111 q 501 49 576 49 q 355 81 426 49 q 228 165 283 113 q 138 286 172 217 q 104 431 104 356 q 138 574 104 506 q 228 695 172 643 q 356 779 285 747 q 503 813 428 811 q 506 814 506 813 q 651 777 581 810 q 776 692 721 744 q 864 571 831 639 q 897 428 897 503 m 596 444 q 592 581 596 514 q 581 714 589 647 q 579 718 581 718 q 532 738 557 731 q 481 749 507 746 q 478 744 478 749 q 472 721 475 732 q 461 699 468 710 l 461 697 q 462 583 461 639 q 463 468 463 526 q 462 306 463 386 q 461 146 461 226 q 464 142 461 142 q 578 171 525 142 q 578 172 578 171 q 579 174 579 172 q 592 308 589 240 q 596 444 596 375 m 401 668 q 401 672 403 671 q 396 671 399 674 q 392 667 394 669 q 386 658 390 665 l 386 660 q 372 646 379 651 q 354 639 365 640 l 340 636 l 333 632 l 332 633 q 328 629 328 635 q 326 604 326 622 q 324 575 324 589 q 322 547 324 561 q 326 543 322 543 q 394 551 364 550 q 399 554 399 551 q 399 612 399 583 q 401 668 400 640 z "},"":{"ha":1001,"x_min":44,"x_max":957,"o":"m 957 428 q 912 592 951 513 q 810 733 872 672 q 667 832 747 794 q 503 869 588 869 q 337 833 417 869 q 194 736 257 797 q 90 596 131 675 q 44 431 50 517 q 90 266 50 344 q 194 127 131 188 q 337 29 257 67 q 501 -12 417 -8 q 666 28 586 -8 q 809 126 746 65 q 913 264 872 186 q 957 428 953 342 m 897 428 q 863 284 897 353 q 774 163 829 215 q 647 80 718 111 q 501 49 576 49 q 355 81 426 49 q 228 165 283 113 q 138 286 172 217 q 104 431 104 356 q 138 574 104 506 q 228 695 172 643 q 356 779 285 747 q 503 813 428 811 q 506 814 506 813 q 651 777 581 810 q 776 692 721 744 q 864 571 831 639 q 897 428 897 503 m 760 157 q 740 236 743 196 l 740 249 q 737 296 739 271 q 728 344 735 321 q 708 386 722 367 q 671 417 694 406 l 665 418 q 703 435 686 422 q 733 467 721 449 q 753 507 746 485 q 760 550 760 529 l 760 557 q 733 647 760 603 q 660 717 706 690 q 590 740 626 736 q 514 744 553 744 q 494 744 503 744 q 475 743 485 743 q 471 739 471 743 q 469 683 469 711 q 468 626 468 654 q 471 622 468 622 l 475 622 q 490 623 482 622 q 506 625 499 624 l 531 625 l 549 625 q 574 623 561 625 q 599 613 588 621 q 614 584 611 597 q 619 558 617 571 l 619 550 q 618 517 619 535 q 608 488 617 500 q 574 469 590 472 q 542 467 557 467 l 469 467 q 465 464 465 467 l 465 406 q 465 376 465 390 q 464 347 465 363 q 468 344 464 344 l 474 344 q 487 344 481 344 q 500 343 493 343 q 519 340 511 340 q 559 329 539 339 q 588 300 579 319 l 588 301 q 597 261 594 279 q 600 228 599 243 q 601 219 600 224 q 601 211 601 215 q 610 168 604 188 q 625 129 617 149 q 629 126 628 126 q 694 136 663 131 q 757 151 726 142 q 760 157 763 151 m 417 132 q 406 283 410 207 q 403 436 403 360 q 406 585 403 511 q 417 733 410 658 q 411 738 417 738 q 352 726 382 732 q 293 713 322 721 l 290 710 q 266 570 274 640 q 258 426 258 500 q 288 157 258 290 l 290 154 q 413 129 351 138 q 417 132 417 129 z "},"":{"ha":1001,"x_min":44,"x_max":957,"o":"m 957 428 q 912 592 951 513 q 810 734 872 672 q 667 833 747 796 q 503 869 588 869 q 337 833 417 869 q 194 736 257 797 q 90 596 131 675 q 44 431 50 517 q 90 266 50 344 q 194 127 131 188 q 337 29 257 67 q 501 -12 417 -8 q 666 28 586 -8 q 809 126 746 65 q 913 264 872 186 q 957 428 953 342 m 897 428 q 863 284 897 353 q 774 163 829 215 q 647 80 718 111 q 501 49 576 49 q 355 81 426 49 q 228 165 283 113 q 138 286 172 217 q 104 431 104 356 q 138 574 104 506 q 228 695 172 643 q 356 779 285 747 q 503 813 428 811 q 506 814 506 813 q 651 777 581 810 q 776 692 721 744 q 864 571 831 639 q 897 428 897 503 m 654 478 q 647 524 654 500 q 647 526 647 525 q 646 526 646 526 q 603 531 625 531 q 563 525 579 531 l 560 524 q 556 501 557 513 q 554 476 554 489 q 558 438 554 456 q 559 437 558 438 q 561 436 560 436 q 583 432 572 433 q 606 431 594 431 q 646 436 629 431 q 648 437 647 436 q 649 438 649 438 q 654 478 654 456 m 742 226 q 738 229 742 229 q 662 217 700 219 q 585 214 624 214 l 571 214 q 568 211 568 214 l 568 128 q 571 125 568 125 l 581 125 q 655 130 618 125 q 726 147 692 135 q 728 148 728 147 q 729 149 729 149 q 735 188 732 168 q 742 226 739 207 m 528 131 q 523 247 525 189 q 521 365 521 306 q 523 478 521 422 q 528 590 525 533 q 524 593 528 593 q 477 585 500 590 q 432 572 454 581 l 429 571 q 414 465 418 518 q 410 356 410 411 q 414 253 410 304 q 428 151 418 201 q 428 151 428 151 q 431 150 429 150 q 476 136 453 142 q 524 128 500 131 q 528 131 528 128 m 376 478 q 369 524 376 500 q 369 526 369 525 q 368 526 368 526 q 325 531 347 531 q 285 525 301 531 l 282 524 q 278 501 279 513 q 276 476 276 489 q 281 438 276 456 q 281 437 281 438 q 283 436 282 436 q 306 432 294 433 q 328 431 317 431 q 368 436 351 431 q 370 437 369 436 q 371 438 371 438 q 376 478 376 456 m 604 461 q 603 446 604 450 q 601 444 603 444 q 601 444 601 444 q 585 443 596 443 q 575 443 581 443 q 567 444 571 443 q 565 444 567 444 q 565 446 565 444 q 565 453 565 449 q 564 461 564 457 q 565 471 564 467 q 567 481 565 475 q 585 483 578 483 q 593 483 589 483 q 601 482 597 482 l 603 481 q 604 461 604 475 m 326 461 q 325 446 326 450 q 324 444 325 444 q 324 444 324 444 q 307 443 318 443 q 297 443 303 443 q 289 444 293 443 q 288 444 289 444 q 288 446 288 444 q 287 453 288 449 q 286 461 286 457 q 287 471 286 467 q 289 481 288 475 q 297 482 293 481 q 307 483 301 483 q 315 483 311 483 q 324 482 319 482 l 325 481 q 326 461 326 475 z "},"":{"ha":494,"x_min":50,"x_max":443,"o":"m 443 692 q 424 761 440 728 q 380 821 407 794 q 318 863 353 847 q 247 882 283 879 q 175 865 210 881 q 113 822 140 849 q 69 762 86 796 q 50 692 51 728 q 68 620 51 654 q 112 560 85 586 q 174 517 139 533 q 246 500 208 501 q 249 501 247 500 q 250 501 250 501 q 320 520 286 504 q 381 563 354 536 q 425 622 408 589 q 443 692 442 656 m 386 689 q 374 638 386 663 q 343 596 363 614 q 299 567 324 578 q 247 556 274 556 q 196 566 221 556 q 151 595 171 576 q 119 638 131 614 q 107 690 107 663 q 118 739 107 715 q 148 781 129 763 q 191 811 167 800 q 242 824 215 822 q 244 822 242 822 q 297 811 271 822 q 342 782 322 800 q 374 740 361 764 q 386 689 386 715 z "},"":{"ha":800,"x_min":22,"x_max":776,"o":"m 776 722 q 764 814 776 772 q 763 817 764 815 q 761 818 761 818 q 675 826 717 826 q 593 817 631 826 l 589 813 q 578 719 578 765 q 586 642 578 679 q 590 638 586 638 q 635 631 613 633 q 681 628 657 628 q 761 638 726 628 q 765 642 765 638 q 774 681 772 661 q 776 722 776 701 m 517 860 q 517 879 517 871 q 515 900 517 889 q 511 906 515 906 q 425 921 468 914 q 338 928 382 928 l 321 928 q 315 922 315 928 q 247 586 313 749 q 61 299 181 424 q 60 292 58 296 q 65 289 61 289 q 133 283 99 285 q 200 278 167 281 q 226 276 214 276 q 253 275 240 276 l 257 276 q 282 305 269 289 q 306 339 294 321 q 315 351 311 346 q 322 363 318 356 q 395 476 360 418 q 458 597 431 535 q 501 725 485 660 q 517 860 517 790 m 221 722 q 208 814 221 772 q 207 817 208 815 q 206 818 206 818 q 119 826 161 826 q 38 817 75 826 l 33 813 q 22 719 22 765 q 31 642 22 679 q 35 638 31 638 q 79 631 57 633 q 125 628 101 628 q 206 638 171 628 q 210 642 210 638 q 219 681 217 661 q 221 722 221 701 m 629 206 q 622 211 632 214 q 481 191 551 197 q 340 185 411 185 q 43 214 190 185 q 36 207 36 217 q 47 135 42 171 q 58 65 51 100 q 63 61 58 61 q 198 26 129 38 q 338 14 267 14 q 474 24 407 14 q 606 58 542 35 l 610 63 q 622 132 617 96 q 629 206 626 168 m 747 744 q 743 713 747 726 q 742 710 743 711 q 742 710 742 710 q 725 707 733 707 q 708 707 718 707 q 690 708 699 707 q 672 710 681 708 q 669 713 669 710 q 667 727 668 719 q 667 744 667 735 q 671 782 667 763 l 672 783 q 706 788 689 788 q 724 787 715 788 q 742 785 732 786 q 742 784 742 785 q 743 782 743 783 q 747 744 747 765 m 192 744 q 188 713 192 726 q 187 710 188 711 q 186 710 186 710 q 169 707 178 707 q 153 707 163 707 q 134 708 143 707 q 117 710 125 708 q 114 713 114 710 q 112 727 113 719 q 111 744 111 735 q 115 782 111 763 l 117 783 q 133 785 125 783 q 150 788 142 788 q 168 787 160 788 q 186 785 176 786 q 187 784 186 785 q 188 782 188 783 q 192 744 192 765 z "},"":{"ha":846,"x_min":46,"x_max":800,"o":"m 800 722 q 788 814 800 772 q 786 817 788 815 q 785 818 785 818 q 699 826 740 826 q 617 817 654 826 l 613 813 q 601 719 601 765 q 610 642 601 679 q 614 638 610 638 q 658 631 636 633 q 704 628 681 628 q 785 638 750 628 q 789 642 789 638 q 798 681 796 661 q 800 722 800 701 m 724 318 q 717 324 724 324 q 663 317 689 319 q 614 313 638 314 q 608 307 608 313 q 606 220 607 263 q 603 135 606 178 q 606 129 603 131 q 613 131 610 128 q 618 136 615 133 q 628 150 621 139 l 628 149 q 649 169 639 160 q 675 179 660 178 l 697 183 l 707 189 l 708 188 q 715 193 715 185 q 717 211 717 201 q 718 232 717 221 q 722 276 721 254 q 724 318 722 297 m 514 926 q 508 932 514 932 q 420 922 464 932 q 338 888 376 911 q 335 885 335 888 q 314 680 319 782 q 308 474 308 578 q 314 268 308 369 q 332 65 319 167 q 335 60 332 60 q 483 14 401 22 q 489 19 489 14 q 513 89 493 60 l 513 92 q 512 265 513 179 q 511 438 511 350 q 512 683 511 561 q 514 926 513 804 m 244 722 q 232 814 244 772 q 231 817 232 815 q 229 818 229 818 q 143 826 185 826 q 61 817 99 826 l 57 813 q 46 719 46 765 q 54 642 46 679 q 58 638 54 638 q 103 631 81 633 q 149 628 125 628 q 229 638 194 628 q 233 642 233 638 q 242 681 240 661 q 244 722 244 701 m 618 -57 q 614 -50 618 -50 q 547 -44 581 -46 q 482 -40 514 -42 q 476 -43 479 -40 q 435 -115 460 -78 q 426 -129 431 -122 q 418 -142 422 -136 q 410 -128 415 -135 q 401 -112 406 -121 q 383 -81 393 -97 q 364 -42 374 -65 l 358 -39 q 306 -41 332 -39 q 256 -46 281 -43 q 242 -47 249 -47 q 229 -49 236 -47 q 225 -54 225 -49 q 252 -137 228 -100 q 306 -211 276 -175 q 315 -224 311 -218 q 324 -235 319 -229 q 328 -237 324 -237 q 372 -240 351 -240 q 417 -240 393 -240 q 461 -240 439 -240 q 507 -239 483 -240 q 515 -229 514 -232 q 579 -149 549 -190 q 618 -57 610 -108 m 743 744 q 738 713 743 725 q 736 710 738 710 q 721 707 729 707 q 704 707 713 707 q 685 708 694 707 q 667 710 676 708 q 666 710 667 710 q 665 713 665 711 q 661 744 661 726 q 663 763 661 754 q 667 782 664 772 l 668 783 q 701 788 685 788 q 719 787 711 788 q 736 785 728 786 q 737 784 736 785 q 738 782 738 783 q 743 744 743 767 m 188 744 q 182 713 188 725 q 181 710 182 710 q 165 707 174 707 q 149 707 157 707 q 130 708 139 707 q 111 710 121 708 q 110 710 111 710 q 110 713 110 711 q 106 744 106 726 q 107 763 106 754 q 111 782 108 772 l 113 783 q 129 785 121 783 q 146 788 138 788 q 164 787 156 788 q 181 785 172 786 q 181 784 181 785 q 182 782 182 783 q 188 744 188 767 z "},"":{"ha":972,"x_min":32,"x_max":939,"o":"m 939 722 q 926 814 939 772 q 925 817 926 815 q 924 818 924 818 q 838 826 879 826 q 756 817 793 826 l 751 813 q 740 719 740 765 q 749 642 740 679 q 753 638 749 638 q 797 631 775 633 q 843 628 819 628 q 924 638 889 628 q 928 642 928 638 q 937 681 935 661 q 939 722 939 701 m 675 472 q 638 900 675 689 q 633 904 638 904 q 447 949 546 938 q 443 943 443 949 q 456 435 456 689 q 455 359 456 397 q 454 283 454 321 l 454 254 q 454 239 454 247 q 453 225 454 232 l 451 210 l 446 200 q 426 186 435 189 q 411 181 418 183 q 407 178 407 181 q 404 91 406 133 q 400 6 403 49 q 406 0 400 0 l 425 0 q 433 1 428 0 q 440 1 438 1 q 450 4 444 3 q 463 10 456 6 l 461 8 q 544 51 507 22 q 608 117 581 79 q 650 199 635 154 q 668 292 665 244 q 673 382 671 336 q 675 472 675 428 m 383 722 q 371 814 383 772 q 369 817 371 815 q 368 818 368 818 q 282 826 324 826 q 200 817 238 826 l 196 813 q 185 719 185 765 q 193 642 185 679 q 197 638 193 638 q 242 631 219 633 q 288 628 264 628 q 368 638 333 628 q 372 642 372 638 q 381 681 379 661 q 383 722 383 701 m 314 4 l 314 90 q 314 133 314 113 q 313 176 314 154 q 308 181 313 181 q 275 192 290 183 q 253 218 260 201 l 253 217 q 246 252 247 236 q 244 279 244 268 l 244 308 q 244 326 244 317 q 246 344 244 336 q 247 363 247 354 q 247 381 247 371 q 242 386 247 386 q 38 394 139 388 l 32 389 q 33 368 33 378 q 33 350 33 360 q 34 337 33 343 q 35 324 35 331 q 55 209 35 267 q 110 106 75 151 q 196 30 146 60 q 308 -1 246 0 q 314 4 314 -1 m 563 -57 q 558 -50 563 -50 q 492 -44 525 -46 q 426 -40 458 -42 q 421 -43 424 -40 q 379 -115 404 -78 q 371 -129 375 -122 q 363 -142 367 -136 q 346 -112 356 -129 q 328 -81 338 -97 q 308 -42 318 -65 l 303 -39 q 251 -41 276 -39 q 200 -46 225 -43 q 186 -47 193 -47 q 174 -49 181 -47 q 169 -54 169 -49 q 197 -137 172 -100 q 250 -211 221 -175 q 260 -224 256 -218 q 268 -235 264 -229 q 272 -237 268 -237 q 317 -240 296 -240 q 361 -240 338 -240 q 406 -240 383 -240 q 451 -239 428 -240 q 460 -229 458 -232 q 524 -149 493 -190 q 563 -57 554 -108 m 910 703 q 906 671 910 685 q 905 669 906 669 q 904 668 904 668 q 888 665 896 665 q 871 665 881 665 q 852 666 861 665 q 835 668 843 667 q 832 671 832 668 q 830 685 831 678 q 829 703 829 693 q 833 740 829 721 l 835 742 q 868 746 851 746 q 886 745 878 746 q 904 743 894 744 q 905 742 904 743 q 906 740 906 742 q 910 703 910 724 m 354 703 q 350 671 354 685 q 349 669 350 669 q 349 668 349 668 q 332 665 340 665 q 315 665 325 665 q 297 666 306 665 q 279 668 288 667 q 276 671 276 668 q 274 685 275 678 q 274 703 274 693 q 278 740 274 721 l 279 742 q 296 744 288 742 q 313 746 304 746 q 331 745 322 746 q 349 743 339 744 q 349 742 349 743 q 350 740 350 742 q 354 703 354 724 z "},"":{"ha":319,"x_min":33,"x_max":289,"o":"m 286 972 q 282 979 289 979 q 160 989 225 989 q 124 988 142 989 q 88 986 107 988 l 82 983 q 49 906 64 946 q 33 821 33 865 l 33 808 q 38 803 33 803 q 94 796 65 799 q 153 793 124 793 q 157 796 154 793 q 169 810 164 803 q 181 826 175 818 q 238 899 210 863 q 286 972 267 936 z "},"":{"ha":860,"x_min":53,"x_max":807,"o":"m 807 583 q 794 675 807 633 q 793 678 794 676 q 792 679 792 679 q 706 688 747 688 q 624 678 661 688 l 619 674 q 608 581 608 626 q 617 503 608 540 q 621 499 617 499 q 665 492 643 494 q 711 489 688 489 q 792 499 757 489 q 796 503 796 499 q 805 542 803 522 q 807 583 807 563 m 671 710 q 669 757 669 733 q 667 806 669 782 q 665 828 665 817 q 664 851 665 840 q 660 857 664 857 q 597 871 628 864 q 535 881 567 878 q 532 961 533 921 q 528 1043 531 1001 q 522 1049 528 1049 q 421 1031 469 1046 q 328 993 372 1015 q 325 988 325 990 q 324 960 325 974 q 322 931 324 946 q 321 903 321 917 q 319 876 321 890 q 275 870 296 874 q 231 861 254 867 l 226 856 q 225 832 225 844 q 224 810 225 821 q 219 762 221 786 q 218 713 218 738 q 224 707 218 707 l 231 707 q 272 711 251 710 q 315 714 293 713 q 313 659 314 686 q 313 604 313 632 q 314 504 313 554 q 317 406 315 454 q 317 379 317 392 q 318 353 318 367 l 318 340 q 330 270 318 304 q 364 208 342 236 q 416 164 386 181 q 482 147 446 147 q 500 148 492 147 q 517 151 508 149 q 576 165 549 156 q 626 189 603 175 l 643 196 q 646 201 646 196 l 650 239 q 656 290 653 265 q 661 340 660 315 q 653 346 661 349 q 596 326 621 332 q 581 324 585 324 q 549 341 561 324 q 536 379 536 358 q 538 393 536 388 q 540 489 539 440 q 540 585 540 538 q 540 649 540 617 q 539 715 539 682 q 602 710 571 713 q 667 704 633 708 q 671 710 671 704 m 251 583 q 239 675 251 633 q 238 678 239 676 q 236 679 236 679 q 150 688 192 688 q 68 678 106 688 l 64 674 q 53 581 53 626 q 61 503 53 540 q 65 499 61 499 q 110 492 88 494 q 156 489 132 489 q 236 499 201 489 q 240 503 240 499 q 249 542 247 522 q 251 583 251 563 m 667 -57 q 663 -50 667 -50 q 596 -44 629 -46 q 531 -40 563 -42 q 525 -43 528 -40 q 483 -115 508 -78 q 475 -129 479 -122 q 467 -142 471 -136 q 459 -128 464 -135 q 450 -112 454 -121 q 432 -81 442 -97 q 413 -42 422 -65 l 407 -39 q 355 -41 381 -39 q 304 -46 329 -43 q 290 -47 297 -47 q 278 -49 285 -47 q 274 -54 274 -49 q 301 -137 276 -100 q 354 -211 325 -175 q 364 -224 360 -218 q 372 -235 368 -229 q 376 -237 372 -237 q 421 -240 400 -240 q 465 -240 442 -240 q 510 -240 488 -240 q 556 -239 532 -240 q 564 -229 563 -232 q 628 -149 597 -190 q 667 -57 658 -108 m 792 550 q 788 518 792 532 q 785 515 788 515 q 769 513 778 513 q 753 513 761 513 q 734 513 743 513 q 715 515 725 514 q 715 516 715 515 q 714 518 714 517 q 711 532 711 525 q 711 550 711 540 q 715 588 711 568 l 717 589 q 750 593 733 593 q 768 592 760 593 q 785 590 776 592 q 785 590 785 590 q 786 588 786 589 q 792 550 792 572 m 236 550 q 232 518 236 532 q 229 515 232 515 q 214 513 222 513 q 197 513 206 513 q 178 513 188 513 q 160 515 169 514 q 159 516 160 515 q 158 518 158 517 q 156 532 156 525 q 156 550 156 540 q 160 588 156 568 l 161 589 q 178 591 169 589 q 194 593 186 593 q 213 592 204 593 q 229 590 221 592 q 230 590 229 590 q 231 588 231 589 q 236 550 236 572 z "},"":{"ha":683,"x_min":53,"x_max":631,"o":"m 631 826 q 629 847 631 843 q 626 858 628 851 q 624 874 625 865 q 622 889 624 882 l 619 893 q 490 937 557 921 q 351 953 422 953 l 342 953 q 235 928 285 953 q 147 864 185 904 q 84 772 108 824 q 56 665 60 719 l 56 667 q 53 653 54 660 q 53 639 53 646 q 69 563 53 599 q 111 501 85 528 q 173 456 138 474 q 247 435 208 439 q 247 387 247 411 q 246 339 246 363 q 249 106 246 221 q 257 -128 253 -10 q 258 -162 258 -146 q 260 -197 258 -179 q 265 -203 260 -203 q 299 -206 282 -206 q 336 -208 317 -207 q 342 -203 342 -208 q 340 111 340 -44 q 340 422 340 267 q 340 647 340 535 q 342 875 340 761 q 427 871 385 875 q 513 856 469 867 q 529 353 529 603 q 524 84 529 218 q 507 -185 518 -50 q 514 -190 507 -193 q 550 -181 533 -186 q 581 -169 567 -176 q 583 -165 583 -169 q 608 95 600 -35 q 615 358 615 225 q 590 833 615 596 q 597 831 593 832 q 604 829 601 831 q 614 825 610 826 q 624 821 618 824 q 631 826 631 818 z "},"":{"ha":324,"x_min":54,"x_max":269,"o":"m 269 385 q 237 458 267 425 q 167 490 207 490 l 165 490 q 125 481 144 490 q 90 457 106 472 q 65 422 75 442 q 54 382 56 403 q 90 312 58 342 q 161 279 121 282 q 201 290 182 281 q 234 313 219 299 q 258 346 249 328 q 269 385 268 364 z "},"":{"ha":201,"x_min":3,"x_max":193,"o":"m 193 -197 l 193 -165 q 192 -119 193 -142 q 185 -75 190 -97 q 181 -71 185 -71 q 137 -60 160 -64 q 90 -57 114 -57 q 36 -62 60 -57 q 35 -64 36 -62 q 33 -68 33 -65 l 29 -114 q 25 -150 26 -133 q 24 -185 24 -167 l 24 -197 q 29 -203 24 -203 l 75 -203 q 60 -220 68 -211 q 44 -239 51 -229 q 25 -263 33 -251 q 8 -287 17 -275 q 11 -296 3 -293 q 56 -306 33 -303 q 104 -310 79 -308 q 107 -307 104 -310 q 122 -290 114 -299 q 136 -271 129 -281 q 165 -234 150 -253 q 193 -197 179 -215 z "},"":{"ha":999,"x_min":35,"x_max":964,"o":"m 789 722 q 776 814 789 772 q 775 817 776 815 q 774 818 774 818 q 688 826 729 826 q 606 817 643 826 l 601 813 q 590 719 590 765 q 599 642 590 679 q 603 638 599 638 q 647 631 625 633 q 693 628 669 628 q 774 638 739 628 q 778 642 778 638 q 787 681 785 661 q 789 722 789 701 m 964 218 q 957 224 964 226 q 804 199 881 206 q 650 193 728 193 l 624 193 q 618 188 618 193 l 618 21 q 624 15 618 15 l 642 15 q 790 25 717 15 q 935 60 864 35 q 939 64 939 60 q 953 142 946 103 q 964 218 960 181 m 536 26 q 526 261 529 144 q 522 496 522 378 q 526 722 522 608 q 536 947 529 835 q 529 953 536 953 q 435 937 482 946 q 344 911 389 928 l 340 907 q 310 694 319 800 q 300 478 300 588 q 309 272 300 374 q 338 69 318 169 q 342 65 338 65 q 434 39 386 50 q 529 21 482 28 q 536 26 536 21 m 233 722 q 221 814 233 772 q 219 817 221 815 q 218 818 218 818 q 132 826 174 826 q 50 817 88 826 l 46 813 q 35 719 35 765 q 43 642 35 679 q 47 638 43 638 q 92 631 69 633 q 138 628 114 628 q 218 638 183 628 q 222 642 222 638 q 231 681 229 661 q 233 722 233 701 m 690 689 q 685 657 690 669 q 684 655 685 656 q 683 654 683 654 q 668 651 676 651 q 650 651 660 651 q 631 652 640 651 q 614 654 622 653 q 613 655 614 654 q 613 657 613 656 q 608 689 608 671 q 614 726 608 710 l 615 728 q 649 732 629 732 q 666 731 657 732 q 683 729 675 731 q 684 728 683 729 q 685 726 685 728 q 689 709 688 718 q 690 689 690 700 m 135 689 q 129 657 135 669 q 128 655 129 656 q 128 654 128 654 q 113 651 121 651 q 94 651 104 651 q 76 652 85 651 q 58 654 67 653 q 58 655 58 654 q 57 657 57 656 q 53 689 53 671 q 58 726 53 710 l 60 728 q 76 730 67 728 q 93 732 85 732 q 110 731 101 732 q 128 729 119 731 q 128 728 128 729 q 129 726 129 728 q 133 709 132 718 q 135 689 135 700 z "},"":{"ha":1001,"x_min":44,"x_max":957,"o":"m 957 428 q 912 592 951 513 q 810 733 872 672 q 667 832 747 794 q 503 869 588 869 q 337 833 417 869 q 194 736 257 797 q 90 596 131 675 q 44 431 50 517 q 90 266 50 344 q 194 127 131 188 q 337 29 257 67 q 501 -12 417 -8 q 666 28 586 -8 q 809 126 746 65 q 913 264 872 186 q 957 428 953 342 m 897 428 q 863 284 897 353 q 774 163 829 215 q 647 80 718 111 q 501 49 576 49 q 355 81 426 49 q 228 165 283 113 q 138 286 172 217 q 104 431 104 356 q 121 531 104 482 q 166 622 138 579 q 233 700 194 664 q 318 761 272 736 q 289 481 289 624 q 296 344 289 411 q 317 210 303 278 q 317 209 317 210 q 319 208 318 208 q 438 181 378 189 q 442 185 442 181 q 433 333 436 260 q 429 482 429 407 q 433 635 429 560 q 442 788 436 711 q 438 792 443 792 q 387 783 413 788 q 336 771 361 778 q 418 801 376 790 q 503 813 460 811 q 506 814 506 813 q 651 777 581 810 q 776 692 721 744 q 864 571 831 639 q 897 428 897 503 m 753 638 q 751 643 758 643 q 666 652 708 649 q 581 658 624 656 q 578 656 581 658 q 557 622 567 639 q 536 588 547 604 q 516 553 526 569 q 496 518 506 536 l 496 515 l 496 438 l 496 357 l 515 321 q 553 250 535 286 q 588 178 572 214 q 590 177 589 178 q 590 176 590 176 q 668 186 631 179 q 742 204 706 193 q 744 210 746 207 q 698 297 725 251 q 643 386 671 342 q 622 418 632 403 q 604 449 613 433 l 728 606 q 740 622 735 614 q 753 638 746 629 z "},"":{"ha":581,"x_min":54,"x_max":525,"o":"m 525 379 q 521 464 525 422 q 520 467 521 465 q 519 468 519 468 q 460 517 489 492 q 403 567 432 543 l 317 640 q 310 642 314 643 q 307 636 307 640 q 308 590 308 614 q 308 546 308 568 l 308 478 q 310 474 308 474 q 328 460 318 467 q 344 447 338 454 q 381 417 364 432 q 417 385 399 401 l 381 353 q 346 323 363 338 q 311 293 329 308 q 310 290 310 293 q 306 126 310 207 q 309 121 306 122 q 315 122 313 119 q 367 168 342 146 q 418 213 393 190 q 469 258 444 236 q 521 301 494 281 q 522 306 522 301 q 524 343 524 325 q 525 379 525 361 m 271 301 q 269 351 269 328 q 269 403 269 376 q 269 435 269 418 q 268 469 268 453 q 265 474 268 471 q 226 505 244 489 q 189 538 208 521 q 145 575 169 556 q 90 617 121 594 q 82 614 83 619 q 57 472 65 542 q 60 468 57 471 q 81 451 67 463 q 110 424 94 439 q 133 405 121 414 q 156 385 144 396 q 129 361 142 372 q 101 339 117 350 q 78 320 90 329 q 56 301 67 311 l 54 297 q 63 224 57 260 q 78 153 68 189 q 86 150 81 144 q 138 190 113 169 q 186 229 163 210 q 227 265 208 247 q 268 297 246 282 q 271 301 271 300 z "},"":{"ha":390,"x_min":0,"x_max":0,"o":""},"":{"ha":390,"x_min":0,"x_max":0,"o":""},"":{"ha":1242,"x_min":35,"x_max":1208,"o":"m 882 642 q 874 707 882 675 l 871 710 q 810 715 843 715 q 780 714 794 715 q 751 708 765 713 l 749 706 q 740 639 740 674 q 742 610 740 624 q 746 583 743 597 q 747 582 746 583 q 750 581 749 581 q 814 574 782 574 q 843 576 829 574 q 871 581 857 578 q 873 582 872 581 q 874 583 874 583 q 881 613 879 599 q 882 642 882 626 m 1099 714 q 1067 827 1093 772 q 999 924 1040 882 q 903 993 957 967 q 789 1024 849 1019 l 790 1024 q 778 1025 783 1025 q 765 1025 772 1025 q 666 992 711 1025 q 592 915 621 960 q 525 977 569 956 q 433 999 481 999 l 421 999 q 318 974 365 999 q 235 908 271 949 q 176 817 199 868 q 149 713 154 765 q 154 707 149 707 q 225 708 190 708 q 297 708 261 708 q 303 714 303 708 q 333 785 307 754 q 403 817 360 817 l 410 817 q 417 817 413 817 q 424 818 421 818 q 466 806 447 818 q 497 776 485 794 q 517 734 510 757 q 524 689 524 711 l 524 667 q 516 626 524 646 q 494 592 508 607 q 463 567 481 576 q 424 558 444 558 l 403 558 q 338 579 367 558 q 304 636 308 600 q 299 642 304 639 q 262 642 279 642 q 226 643 244 643 q 192 644 210 643 q 156 644 174 644 q 150 639 150 644 q 177 544 154 589 q 235 464 200 499 q 317 407 271 429 q 413 381 363 385 l 414 379 q 425 378 419 378 q 439 378 432 378 q 525 401 483 378 q 590 461 567 424 q 665 382 621 417 q 764 347 708 347 q 777 348 771 347 q 790 350 783 349 l 789 350 q 900 376 846 353 q 997 439 954 400 q 1066 529 1039 478 q 1096 639 1093 581 q 1090 644 1096 644 l 1017 644 q 979 644 997 644 q 942 643 961 643 q 936 638 936 643 q 926 594 936 614 q 899 560 915 575 q 861 538 882 546 q 818 531 840 531 l 810 531 q 804 530 807 531 q 799 529 801 529 q 748 542 771 529 q 708 575 725 554 q 683 622 692 596 q 674 674 674 647 l 674 683 q 673 691 674 688 q 672 699 672 694 q 681 751 672 725 q 706 799 690 778 q 746 832 722 819 q 799 844 769 844 q 805 844 801 844 q 811 843 808 843 q 859 833 836 843 q 899 805 882 822 q 926 765 915 788 q 938 717 936 742 q 943 711 940 711 q 981 710 963 711 q 1018 710 999 710 q 1055 709 1036 710 q 1093 708 1074 708 q 1099 714 1099 707 m 486 642 q 476 707 486 678 l 475 710 q 414 715 447 715 q 384 714 399 715 q 356 708 369 713 l 353 706 q 344 639 344 674 q 350 583 344 607 l 353 581 q 418 574 388 574 q 447 576 433 574 q 475 581 461 578 q 477 582 476 581 q 478 583 478 583 q 486 642 486 613 m 747 267 q 747 275 747 271 q 746 285 747 281 l 744 285 q 729 286 739 286 q 714 285 718 286 l 713 283 q 710 267 710 272 q 710 259 710 263 q 713 251 711 256 q 729 249 724 249 q 744 251 736 249 l 746 251 q 747 267 747 257 m 490 267 q 488 285 490 274 q 471 286 482 286 q 463 285 467 286 q 456 285 458 285 l 454 283 q 453 267 453 278 q 454 251 453 257 l 456 251 q 472 249 464 249 q 480 249 476 249 q 488 251 483 250 q 490 267 490 257 m 1208 11 q 1150 171 1206 100 q 1142 172 1147 178 q 1031 97 1092 126 q 903 51 969 68 q 767 28 836 35 q 632 22 699 22 q 494 30 564 22 q 356 55 424 38 q 223 100 288 72 q 103 169 158 128 q 96 169 97 172 q 53 99 68 138 q 35 21 38 61 q 38 17 35 19 q 315 -136 164 -79 q 624 -194 465 -193 q 928 -139 782 -196 q 1201 6 1075 -82 l 1204 6 q 1208 11 1208 6 m 822 628 q 822 616 822 621 q 819 606 821 611 l 818 604 q 808 602 813 603 q 796 601 803 601 q 783 602 789 601 q 771 604 778 603 l 769 606 q 767 626 767 619 q 771 653 767 640 l 771 654 q 783 656 778 656 q 794 657 788 657 q 806 656 800 657 q 818 654 811 656 l 818 653 q 822 628 822 642 m 446 628 q 445 616 446 621 q 443 606 444 611 l 442 604 q 431 602 436 603 q 419 601 426 601 q 407 602 413 601 q 394 604 401 603 l 393 606 q 390 626 390 619 q 394 653 390 640 l 394 654 q 406 656 401 654 q 418 657 411 657 q 429 656 424 657 q 442 654 435 656 l 442 653 q 446 628 446 642 z "},"":{"ha":750,"x_min":33,"x_max":717,"o":"m 456 765 q 453 857 454 811 q 449 949 451 903 q 443 954 449 954 q 404 957 424 957 q 367 957 386 957 q 313 956 339 957 q 260 951 288 954 l 254 946 q 249 855 251 901 q 244 764 247 808 q 250 758 244 758 q 367 763 308 763 q 407 762 386 763 q 450 760 428 761 q 456 765 456 760 m 717 326 q 711 332 717 332 q 525 319 618 322 q 519 314 519 319 l 519 306 q 513 257 519 282 q 494 211 507 232 q 462 177 482 190 q 415 164 442 164 l 408 164 q 406 163 407 164 q 404 163 404 163 l 403 161 q 402 160 403 161 q 401 157 401 158 q 401 78 401 117 q 399 0 401 40 q 404 -6 399 -6 q 525 24 468 -4 q 624 99 582 53 q 692 204 667 144 q 717 326 717 264 m 454 669 l 454 682 q 450 689 454 689 q 413 690 431 690 q 378 690 396 690 q 318 690 347 690 q 260 688 289 689 q 254 682 254 688 q 245 628 254 653 q 220 581 236 603 q 185 539 204 558 q 144 499 165 519 q 104 458 124 479 q 69 415 85 438 q 43 365 53 392 q 33 307 33 339 q 34 299 33 303 q 35 292 35 296 q 56 199 39 244 q 101 116 74 154 q 167 49 129 78 q 250 7 204 21 q 249 9 244 10 q 263 6 254 8 q 281 2 271 4 q 297 -1 292 0 q 308 -3 303 -3 q 319 -6 313 -4 q 326 0 326 -6 q 326 79 326 40 q 325 158 326 118 q 319 164 325 164 q 281 175 297 164 q 255 203 265 186 q 239 241 244 221 q 233 281 233 261 l 233 285 q 243 326 233 307 q 268 363 253 346 q 301 393 283 379 q 336 419 319 407 q 422 516 394 463 q 453 628 449 569 q 454 649 454 639 q 454 669 454 660 z "},"":{"ha":901,"x_min":44,"x_max":858,"o":"m 521 1049 q 506 1128 514 1089 q 489 1207 497 1167 l 483 1211 l 458 1211 q 371 1208 414 1211 q 283 1201 328 1206 q 279 1193 274 1201 q 301 1161 290 1178 q 324 1129 313 1144 q 354 1087 339 1108 q 385 1043 369 1065 q 389 1040 388 1040 q 412 1041 400 1040 q 436 1042 424 1042 q 456 1042 447 1042 q 475 1043 465 1043 q 494 1043 486 1043 q 515 1042 504 1043 q 521 1049 524 1042 m 858 83 q 758 471 822 282 q 624 849 694 660 q 601 908 613 878 q 579 965 590 938 q 574 969 579 969 q 506 972 540 972 q 439 972 472 972 q 383 972 411 972 q 328 971 356 972 l 322 967 q 242 750 282 858 q 165 533 201 642 q 97 313 128 424 q 44 89 67 201 q 49 82 44 83 q 151 53 100 67 q 257 33 203 40 q 264 38 264 33 q 320 269 288 156 q 388 497 353 383 q 404 558 396 528 q 424 619 413 588 q 438 672 431 646 q 450 726 444 699 q 478 606 461 664 q 515 493 496 549 q 532 442 524 467 q 549 390 540 417 q 493 390 521 389 q 438 390 465 390 l 388 390 q 382 386 382 390 q 370 347 375 367 q 358 306 365 326 q 346 264 351 285 q 333 222 340 243 q 339 217 331 217 q 404 214 371 214 q 472 214 438 214 q 536 213 504 214 q 600 215 568 213 q 601 210 600 211 q 624 122 613 165 q 643 36 635 79 q 649 32 643 32 q 753 49 701 39 q 854 76 804 60 q 858 83 858 78 z "},"":{"ha":901,"x_min":44,"x_max":858,"o":"m 604 1193 q 605 1199 607 1196 q 600 1203 603 1203 q 451 1211 526 1211 q 422 1211 436 1211 q 394 1210 410 1211 l 389 1206 q 383 1180 386 1193 q 378 1154 381 1167 q 365 1101 371 1126 q 353 1050 360 1076 q 358 1043 350 1043 l 485 1043 q 489 1044 488 1043 q 519 1084 504 1064 q 550 1124 535 1104 q 576 1159 564 1142 q 604 1193 589 1176 m 858 83 q 756 478 822 286 q 618 861 690 669 q 598 914 607 888 q 578 965 589 940 q 576 968 578 967 q 574 969 574 969 q 518 972 546 971 q 463 972 490 972 q 394 972 428 972 q 328 969 361 971 l 322 965 q 308 929 315 947 q 294 892 301 911 q 152 495 219 693 q 44 89 85 297 q 49 82 44 83 q 151 53 100 67 q 257 33 203 40 q 264 38 264 33 q 320 269 288 156 q 388 497 353 383 q 405 558 396 528 q 424 619 414 588 q 438 671 431 646 q 450 724 444 696 q 478 608 461 664 q 514 494 494 551 q 531 442 522 468 q 547 392 540 417 q 530 391 539 392 q 513 390 521 390 q 469 389 490 389 q 425 389 449 389 l 388 389 q 382 385 382 389 q 370 345 375 365 q 358 304 365 325 q 346 263 351 283 q 333 221 340 242 q 339 215 331 215 q 394 213 367 214 q 450 213 422 213 q 525 213 488 213 q 600 215 564 213 q 623 126 611 171 q 643 36 635 81 q 649 32 643 32 q 753 49 701 39 q 854 76 804 60 q 858 83 858 78 z "},"":{"ha":901,"x_min":44,"x_max":858,"o":"m 661 1038 q 604 1120 633 1079 q 547 1203 575 1161 q 543 1206 547 1206 q 501 1208 522 1207 q 460 1208 479 1208 q 344 1204 400 1208 l 340 1201 q 281 1119 310 1160 q 222 1036 251 1078 q 226 1028 217 1028 q 301 1034 264 1032 q 376 1039 339 1036 q 381 1042 381 1039 q 394 1061 388 1051 q 408 1081 401 1071 q 420 1098 411 1088 q 440 1121 429 1108 q 452 1107 447 1114 q 464 1093 457 1100 q 488 1064 479 1075 q 506 1042 497 1053 q 510 1039 506 1039 q 583 1035 547 1038 q 657 1029 619 1032 q 661 1038 667 1029 m 858 83 q 759 469 822 282 q 625 843 696 656 q 602 904 614 874 q 579 964 590 935 q 574 968 579 968 q 506 971 540 971 q 439 971 472 971 q 383 971 411 971 q 328 969 356 971 l 322 965 q 242 749 282 857 q 165 533 201 642 q 97 313 128 424 q 44 89 67 201 q 49 82 44 83 q 151 53 100 67 q 257 33 203 40 q 264 38 264 33 q 320 269 288 156 q 388 497 353 383 q 404 558 396 528 q 424 619 413 588 q 438 672 431 646 q 450 726 444 699 q 478 606 461 664 q 515 493 496 549 q 532 442 524 467 q 549 390 540 417 q 493 390 521 389 q 438 390 465 390 l 388 390 q 382 386 382 390 q 369 345 375 367 q 357 301 364 324 q 345 261 350 282 q 333 221 340 240 q 339 215 331 215 q 394 213 367 214 q 450 213 422 213 q 525 213 488 213 q 600 215 564 213 q 623 126 611 171 q 643 36 635 81 q 649 32 643 32 q 753 49 701 39 q 854 76 804 60 q 858 83 858 78 z "},"":{"ha":897,"x_min":42,"x_max":856,"o":"m 644 1171 q 643 1192 644 1186 q 638 1196 643 1196 q 613 1199 625 1197 q 589 1201 601 1200 l 540 1206 q 535 1200 535 1206 l 535 1196 q 526 1183 535 1188 q 508 1179 518 1179 l 504 1179 q 474 1183 489 1179 q 442 1192 460 1188 q 403 1201 422 1197 q 363 1204 383 1204 l 354 1204 q 300 1188 321 1204 q 266 1148 279 1172 q 245 1095 253 1124 q 233 1043 238 1067 q 239 1036 231 1036 q 260 1037 250 1036 q 281 1039 269 1038 q 308 1042 294 1040 q 336 1043 321 1043 q 342 1049 342 1043 q 367 1069 344 1067 l 374 1069 q 413 1065 393 1069 q 451 1056 432 1061 q 488 1046 469 1050 q 526 1042 506 1042 q 533 1041 529 1042 q 539 1040 536 1040 q 583 1052 564 1040 q 617 1083 603 1064 q 638 1124 631 1101 q 644 1171 644 1147 m 856 81 q 814 274 839 178 q 758 463 789 369 q 694 650 728 557 q 625 836 660 743 q 601 901 613 868 q 576 965 589 933 q 571 969 576 969 q 503 972 538 972 q 436 972 469 972 q 381 972 408 972 q 325 971 353 972 l 319 967 q 239 750 279 858 q 162 533 199 642 q 94 313 125 424 q 42 89 64 201 q 46 82 42 83 q 149 53 97 67 q 254 33 200 40 q 261 38 261 33 q 318 269 285 156 q 385 497 351 383 q 403 558 394 528 q 421 619 411 588 q 435 672 428 646 q 447 726 442 699 q 476 607 458 664 q 513 492 493 550 q 530 441 522 465 q 544 392 538 417 q 528 392 536 392 q 511 390 519 392 q 490 389 500 389 q 469 389 481 389 q 465 385 465 389 q 453 349 458 367 q 442 313 447 332 q 427 266 435 289 q 411 221 419 243 q 417 214 408 214 q 506 214 461 214 q 596 217 551 214 q 620 126 608 171 q 640 35 632 81 q 646 31 640 31 q 851 74 754 43 q 856 81 856 75 z "},"":{"ha":896,"x_min":40,"x_max":854,"o":"m 690 1003 q 685 1079 689 1042 q 678 1156 682 1117 q 674 1161 678 1161 q 595 1174 635 1168 q 511 1181 556 1179 l 506 1175 q 506 1149 506 1161 q 507 1122 507 1136 q 509 1069 508 1094 q 510 1017 510 1043 q 515 1011 510 1011 q 599 1006 557 1008 q 683 997 640 1004 q 690 1003 692 997 m 386 1175 q 381 1181 386 1181 q 301 1176 340 1179 q 222 1165 261 1172 l 218 1160 q 210 1083 214 1121 q 204 1007 207 1046 q 210 1001 204 1001 q 293 1008 251 1006 q 376 1013 335 1011 q 382 1018 382 1013 l 386 1175 m 854 51 q 751 449 818 254 q 611 833 683 643 l 574 932 q 572 935 574 933 q 569 936 569 936 q 500 939 535 939 q 433 939 467 939 q 378 939 406 939 q 324 938 351 939 l 318 933 q 306 901 311 918 q 293 867 300 883 q 150 468 219 668 q 40 60 81 268 q 44 53 40 54 q 147 23 96 36 q 253 3 199 10 q 260 7 260 3 q 315 236 283 122 q 382 464 347 350 l 419 588 q 446 692 435 638 q 474 576 457 632 q 510 463 490 519 q 528 410 519 436 q 543 360 536 385 q 526 360 535 360 q 510 358 518 360 q 490 357 500 357 q 471 357 481 357 l 456 357 q 450 353 450 357 q 437 313 443 333 q 424 271 431 292 q 410 229 417 250 q 397 189 404 208 q 403 182 394 182 l 439 182 q 596 186 518 182 q 619 94 607 140 q 639 4 631 49 q 644 0 639 0 q 749 17 697 7 q 850 44 800 28 q 854 51 854 46 z "},"":{"ha":901,"x_min":44,"x_max":858,"o":"m 592 1138 l 592 1147 q 580 1199 592 1174 q 549 1242 568 1224 q 504 1273 529 1261 q 453 1285 479 1285 l 450 1285 q 398 1274 422 1285 q 354 1244 374 1263 q 324 1201 335 1225 q 313 1150 313 1176 l 313 1146 q 322 1097 313 1121 q 349 1054 332 1072 q 390 1025 367 1036 q 438 1014 413 1014 l 451 1014 q 503 1023 478 1014 q 547 1048 528 1032 q 579 1087 567 1064 q 592 1138 592 1110 m 858 86 q 759 469 822 282 q 626 844 696 657 q 603 906 615 875 q 579 968 590 936 q 574 972 579 972 q 501 974 538 974 q 429 975 465 975 q 378 974 403 975 q 326 974 353 974 l 321 969 l 283 865 q 149 484 214 675 q 44 94 85 293 q 49 88 44 89 q 151 57 99 69 q 257 35 203 44 q 264 39 264 35 q 334 313 294 178 q 414 585 374 449 q 419 601 417 593 q 424 618 421 610 q 438 672 431 644 q 450 725 444 699 q 477 610 461 665 q 513 500 493 554 q 530 446 521 472 q 546 392 539 419 l 492 392 q 465 390 478 390 q 440 390 454 390 q 414 390 426 390 q 388 392 401 390 q 382 388 386 392 q 369 344 374 365 q 357 299 364 322 q 347 260 351 279 q 335 224 342 242 q 340 217 332 217 q 401 215 371 215 q 463 214 431 214 q 531 214 496 214 q 599 217 565 214 l 601 210 q 624 123 613 165 q 643 36 635 81 q 650 32 643 32 q 753 51 703 39 q 854 79 804 63 q 858 86 858 81 m 503 1146 q 488 1115 503 1126 q 458 1100 474 1103 q 454 1101 457 1101 q 417 1113 435 1101 q 400 1146 400 1125 l 401 1157 q 417 1186 404 1174 q 447 1199 431 1199 l 457 1199 q 489 1182 476 1199 q 503 1146 501 1165 z "},"":{"ha":1253,"x_min":39,"x_max":1215,"o":"m 1210 754 q 1188 831 1199 793 q 1164 907 1178 869 q 1160 911 1164 911 q 999 935 1081 926 q 832 951 917 944 l 826 946 q 828 917 828 931 q 832 889 829 904 q 838 833 835 861 q 843 776 840 804 q 849 771 843 771 q 1026 763 938 768 q 1204 747 1115 757 q 1210 754 1210 747 m 1207 481 q 1206 535 1207 508 q 1201 589 1204 561 q 1196 594 1201 594 q 1140 596 1168 596 q 1086 597 1114 596 q 972 601 1028 600 q 860 603 917 601 l 854 597 q 856 547 856 571 q 857 496 857 522 q 856 460 857 478 q 856 424 856 442 q 861 418 856 418 q 1031 418 946 418 q 1200 421 1115 418 q 1206 426 1206 421 q 1207 453 1207 440 q 1207 481 1207 467 m 1215 217 q 1210 224 1215 224 q 1030 206 1119 213 q 850 197 940 200 l 844 192 q 824 29 836 110 q 829 22 824 22 q 998 35 915 26 q 1163 60 1081 44 q 1167 64 1167 60 q 1193 140 1182 101 q 1215 217 1204 178 m 763 474 q 758 713 763 594 q 744 951 753 831 q 739 957 744 957 q 578 961 657 961 q 497 960 538 961 q 415 956 456 958 l 410 953 q 375 888 392 919 q 340 822 358 856 q 244 643 292 733 q 156 460 197 553 q 85 270 115 367 q 39 72 54 174 q 43 65 39 65 q 140 50 90 57 q 238 38 189 43 q 243 42 243 38 q 355 383 285 217 q 503 715 425 550 q 517 748 510 731 q 532 781 525 765 q 528 454 528 618 l 528 385 q 513 386 521 386 q 496 386 504 386 l 456 386 q 450 382 450 386 q 435 345 443 363 q 421 308 428 328 l 421 310 q 388 219 406 274 q 393 213 385 213 q 430 212 413 213 q 465 211 447 211 q 497 211 481 211 q 531 210 515 211 q 531 148 531 179 q 533 85 532 117 q 534 53 533 68 q 535 21 535 38 q 540 15 535 15 q 639 15 590 15 q 738 17 688 15 q 743 22 743 17 q 758 247 754 135 q 763 474 763 360 z "},"":{"ha":967,"x_min":25,"x_max":940,"o":"m 908 642 q 853 765 890 707 q 765 867 817 824 q 651 938 714 911 q 521 969 589 965 l 515 964 q 515 922 515 943 q 517 882 515 903 q 518 842 518 863 q 518 800 518 821 q 524 794 518 794 q 633 747 585 788 q 697 649 682 707 q 703 644 697 644 q 731 643 718 643 q 760 643 744 643 q 831 640 796 642 q 903 635 867 639 q 908 642 911 635 m 940 325 q 935 331 940 331 q 824 338 879 333 q 715 346 769 342 q 710 340 713 346 q 692 274 708 304 q 651 220 676 243 q 594 184 626 197 q 526 169 561 171 q 522 163 518 169 q 522 74 522 118 q 521 -14 522 31 q 526 -19 521 -19 q 669 10 599 -15 q 797 79 740 35 q 893 185 854 124 q 940 325 932 247 m 499 -12 q 498 76 499 32 q 497 165 497 121 q 492 171 497 171 l 490 171 q 391 198 433 171 q 319 267 349 225 q 276 362 290 310 q 261 464 261 414 l 261 488 q 275 592 261 538 q 317 690 289 646 q 390 764 346 735 q 492 794 433 793 l 494 797 q 495 799 494 797 q 496 801 496 800 l 496 965 q 490 971 496 971 q 313 925 394 968 q 169 812 231 882 q 71 654 108 742 q 26 476 33 567 q 26 459 26 468 q 25 442 25 450 q 63 268 25 351 q 164 122 100 185 q 311 20 228 58 q 485 -18 394 -18 l 493 -18 q 498 -17 496 -18 q 499 -12 500 -15 m 547 -57 q 542 -51 547 -51 l 508 -51 q 469 -51 489 -51 q 431 -50 450 -51 q 403 -48 417 -49 q 376 -47 390 -47 q 371 -53 371 -47 l 371 -187 q 376 -193 371 -193 q 396 -194 388 -194 q 417 -196 406 -194 q 398 -221 406 -208 q 381 -244 390 -233 q 365 -266 372 -256 q 349 -287 357 -276 q 353 -296 343 -296 q 385 -299 369 -299 q 418 -301 401 -300 q 435 -303 428 -303 q 450 -304 442 -303 q 454 -301 451 -304 q 472 -281 457 -299 q 499 -249 486 -264 q 519 -224 510 -237 q 543 -192 528 -211 q 544 -169 543 -181 q 544 -146 544 -157 q 547 -101 546 -122 q 547 -57 547 -79 z "},"":{"ha":772,"x_min":35,"x_max":738,"o":"m 436 1049 q 429 1089 433 1069 q 421 1128 425 1108 q 413 1167 417 1147 q 406 1207 410 1188 l 400 1211 l 386 1211 q 292 1206 338 1211 q 200 1190 246 1200 q 197 1182 193 1188 l 250 1113 q 277 1077 264 1094 q 303 1042 290 1060 q 307 1039 306 1039 q 324 1039 315 1039 q 343 1040 333 1039 q 373 1042 358 1042 q 403 1043 388 1043 q 415 1043 410 1043 q 429 1042 422 1043 q 436 1049 436 1042 m 738 776 q 732 855 735 815 q 725 935 729 894 q 721 940 725 940 q 382 974 554 974 q 335 974 358 974 q 289 971 313 974 l 283 967 q 283 923 283 944 q 282 879 282 901 q 282 835 282 857 q 281 793 282 814 q 286 788 281 788 q 329 789 308 789 q 375 789 351 789 q 553 783 464 789 q 732 771 642 778 q 738 776 738 771 m 707 599 q 701 604 707 604 l 451 604 q 368 605 410 604 q 285 606 326 606 l 279 600 q 279 513 279 556 q 281 426 279 471 q 286 421 281 421 q 349 419 318 419 q 413 419 381 419 q 555 422 483 419 q 697 432 626 425 q 703 438 703 432 q 707 599 707 518 m 269 35 q 253 617 253 324 q 255 790 253 704 q 260 964 257 876 q 254 969 260 969 q 154 959 204 965 q 56 942 104 953 l 51 936 q 35 604 35 769 q 45 344 35 472 q 75 86 56 215 q 78 82 75 82 q 168 50 122 64 q 263 29 214 36 q 269 35 269 29 m 729 232 q 722 238 729 240 q 566 206 644 215 q 408 197 488 197 q 292 201 350 197 l 286 196 q 288 154 288 175 q 289 113 288 133 q 290 71 290 92 q 292 31 290 51 q 297 25 292 25 q 349 21 322 22 q 401 19 375 19 q 557 33 481 19 q 704 76 633 46 q 707 81 707 76 q 719 156 714 118 q 729 232 725 194 z "},"":{"ha":772,"x_min":35,"x_max":738,"o":"m 519 1192 q 521 1198 522 1194 q 517 1201 519 1201 q 453 1208 485 1206 q 389 1211 421 1211 q 310 1207 349 1211 l 306 1203 q 294 1158 299 1181 q 283 1115 289 1136 q 276 1081 279 1099 q 268 1047 274 1064 q 274 1040 268 1040 q 324 1043 300 1043 q 374 1043 347 1043 l 399 1043 q 403 1044 401 1043 q 476 1138 442 1093 q 498 1165 488 1153 q 519 1192 508 1178 m 736 776 q 731 854 735 815 q 724 933 728 893 q 719 939 724 939 q 381 972 553 972 q 333 972 357 972 q 288 969 311 972 l 282 965 q 281 922 282 943 q 281 878 281 900 q 281 835 281 856 q 279 792 281 814 q 285 786 279 786 q 332 788 308 788 q 382 788 357 788 q 556 783 469 788 q 731 771 643 778 q 736 776 738 771 m 706 599 q 700 604 706 604 l 283 604 q 278 599 278 604 q 278 513 278 554 q 279 426 278 471 q 285 421 279 421 q 358 419 321 419 q 432 419 396 419 q 564 422 499 419 q 696 431 629 424 q 701 436 701 431 q 702 463 701 450 q 703 490 703 476 q 705 544 704 517 q 706 599 706 571 m 268 35 q 256 331 261 183 q 251 629 251 479 q 253 795 251 713 q 258 963 256 878 q 253 968 258 968 q 153 958 203 964 q 54 940 103 951 l 50 935 q 39 771 43 851 q 35 608 35 690 q 44 346 35 475 q 74 86 54 217 q 76 82 74 82 q 167 50 121 64 q 261 29 213 36 q 268 35 269 29 m 728 232 q 721 238 728 240 q 565 206 643 215 q 407 197 486 197 q 290 201 349 197 l 285 196 q 288 113 288 154 q 290 31 289 71 q 296 25 290 25 q 347 21 321 22 q 400 19 374 19 q 556 33 479 19 q 703 76 632 46 q 706 81 706 76 q 718 156 713 118 q 728 232 724 194 z "},"":{"ha":772,"x_min":35,"x_max":738,"o":"m 574 1035 l 519 1118 q 464 1203 490 1164 q 460 1206 464 1206 q 423 1208 440 1207 q 388 1208 406 1208 q 321 1206 353 1208 q 257 1197 289 1204 l 254 1194 q 226 1153 239 1174 q 197 1111 213 1132 q 167 1068 182 1089 q 138 1025 153 1047 q 137 1019 135 1022 q 143 1017 139 1015 q 217 1029 179 1025 q 293 1036 256 1033 q 306 1056 296 1042 q 326 1083 317 1069 q 340 1102 333 1093 q 354 1119 347 1111 q 385 1085 369 1103 l 418 1043 q 422 1040 418 1040 q 494 1035 458 1038 q 569 1026 531 1032 q 574 1028 572 1025 q 574 1035 576 1032 m 736 775 q 731 853 735 814 q 724 933 728 893 q 719 939 724 939 q 381 972 553 972 q 333 972 357 972 q 288 969 311 972 l 282 965 q 281 922 282 943 q 281 878 281 900 q 281 833 281 856 q 279 792 281 813 q 285 786 279 786 q 328 788 307 788 q 374 788 350 788 q 551 782 463 788 q 731 769 640 776 q 735 771 733 769 q 736 775 738 772 m 706 599 q 700 604 706 604 l 283 604 q 278 599 278 604 q 278 513 278 554 q 279 426 278 471 q 285 421 279 421 q 347 419 317 419 q 411 419 379 419 q 553 422 482 419 q 696 432 625 425 q 701 438 701 432 q 706 599 706 518 m 268 35 q 256 324 261 179 q 251 615 251 468 q 253 789 251 703 q 258 963 256 875 q 253 968 258 968 q 153 958 203 964 q 54 940 103 951 l 50 935 q 39 771 43 851 q 35 608 35 690 q 44 346 35 475 q 74 86 54 217 q 76 82 74 82 q 167 50 121 64 q 261 29 213 36 q 268 35 269 29 m 728 232 q 721 238 728 240 q 565 206 643 215 q 407 197 486 197 q 290 201 349 197 l 285 196 q 286 154 286 175 q 288 113 286 133 q 290 72 289 92 q 290 31 290 51 q 296 25 293 25 q 347 21 321 22 q 400 19 374 19 q 556 33 479 19 q 703 76 632 46 q 706 81 706 76 q 718 156 713 118 q 728 232 724 194 z "}}}
